<svg width="234" height="185" viewBox="0 0 234 185" fill="none" xmlns="http://www.w3.org/2000/svg">
<path d="M123.472 184.5H137.37C150.439 184.5 162.216 176.62 167.131 164.56L233.998 0.5H222.895C207.86 0.5 194.329 9.58786 188.701 23.4689L123.453 184.5H123.472Z" fill="#185A7D"/>
<path d="M62.152 184.5H75.9481C88.9215 184.5 100.613 176.62 105.492 164.56L171.871 0.5H160.849C145.924 0.5 132.491 9.58786 126.904 23.4689L62.1328 184.5H62.152Z" fill="#238DC1"/>
<path d="M49.5707 62.1119L0 184.5H13.9315C27.014 184.5 38.8037 176.607 43.7241 164.528L92.7931 44.0791L79.9615 44.1368C71.317 44.1368 63.7338 46.5181 57.7907 51.0887C54.0859 53.9309 51.3266 57.8101 49.59 62.1119" fill="#54C8E8"/>
<path d="M87.9447 26.6131C87.9447 26.6131 96.9776 26.6131 99.7689 26.6131L110.546 0.5H99.3812C84.2617 0.5 70.6541 9.52812 64.994 23.318L56.4844 44.0789C62.8423 33.4318 74.5891 26.6321 87.9447 26.6321" fill="#54C8E8"/>
</svg>
