<svg width="114" height="41" viewBox="0 0 114 41" fill="none" xmlns="http://www.w3.org/2000/svg">
<path style="mix-blend-mode:multiply" d="M22.3922 25.884C23.1454 23.9863 21.4222 20.8673 19.4792 19.5114C15.6284 16.8288 10.3182 20.6711 9.90203 23.1663C9.80239 23.7608 9.90496 24.7301 9.37452 25.9631C9.06974 26.6688 8.75031 27.0144 8.75324 27.729C8.75324 28.2913 8.95545 28.6076 8.79427 29.1376C8.66532 29.5653 8.39278 29.8172 8.28434 29.9197C7.67771 30.4761 7.20003 30.1335 6.76337 30.6167C6.42928 30.9886 6.27396 31.6768 6.49082 31.9902C6.72234 32.3211 7.36707 32.2127 7.75684 31.8877C8.12902 31.5802 8.07627 31.2375 8.43967 30.851C8.84116 30.4263 9.34229 30.3795 9.59725 30.3443C13.7763 29.7967 21.2288 28.8155 22.3893 25.884H22.3922Z" fill="url(#paint0_linear_3698_12735)"/>
<path style="mix-blend-mode:multiply" d="M20.4845 16.2496C18.6353 13.3913 16.1999 12.2843 12.7594 10.7205C11.2883 10.0527 4.38086 6.91039 3.11191 8.93989C2.59318 9.76574 3.19104 11.1715 3.79474 12.5977C4.91129 15.2334 6.13921 15.5555 7.58106 18.039C9.36286 21.1052 8.34008 22.0657 9.60317 23.041C11.7191 24.6722 15.9303 23.0117 19.3796 22.8682C19.9188 22.8447 20.5665 22.8535 21.2786 23.1786C22.0992 23.5505 22.3337 24.0308 22.5183 23.94C23.0165 23.6911 22.6121 19.5442 20.4845 16.2555V16.2496Z" fill="url(#paint1_linear_3698_12735)"/>
<path style="mix-blend-mode:multiply" d="M22.5537 25.1636C22.7677 23.0873 20.3089 20.7415 18.1051 20.1558C13.7356 18.996 9.69723 24.5691 9.95805 27.0935C10.0196 27.6939 10.3742 28.5813 10.1925 29.943C10.0899 30.7249 9.87599 31.1671 10.0665 31.8465C10.2159 32.3825 10.4914 32.6109 10.4768 33.1732C10.465 33.6271 10.2746 33.9639 10.1954 34.1015C9.76463 34.8483 9.21954 34.696 8.93234 35.314C8.71255 35.7884 8.74478 36.5 9.03491 36.7197C9.34262 36.951 9.92874 36.6142 10.213 36.1662C10.4856 35.7386 10.3449 35.4311 10.5881 34.9332C10.8577 34.3827 11.3237 34.1572 11.5552 34.0342C15.3855 32.0017 22.2138 28.3763 22.5479 25.1665L22.5537 25.1636Z" fill="url(#paint2_linear_3698_12735)"/>
<path style="mix-blend-mode:multiply" d="M22.2545 15.9422C21.1028 12.668 18.9927 10.9284 16.0094 8.47137C14.7346 7.42001 8.74447 2.4883 7.06231 4.1078C6.37655 4.76673 6.63737 6.29251 6.90406 7.8388C7.3964 10.6971 8.51295 11.3443 9.35403 14.1469C10.3944 17.6056 9.18699 18.2557 10.1922 19.5443C11.8773 21.7027 16.3288 21.2458 19.7049 22.0512C20.2324 22.1771 20.8566 22.3616 21.475 22.8712C22.1871 23.4539 22.3043 23.9869 22.5036 23.9459C23.0428 23.8405 23.5791 19.7142 22.2545 15.9451V15.9422Z" fill="url(#paint3_linear_3698_12735)"/>
<mask id="mask0_3698_12735" style="mask-type:luminance" maskUnits="userSpaceOnUse" x="2" y="3" width="22" height="34">
<path d="M22.5026 23.943C22.5026 23.943 22.5173 23.9372 22.5261 23.9342C23.0565 23.7175 23.5606 19.6585 22.2535 15.9422C21.1018 12.668 18.9918 10.9284 16.0084 8.47137C14.7336 7.42001 8.74351 2.4883 7.06135 4.1078C6.37559 4.76673 6.63642 6.29251 6.9031 7.8388C6.94999 8.11115 7.00567 8.36008 7.06135 8.5973C5.28835 8.15215 3.67066 8.05844 3.11971 8.93994C2.60101 9.7658 3.19883 11.1715 3.80254 12.5977C4.91909 15.2334 6.14701 15.5556 7.58886 18.039C9.37066 21.1052 8.34788 22.0658 9.61097 23.041C9.70182 23.1113 9.7956 23.1728 9.8923 23.2284C9.80732 23.8259 9.88644 24.7718 9.37066 25.9667C9.06588 26.6724 8.74644 27.018 8.74937 27.7326C8.74937 28.2949 8.95159 28.6112 8.7904 29.1412C8.66146 29.5688 8.38891 29.8207 8.28048 29.9232C7.67385 30.4796 7.19616 30.137 6.7595 30.6202C6.42542 30.9921 6.27009 31.6803 6.48696 31.9937C6.71847 32.3246 7.3632 32.2163 7.75297 31.8912C8.12516 31.5837 8.07241 31.241 8.4358 30.8545C8.83729 30.4298 9.33842 30.383 9.59338 30.3478C9.76922 30.3244 9.95385 30.301 10.1385 30.2746C10.033 30.8633 9.90403 31.2733 10.0652 31.8502C10.2147 32.3861 10.4901 32.6145 10.4755 33.1768C10.4638 33.6308 10.2733 33.9675 10.1942 34.1052C9.76336 34.852 9.21827 34.6997 8.93107 35.3176C8.71128 35.792 8.74351 36.5037 9.03364 36.7233C9.34135 36.9547 9.92747 36.6179 10.2117 36.1698C10.4843 35.7423 10.3436 35.4348 10.5869 34.9369C10.8565 34.3863 11.3224 34.1608 11.5539 34.0378C14.9886 32.2133 20.8293 29.1119 22.2418 26.1775C22.2565 26.1482 22.2711 26.1189 22.2858 26.0897C22.2858 26.0867 22.2887 26.0838 22.2916 26.0809C22.3239 26.0194 22.3561 25.9579 22.3796 25.8934C22.4499 25.7148 22.4909 25.5244 22.5202 25.3282C22.529 25.2755 22.5407 25.2228 22.5466 25.1701C22.5466 25.1613 22.5466 25.1554 22.5466 25.1467C22.5554 25.0588 22.5525 24.968 22.5525 24.8772C22.5525 24.8421 22.5554 24.8069 22.5525 24.7718C22.5466 24.5053 22.5085 24.23 22.447 23.9489C22.4528 23.9489 22.4587 23.9489 22.4645 23.9489C22.4733 23.9489 22.4792 23.9547 22.488 23.9518L22.5026 23.943Z" fill="white"/>
</mask>
<g mask="url(#mask0_3698_12735)">
<path fill-rule="evenodd" clip-rule="evenodd" d="M1.85678 43.0098L3.01092 36.084L3.12654 36.1033L1.94206 43.211L-0.90625 41.2432L-0.839591 41.1469L1.85678 43.0098Z" fill="white"/>
<path fill-rule="evenodd" clip-rule="evenodd" d="M13.8647 34.1833L19.7972 37.3672L12.3524 36.3255L8.83398 37.7968L6.08769 45.9658L5.97656 45.9286L8.73979 37.7093L12.3368 36.2051L19.164 37.1604L13.802 34.2825L7.11395 29.3658L7.18341 29.2715L13.8647 34.1833Z" fill="white"/>
<path fill-rule="evenodd" clip-rule="evenodd" d="M7.16873 35.9497L1.11529 41.8871L-0.890625 41.2498L-0.855103 41.1382L1.08355 41.7541L7.08661 35.8662L7.16873 35.9497Z" fill="white"/>
<path fill-rule="evenodd" clip-rule="evenodd" d="M7.17907 35.9564L13.8449 34.2904L13.8164 34.1768L7.07776 35.861L6.12124 40.9415L-0.865806 41.1359L-2.91545 40.6331L-0.930399 37.4951L3.04843 36.162L4.67288 38.2873L4.76605 38.2161L3.09066 36.0244L-1.0072 37.3973L-3.10156 40.7081L-0.878375 41.2536L6.21898 41.056L7.17907 35.9564Z" fill="white"/>
<path fill-rule="evenodd" clip-rule="evenodd" d="M7.90948 23.2793L8.84551 29.318L3.11143 36.1316L-0.876477 41.2179L-0.96875 41.1456L3.02102 36.0572L8.72152 29.2832L7.79366 23.2972L7.90948 23.2793Z" fill="white"/>
<path fill-rule="evenodd" clip-rule="evenodd" d="M17.5522 25.0009L21.1626 20.1815L21.0687 20.1113L17.4523 24.9387L15.6867 28.3912L13.7745 34.2057L12.2656 36.2657L15.6882 40.831L15.782 40.7607L12.4115 36.2648L13.8801 34.2599L15.7952 28.4364L17.5522 25.0009Z" fill="white"/>
<path fill-rule="evenodd" clip-rule="evenodd" d="M0.143022 31.7646L4.13625 32.5876L4.11257 32.7024L0.23423 31.9029L-0.908614 37.4596L-1.02344 37.4361L0.143022 31.7646Z" fill="white"/>
<path fill-rule="evenodd" clip-rule="evenodd" d="M18.8665 22.9629L25.2663 26.2195L19.4622 29.1655L19.4636 29.1826L19.2584 32.7472L19.5337 37.2625L19.4166 37.2695L19.141 32.7472L19.3436 29.2257L16.1248 30.8594L13.8559 34.2987L4.10938 32.7024L4.12834 32.587L13.7999 34.1711L16.0441 30.7692L19.3394 29.0965L18.8665 22.9629ZM19.4525 29.0391L25.0077 26.2193L18.9994 23.162L19.4525 29.0391Z" fill="white"/>
<path fill-rule="evenodd" clip-rule="evenodd" d="M5.36236 26.7842L7.19726 29.2842L7.10272 29.3534L5.42092 27.062L4.17896 32.6727L-0.907933 37.4726L-1.42212 44.8239L-1.53906 44.8157L-1.02168 37.4187L4.07229 32.6124L5.36236 26.7842Z" fill="white"/>
<path fill-rule="evenodd" clip-rule="evenodd" d="M13.875 23.5439L15.5195 29.1669L19.44 29.1228L21.9162 33.1073L21.8166 33.1691L19.3753 29.2407L15.4917 29.2843L7.06952 36.0309L7.0876 29.2615L8.60679 29.2445L3.36719 25.5867L3.43433 25.4906L8.7782 29.2212L13.875 23.5439ZM8.77196 29.3596L8.79614 29.3766L8.81173 29.3594L15.3016 29.2864L7.18739 35.7864L7.2045 29.3772L8.77196 29.3596ZM15.3978 29.1682L8.91796 29.241L13.8216 23.7789L15.3978 29.1682Z" fill="white"/>
<path fill-rule="evenodd" clip-rule="evenodd" d="M13.8083 23.585L17.5203 24.9136L25.1492 26.1603L25.1303 26.2759L17.4908 25.0275L13.8881 23.7379L11.5027 32.4775L12.403 36.2694L10.3837 41.8501L10.2734 41.8103L12.2808 36.2627L11.3817 32.4755L13.8083 23.585Z" fill="white"/>
<path fill-rule="evenodd" clip-rule="evenodd" d="M13.8589 22.3994L13.9108 23.7285L7.14062 22.9504L7.14353 22.8338L13.8589 22.3994ZM7.80238 22.9086L13.7883 23.5965L13.7465 22.5241L7.80238 22.9086Z" fill="white"/>
<path fill-rule="evenodd" clip-rule="evenodd" d="M19.5997 37.6261L16.0391 30.8406L16.1429 30.7861L19.7036 37.5716L19.5997 37.6261Z" fill="white"/>
<path fill-rule="evenodd" clip-rule="evenodd" d="M15.7584 28.3574L19.4217 29.1247L19.3976 29.2394L15.7344 28.4721L15.7584 28.3574Z" fill="white"/>
<path fill-rule="evenodd" clip-rule="evenodd" d="M9.07031 -4.11518L9.18244 -4.14941L11.2861 2.73153L19.4918 5.06431L16.0502 16.5936L23.0331 10.2753L20.031 16.4314L19.9257 16.3801L22.6617 10.7693L15.818 16.9618L19.3455 5.14452L11.1926 2.82675L9.07031 -4.11518Z" fill="white"/>
<path fill-rule="evenodd" clip-rule="evenodd" d="M-0.0134199 -4.06609L5.73151 -5.24756L5.70789 -5.3623L-0.28125 -4.13064L6.6368 1.41484L10.7857 7.87396L8.73666 10.6013L1.82644 5.00897L-0.115848 8.32139L-0.0147086 8.3806L1.85864 5.18577L8.75738 10.7688L10.9284 7.87917L6.7251 1.33545L-0.0134199 -4.06609Z" fill="white"/>
<path fill-rule="evenodd" clip-rule="evenodd" d="M5.69584 -5.24956L5.73394 -5.36035L9.13416 -4.1927L14.078 -4.4903L11.2895 2.81013L6.41668 7.80358L1.81519 5.15196L-2.80469 3.92981L-2.77469 3.81656L1.73441 5.00943L-0.0925479 0.906689L6.8359 1.32612L1.9429 5.09034L6.39634 7.65665L11.1886 2.7457L13.9037 -4.36247L9.11804 -4.07436L5.69584 -5.24956ZM1.86098 5.0055L6.51635 1.42413L0.0930207 1.03528L1.86098 5.0055Z" fill="white"/>
<path fill-rule="evenodd" clip-rule="evenodd" d="M11.2198 2.27051L12.4854 10.3762L14.9466 6.77055L13.2186 14.3815L16.0041 16.7603L13.8241 22.5606L10.3626 19.6571L8.10461 21.3218L5.28125 18.9253L5.72761 15.6164L10.3673 19.5081L12.5028 17.9338L8.60466 13.3457L8.69401 13.2699L12.6733 17.9536L10.4597 19.5856L13.7726 22.3644L15.8655 16.796L13.0886 14.4246L14.6957 7.34587L12.4152 10.6868L11.2601 3.28859L10.9116 7.88261L10.7947 7.87377L11.2198 2.27051ZM10.2703 19.5797L5.81535 15.843L5.40598 18.8774L8.10974 21.1724L10.2703 19.5797Z" fill="white"/>
<path fill-rule="evenodd" clip-rule="evenodd" d="M5.76151 -5.43555L6.71146 1.1661L9.07882 -4.15679L9.18594 -4.1092L6.74381 1.38181L8.80569 10.6729L8.69125 10.6982L6.63834 1.44768L-2.75781 3.89831L5.76151 -5.43555ZM6.61695 1.3322L5.68083 -5.17329L-2.40456 3.68511L6.61695 1.3322Z" fill="white"/>
<path fill-rule="evenodd" clip-rule="evenodd" d="M1.79672 4.90137L4.11753 11.1236L8.74192 10.6273L12.4549 10.4719L13.9499 10.7063L24.2778 10.4224L24.2811 10.5395L13.9424 10.8237L12.5115 10.5994L12.6464 17.861L15.961 16.7066L17.4186 19.0436L21.2818 20.1337L13.8721 23.7152L13.821 23.6097L20.9528 20.1626L17.3431 19.1441L15.9111 16.8481L12.5322 18.0249L12.3951 10.6445L8.6623 13.371L4.53037 12.2304L5.93312 15.9912L1.78125 11.4495L1.79672 4.90137ZM4.47984 12.0949L8.63888 13.243L12.2611 10.5973L8.74875 10.7444L4.15979 11.2368L4.47984 12.0949ZM4.03952 11.2497L4.34038 12.0564L2.15208 11.4523L4.03952 11.2497ZM3.99726 11.1364L1.91242 5.54694L1.89868 11.3616L3.99726 11.1364ZM2.0204 11.5375L4.3909 12.1918L5.61237 15.4666L2.0204 11.5375Z" fill="white"/>
<path fill-rule="evenodd" clip-rule="evenodd" d="M8.60867 10.6758L8.72589 10.6765L8.71147 13.26L13.1708 14.3443L13.1431 14.4582L8.59375 13.3519L8.60867 10.6758Z" fill="white"/>
<path fill-rule="evenodd" clip-rule="evenodd" d="M11.1641 2.73743L11.2752 2.7002L15.9758 16.7134L20.0593 16.3378L17.5591 24.9864L17.4465 24.9538L19.899 16.4702L15.8942 16.8385L11.1641 2.73743Z" fill="white"/>
<path fill-rule="evenodd" clip-rule="evenodd" d="M13.7578 22.4186L17.339 19.0508L17.4193 19.1361L13.8381 22.5039L13.7578 22.4186Z" fill="white"/>
<path fill-rule="evenodd" clip-rule="evenodd" d="M8.6148 13.2607L8.69032 13.3504L5.89316 15.7044L12.6094 17.8858L12.5731 17.9972L5.65625 15.7506L8.6148 13.2607Z" fill="white"/>
<path fill-rule="evenodd" clip-rule="evenodd" d="M27.255 16.8086L23.9569 21.1313L20.9153 31.5954L19.2401 32.7932L19.1719 32.698L20.8141 31.5237L23.8505 21.0777L26.8355 17.1652L21.1502 20.1985L21.095 20.0952L27.255 16.8086Z" fill="white"/>
<path fill-rule="evenodd" clip-rule="evenodd" d="M22.819 10.571L11.2109 2.8279L11.276 2.73047L22.8841 10.4736L22.819 10.571Z" fill="white"/>
<path fill-rule="evenodd" clip-rule="evenodd" d="M16.7812 3.60997L14.8763 7.08618L14.7734 7.02993L16.6783 3.55371L16.7812 3.60997Z" fill="white"/>
<path fill-rule="evenodd" clip-rule="evenodd" d="M25.5553 12.1338L27.4038 17.3914L19.8281 16.4451L25.5553 12.1338ZM20.1297 16.3647L27.2304 17.2517L25.4978 12.3237L20.1297 16.3647Z" fill="white"/>
</g>
<path d="M20.2207 12.3594C21.7915 17.1183 21.7739 23.8569 20.2031 28.6159L24.2473 28.6276C25.3551 23.8687 25.3551 17.1183 24.2473 12.3594H20.2236H20.2207Z" fill="#222222"/>
<path d="M44.626 21.3706L28.3438 12.3594V28.6276H32.4171V19.6134L48.6966 28.6276V12.3594H44.626V21.3706Z" fill="#222222"/>
<path d="M73.1157 16.4252L69.0451 12.3574H56.8685C54.6031 12.3574 52.7656 14.1936 52.7656 16.4574V24.5256C52.7656 26.7894 54.6031 28.6256 56.8685 28.6256H73.1157L69.0451 24.5578H56.8362V16.4252H73.1157Z" fill="#222222"/>
<path d="M81.2581 12.3594H77.1875V28.6276H81.2581V12.3594Z" fill="#222222"/>
<path d="M101.608 12.3594H85.3281L89.3987 16.4242H93.4693V28.6276H97.537V16.4242H105.678L101.608 12.3594Z" fill="#222222"/>
<defs>
<linearGradient id="paint0_linear_3698_12735" x1="6.39118" y1="25.3949" x2="22.571" y2="25.3949" gradientUnits="userSpaceOnUse">
<stop stop-color="#92278F"/>
<stop offset="1" stop-color="#7FC45F"/>
</linearGradient>
<linearGradient id="paint1_linear_3698_12735" x1="2.91554" y1="16.1061" x2="22.7117" y2="16.1061" gradientUnits="userSpaceOnUse">
<stop stop-color="#F15733"/>
<stop offset="1" stop-color="#EE2A7B"/>
</linearGradient>
<linearGradient id="paint2_linear_3698_12735" x1="8.79167" y1="28.3968" x2="22.5655" y2="28.3968" gradientUnits="userSpaceOnUse">
<stop stop-color="#F3903F"/>
<stop offset="1" stop-color="#7FC45F"/>
</linearGradient>
<linearGradient id="paint3_linear_3698_12735" x1="6.62272" y1="13.8658" x2="23.0809" y2="13.8658" gradientUnits="userSpaceOnUse">
<stop stop-color="#2E3192"/>
<stop offset="1" stop-color="#27AAE1"/>
</linearGradient>
</defs>
</svg>
