<svg width="248" height="248" viewBox="0 0 248 248" fill="none" xmlns="http://www.w3.org/2000/svg">
<path d="M228.576 73.7358C236.142 89.4089 240.049 106.596 240 124C240.016 146.313 233.591 168.157 221.497 186.908C209.404 205.66 192.155 220.523 171.822 229.712C151.489 238.902 128.935 242.028 106.869 238.715C84.8034 235.402 64.1625 225.791 47.4245 211.036L56.1125 202.364C56.6258 201.853 56.9906 201.211 57.168 200.509C57.3454 199.807 57.3287 199.069 57.1196 198.375C56.9106 197.682 56.5171 197.058 55.9811 196.57C55.4451 196.083 54.7868 195.75 54.0765 195.608L25.8005 189.94C25.1549 189.811 24.4875 189.843 23.8573 190.033C23.2272 190.224 22.6538 190.567 22.1881 191.032C21.7224 191.498 21.3787 192.071 21.1876 192.701C20.9965 193.331 20.9638 193.998 21.0925 194.644L26.7205 222.916C26.8621 223.625 27.1934 224.283 27.6791 224.819C28.1648 225.354 28.7867 225.749 29.4786 225.959C30.1706 226.17 30.9066 226.189 31.6085 226.014C32.3104 225.84 32.9518 225.478 33.4645 224.968L41.7565 216.696C59.616 232.572 81.6849 242.945 105.305 246.567C128.925 250.188 153.088 246.903 174.883 237.107C196.679 227.311 215.177 211.422 228.15 191.354C241.123 171.286 248.016 147.896 248 124C248.052 105.394 243.875 87.019 235.784 70.2638L228.576 73.7358ZM33.1045 214.024L30.1085 198.964L45.1725 201.984L33.1045 214.024ZM19.4245 174.264C11.8587 158.591 7.95235 141.403 8.00047 124C7.99586 101.687 14.4279 79.8464 26.5251 61.0976C38.6224 42.3487 55.8713 27.4876 76.2031 18.2964C96.535 9.10516 119.087 5.97415 141.153 9.27884C163.22 12.5835 183.865 22.1836 200.612 36.9278L191.888 45.6358C191.375 46.147 191.01 46.7881 190.833 47.4905C190.656 48.193 190.672 48.9304 190.881 49.6241C191.09 50.3177 191.484 50.9416 192.02 51.4291C192.556 51.9165 193.214 52.2493 193.924 52.3918L222.2 58.0598C222.846 58.189 223.513 58.1569 224.144 57.9663C224.774 57.7757 225.347 57.4325 225.813 56.9672C226.279 56.5019 226.622 55.9288 226.813 55.2988C227.004 54.6688 227.037 54.0014 226.908 53.3558L221.28 25.0838C221.139 24.3745 220.808 23.7169 220.322 23.181C219.836 22.6451 219.214 22.2509 218.522 22.0404C217.83 21.8298 217.094 21.8108 216.392 21.9854C215.691 22.16 215.049 22.5216 214.536 23.0318L206.28 31.2678C188.412 15.4031 166.339 5.0406 142.718 1.42745C119.097 -2.1857 94.936 1.10449 73.1416 10.902C51.3472 20.6995 32.8488 36.5869 19.8726 56.6519C6.8964 76.7169 -0.00449152 100.104 0.000471011 124C-0.0510584 142.606 4.12611 160.981 12.2165 177.736L19.4245 174.264ZM214.896 33.9758L217.892 49.0358L202.828 45.9998L214.896 33.9758Z" fill="white"/>
<path d="M177.083 196.712H177.675C181.543 196.708 185.318 195.529 188.5 193.329C191.682 191.13 194.12 188.015 195.49 184.398C196.86 180.781 197.097 176.833 196.171 173.077C195.245 169.322 193.198 165.937 190.303 163.372L154.179 131.336C155.661 125.711 155.579 119.787 153.941 114.205C152.303 108.623 149.172 103.594 144.886 99.6611C140.6 95.7281 135.321 93.0401 129.619 91.8874C123.917 90.7346 118.008 91.1608 112.531 93.1199C111.895 93.3462 111.327 93.7297 110.879 94.2347C110.431 94.7397 110.119 95.3498 109.97 96.0081C109.822 96.6665 109.842 97.3517 110.03 98C110.217 98.6483 110.566 99.2386 111.043 99.7159L120.423 109.1L109.111 120.412L99.7309 111.032C99.2536 110.554 98.663 110.205 98.0142 110.016C97.3655 109.828 96.6796 109.808 96.0206 109.956C95.3617 110.105 94.7511 110.418 94.2458 110.866C93.7405 111.314 93.3569 111.883 93.1309 112.52C91.1723 117.998 90.7464 123.906 91.8993 129.608C93.0522 135.31 95.74 140.589 99.6729 144.875C103.606 149.162 108.634 152.293 114.216 153.931C119.798 155.57 125.721 155.653 131.347 154.172L163.387 190.292C165.104 192.248 167.207 193.828 169.564 194.932C171.921 196.037 174.481 196.643 177.083 196.712ZM132.635 145.6C132.179 145.601 131.726 145.678 131.295 145.828C127.575 147.165 123.581 147.558 119.671 146.974C115.762 146.389 112.058 144.845 108.891 142.479C105.724 140.113 103.193 136.999 101.524 133.415C99.8549 129.832 99.1001 125.891 99.3269 121.944L106.283 128.904C107.047 129.627 108.059 130.029 109.111 130.029C110.163 130.029 111.175 129.627 111.939 128.904L128.911 111.932C129.661 111.182 130.082 110.165 130.082 109.104C130.082 108.043 129.661 107.026 128.911 106.276L121.951 99.3199C125.898 99.0931 129.839 99.8479 133.422 101.517C137.006 103.186 140.12 105.717 142.486 108.884C144.852 112.051 146.396 115.755 146.981 119.664C147.565 123.574 147.171 127.568 145.835 131.288C145.568 132.039 145.532 132.853 145.731 133.625C145.93 134.396 146.354 135.091 146.951 135.62L184.999 169.36C186.129 170.362 187.042 171.584 187.681 172.951C188.321 174.319 188.675 175.803 188.72 177.312C188.765 178.821 188.5 180.324 187.943 181.727C187.386 183.13 186.547 184.405 185.479 185.472C184.419 186.55 183.146 187.395 181.741 187.953C180.336 188.51 178.829 188.767 177.319 188.708C175.809 188.669 174.324 188.318 172.956 187.678C171.589 187.038 170.368 186.122 169.371 184.988L135.627 146.944C135.252 146.521 134.791 146.183 134.275 145.951C133.759 145.719 133.2 145.6 132.635 145.6Z" fill="white"/>
<path d="M180.502 144C185.097 131.117 185.172 117.054 180.712 104.123C176.253 91.1921 167.526 80.1638 155.967 72.8518C144.407 65.5397 130.703 62.3793 117.109 63.8903C103.515 65.4012 90.8393 71.4936 81.1674 81.1655C71.4956 90.8373 65.4032 103.513 63.8922 117.107C62.3812 130.701 65.5417 144.405 72.8537 155.965C80.1658 167.524 91.1941 176.251 104.125 180.711C117.056 185.17 131.119 185.095 144.002 180.5L138.218 173.976C127.101 177.166 115.24 176.572 104.497 172.288C93.7544 168.004 84.7395 160.272 78.8687 150.308C72.9979 140.343 70.6039 128.71 72.0629 117.237C73.522 105.764 78.7513 95.1013 86.9292 86.9233C95.1072 78.7453 105.77 73.516 117.243 72.057C128.716 70.598 140.349 72.9919 150.314 78.8627C160.278 84.7335 168.01 93.7485 172.294 104.491C176.578 115.234 177.172 127.095 173.982 138.212L180.502 144ZM179.826 179.824C180.385 179.265 180.766 178.552 180.92 177.776C181.074 177 180.994 176.196 180.691 175.465C180.388 174.735 179.876 174.11 179.218 173.671C178.56 173.232 177.787 172.997 176.996 172.997C176.205 172.997 175.432 173.232 174.774 173.671C174.117 174.11 173.604 174.735 173.301 175.465C172.998 176.196 172.919 177 173.073 177.776C173.227 178.552 173.607 179.265 174.166 179.824C174.538 180.196 174.979 180.491 175.464 180.692C175.95 180.894 176.47 180.997 176.996 180.997C177.522 180.997 178.042 180.894 178.528 180.692C179.013 180.491 179.455 180.196 179.826 179.824Z" fill="white"/>
<path d="M200.244 144C203.361 143.996 206.35 142.755 208.553 140.551C210.757 138.346 211.997 135.357 212 132.24V115.76C211.997 112.643 210.757 109.654 208.553 107.449C206.35 105.245 203.361 104.004 200.244 104C199.423 104.012 198.62 103.764 197.948 103.291C197.277 102.818 196.773 102.145 196.508 101.368C195.146 97.0175 193.394 92.799 191.272 88.764C190.907 88.0256 190.785 87.1906 190.924 86.3786C191.062 85.5666 191.454 84.8193 192.044 84.244L192.124 84.16C194.294 81.946 195.504 78.9655 195.491 75.8652C195.477 72.7649 194.242 69.795 192.052 67.6L180.4 55.944C178.159 53.8019 175.178 52.6064 172.078 52.6064C168.978 52.6064 165.997 53.8019 163.756 55.944C163.181 56.5331 162.434 56.9248 161.623 57.0628C160.812 57.2008 159.977 57.078 159.24 56.712C155.201 54.5893 150.979 52.8368 146.624 51.476C145.852 51.2106 145.183 50.7088 144.712 50.0418C144.241 49.3748 143.992 48.5765 144 47.76C143.997 44.6427 142.757 41.654 140.553 39.4493C138.35 37.2447 135.361 36.0042 132.244 36H115.756C114.2 36.0068 112.661 36.3211 111.226 36.9248C109.792 37.5285 108.491 38.4097 107.399 39.5178C106.306 40.6259 105.444 41.939 104.86 43.3817C104.277 44.8243 103.985 46.368 104 47.924C104.014 48.6942 103.784 49.449 103.342 50.0805C102.901 50.712 102.272 51.1879 101.544 51.44C97.131 52.8074 92.853 54.5775 88.764 56.728C88.0213 57.0919 87.1821 57.2106 86.3676 57.0668C85.5531 56.923 84.8053 56.5242 84.232 55.928C81.992 53.7885 79.0136 52.5947 75.916 52.5947C72.8184 52.5947 69.84 53.7885 67.6 55.928L55.948 67.6C53.7601 69.7948 52.5253 72.7634 52.5111 75.8624C52.4968 78.9614 53.7044 81.9412 55.872 84.156L55.956 84.244C56.5453 84.8186 56.9378 85.5648 57.0772 86.376C57.2166 87.1872 57.0957 88.0217 56.732 88.76C54.6079 92.7976 52.8527 97.0187 51.488 101.372C51.2235 102.148 50.7198 102.821 50.0493 103.293C49.3788 103.765 48.576 104.013 47.756 104C44.6387 104.004 41.6504 105.245 39.4465 107.449C37.2426 109.654 36.0032 112.643 36 115.76V132.24C36.0032 135.357 37.2426 138.346 39.4465 140.551C41.6504 142.755 44.6387 143.996 47.756 144C48.5769 143.988 49.3804 144.236 50.0515 144.709C50.7226 145.182 51.2269 145.855 51.492 146.632C52.854 150.983 54.6065 155.201 56.728 159.236C57.0932 159.974 57.2151 160.809 57.0765 161.621C56.9378 162.433 56.5455 163.181 55.956 163.756L55.876 163.84C53.7057 166.054 52.496 169.035 52.5095 172.135C52.523 175.235 53.7585 178.205 55.948 180.4L67.6 192.056C69.8411 194.198 72.8218 195.394 75.922 195.394C79.0222 195.394 82.0029 194.198 84.244 192.056C84.8198 191.469 85.5665 191.078 86.3775 190.94C87.1885 190.802 88.0223 190.924 88.76 191.288C92.7986 193.411 97.0212 195.163 101.376 196.524C102.148 196.789 102.817 197.291 103.288 197.958C103.759 198.625 104.008 199.424 104 200.24C104.003 203.357 105.243 206.346 107.447 208.551C109.65 210.755 112.639 211.996 115.756 212H132.244C135.361 211.996 138.35 210.755 140.553 208.551C142.757 206.346 143.997 203.357 144 200.24C143.988 199.421 144.236 198.619 144.707 197.949C145.178 197.278 145.849 196.774 146.624 196.508C149.556 195.566 152.428 194.446 155.224 193.156L149.672 186.9C147.888 187.632 146.072 188.3 144.244 188.872C141.833 189.634 139.731 191.15 138.247 193.196C136.763 195.243 135.975 197.712 136 200.24C135.999 201.236 135.603 202.191 134.899 202.896C134.195 203.601 133.24 203.998 132.244 204H115.756C114.76 203.998 113.805 203.601 113.101 202.896C112.397 202.191 112.001 201.236 112 200.24C112.025 197.712 111.237 195.243 109.753 193.196C108.269 191.15 106.167 189.634 103.756 188.872C99.8654 187.655 96.0927 186.088 92.484 184.192C90.8076 183.306 88.9401 182.843 87.044 182.844C85.4682 182.849 83.9089 183.166 82.4558 183.776C81.0026 184.385 79.6841 185.276 78.576 186.396C77.8589 187.079 76.9065 187.46 75.916 187.46C74.9255 187.46 73.9731 187.079 73.256 186.396L61.6 174.744C60.897 174.037 60.5024 173.081 60.5024 172.084C60.5024 171.087 60.897 170.131 61.6 169.424C61.6296 169.399 61.6565 169.371 61.68 169.34C63.462 167.563 64.6292 165.262 65.0113 162.775C65.3934 160.287 64.9704 157.742 63.804 155.512C61.9069 151.905 60.3405 148.134 59.124 144.244C58.3623 141.833 56.8464 139.731 54.7998 138.247C52.7532 136.763 50.284 135.975 47.756 136C46.7598 135.998 45.8051 135.601 45.101 134.896C44.397 134.191 44.0011 133.236 44 132.24V115.76C44.0011 114.764 44.397 113.809 45.101 113.104C45.8051 112.399 46.7598 112.002 47.756 112C50.2837 112.026 52.7528 111.239 54.7994 109.756C56.8461 108.272 58.3621 106.17 59.124 103.76C60.3433 99.8676 61.9123 96.0935 63.812 92.484C64.9751 90.2546 65.3967 87.7123 65.0154 85.2268C64.6342 82.7413 63.4699 80.4422 61.692 78.664L61.604 78.576C60.901 77.8692 60.5064 76.9129 60.5064 75.916C60.5064 74.9191 60.901 73.9628 61.604 73.256L73.256 61.6C73.9716 60.9107 74.9264 60.5256 75.92 60.5256C76.9135 60.5256 77.8684 60.9107 78.584 61.6C80.361 63.4066 82.6713 64.5947 85.1744 64.9894C87.6776 65.384 90.2414 64.9643 92.488 63.792C96.1434 61.87 99.9674 60.2874 103.912 59.064C106.3 58.306 108.379 56.7952 109.837 54.7575C111.294 52.7199 112.053 50.2649 112 47.76C112.001 46.7638 112.397 45.8087 113.101 45.1039C113.805 44.3991 114.76 44.0021 115.756 44H132.244C133.24 44.0021 134.195 44.3991 134.899 45.1039C135.603 45.8087 135.999 46.7638 136 47.76C135.975 50.288 136.763 52.7572 138.247 54.8038C139.731 56.8504 141.833 58.3663 144.244 59.128C148.135 60.3454 151.907 61.9117 155.516 63.808C157.764 64.981 160.33 65.4 162.834 65.0031C165.338 64.6063 167.649 63.4146 169.424 61.604C170.141 60.9207 171.094 60.5396 172.084 60.5396C173.074 60.5396 174.027 60.9207 174.744 61.604L186.4 73.256C187.103 73.9628 187.498 74.9191 187.498 75.916C187.498 76.9129 187.103 77.8692 186.4 78.576C186.37 78.601 186.344 78.6292 186.32 78.66C184.538 80.4374 183.371 82.7378 182.989 85.2254C182.607 87.7131 183.03 90.2578 184.196 92.488C186.093 96.095 187.659 99.8664 188.876 103.756C189.638 106.167 191.154 108.269 193.2 109.753C195.247 111.237 197.716 112.025 200.244 112C201.24 112.002 202.195 112.399 202.899 113.104C203.603 113.809 203.999 114.764 204 115.76V132.24C203.994 132.746 203.888 133.246 203.687 133.71C203.485 134.175 203.193 134.594 202.828 134.945C202.463 135.295 202.031 135.568 201.558 135.75C201.086 135.931 200.582 136.016 200.076 136C197.599 135.995 195.185 136.776 193.179 138.23C191.174 139.684 189.682 141.736 188.916 144.092C188.328 145.979 187.661 147.841 186.916 149.672L193.152 155.2C194.471 152.356 195.609 149.431 196.56 146.444C196.831 145.695 197.335 145.054 197.998 144.614C198.662 144.174 199.449 143.959 200.244 144Z" fill="white"/>
</svg>
