<svg width="341" height="510" viewBox="0 0 341 510" fill="none" xmlns="http://www.w3.org/2000/svg">
<g opacity="0.23">
<mask id="mask0_3071_12614" style="mask-type:luminance" maskUnits="userSpaceOnUse" x="0" y="-36" width="546" height="546">
<path d="M546 -36H0V510H546V-36Z" fill="white"/>
</mask>
<g mask="url(#mask0_3071_12614)">
<mask id="mask1_3071_12614" style="mask-type:luminance" maskUnits="userSpaceOnUse" x="0" y="-36" width="546" height="546">
<path d="M546 -35.96H0V509.995H546V-35.96Z" fill="white"/>
</mask>
<g mask="url(#mask1_3071_12614)">
<mask id="mask2_3071_12614" style="mask-type:luminance" maskUnits="userSpaceOnUse" x="0" y="-36" width="546" height="546">
<path d="M545.773 -35.1621H0.90625V509.66H545.773V-35.1621Z" fill="white"/>
</mask>
<g mask="url(#mask2_3071_12614)">
<path d="M524.918 224.038V224.562L523.912 211.212V211.736L522.298 198.648L522.387 199.127L520.074 186.169L520.159 186.735L517.194 174.041L517.326 174.52L513.836 162.131L514.011 162.61L509.908 150.395L510.083 150.917L505.371 139.052L505.545 139.488L500.267 127.838L500.484 128.275L494.771 117.018L495.03 117.5L488.704 106.506L488.968 106.898L482.159 96.2527L482.466 96.6894L475.091 86.4364L475.355 86.7858L467.589 76.8822L467.895 77.2742L459.651 67.7647L459.996 68.1567L451.318 59.0392L451.667 59.3438L442.545 50.6609L442.942 51.0103L433.428 42.764L433.777 43.0708L423.876 35.2613L424.268 35.5659L414.013 28.2804L414.409 28.5424L403.762 21.7363L404.154 21.9983L393.162 15.6714L393.596 15.9334L382.255 10.1306L382.732 10.35L371.131 5.15859L371.523 5.33327L359.653 0.62114L360.177 0.795818L347.962 -3.30493L348.401 -3.17498L336.007 -6.75168L336.574 -6.62174L323.835 -9.50185L324.316 -9.41451L311.446 -11.7258L311.927 -11.6385L298.796 -13.3406H299.32L286.01 -14.2992H286.534L273.054 -14.6059H273.578L260.098 -14.2566H260.622L247.27 -13.2958H247.794L234.705 -11.6385L235.187 -11.7258L222.226 -9.41451L222.708 -9.50185L210.012 -6.577L210.578 -6.70908L198.189 -3.13025L198.628 -3.26232L186.408 0.838425L186.89 0.663742L175.024 5.33327L175.502 5.11385L163.853 10.3926L164.335 10.1753L153.079 15.9782L153.513 15.7588L142.521 22.0856L142.913 21.8236L132.27 28.6298L132.662 28.3677L122.407 35.6532L122.799 35.3486L112.898 43.1581L113.247 42.8514L103.738 51.0976L104.13 50.7482L95.0122 59.4312L95.3615 59.1244L86.6786 68.244L87.028 67.8499L78.7797 77.3615L79.0864 77.0122L71.2769 86.9158L71.5837 86.5238L64.2982 96.7767L64.5581 96.3826L57.7541 107.03L58.014 106.636L51.6871 117.63L51.9513 117.193L46.1485 128.537L46.3658 128.057L41.1722 139.663L41.3469 139.269L36.6348 151.137L36.8095 150.613L32.7109 162.827L32.843 162.393L29.2641 174.783L29.3962 174.216L26.5161 186.955L26.6013 186.475L24.2921 199.344L24.3773 198.865L22.6774 211.996V211.474L21.7145 224.737V224.213L21.412 237.693V237.169L21.7614 250.652V250.128L22.7626 263.433V262.911L24.3773 276.042L24.2921 275.563L26.6013 288.432L26.5161 287.952L29.3962 300.649L29.2641 300.125L32.843 312.602L32.7109 312.122L36.8095 324.337L36.6348 323.858L41.3043 335.726L41.087 335.244L46.3658 346.85L46.1485 346.413L51.9513 357.757L51.6871 357.32L58.014 368.314L57.7541 367.922L64.5581 378.567L64.2982 378.131L71.5837 388.383L71.2769 387.991L79.0864 397.895L78.7797 397.546L87.028 407.055L86.6786 406.663L95.3615 415.781L95.0122 415.476L104.13 424.159L103.738 423.81L113.247 432.056L112.855 431.749L122.757 439.516L122.407 439.254L132.662 446.582L132.223 446.277L142.87 453.084L142.478 452.822L153.47 459.148L153.036 458.886L164.377 464.689L163.9 464.47L175.502 469.661L175.11 469.487L186.979 474.199L186.455 474.024L198.67 478.125L198.231 477.995L210.625 481.572L210.054 481.442L222.797 484.322L222.316 484.234L235.187 486.546L234.705 486.458L247.836 488.16H247.312L260.622 489.119H260.098L273.578 489.426H273.054L286.534 489.076H286.01L299.32 488.073H298.796L311.927 486.458L311.446 486.546L324.316 484.234L323.792 484.364L336.489 481.397L336.054 481.529L348.529 478.037L348.005 478.212L360.224 474.111L359.7 474.286L371.565 469.574L371.131 469.749L382.732 464.47L382.34 464.645L393.686 458.929L393.205 459.191L404.197 452.864L403.805 453.126L414.452 446.32L414.013 446.627L424.268 439.297L423.918 439.559L433.82 431.794L433.428 432.098L442.942 423.852L442.545 424.202L451.667 415.521L451.318 415.825L459.996 406.708L459.651 407.1L467.895 397.588L467.589 397.982L475.355 388.079L475.091 388.428L482.466 378.175L482.159 378.655L488.968 368.01L488.704 368.402L495.03 357.407L494.771 357.844L500.573 346.5L500.352 346.982L505.545 335.376L505.371 335.768L510.083 323.903L509.908 324.425L514.011 312.21L513.879 312.646L517.458 300.255L517.283 300.823L520.206 288.085L520.116 288.564L522.43 275.693L522.34 276.172L524.044 263.041V263.565L525.003 250.258V250.782L525.31 237.301V237.825L524.96 224.343L524.918 224.038ZM545.726 237.301L545.377 251.306L544.329 265.135L542.586 278.79L540.188 292.141L537.175 305.404L533.469 318.317L529.191 331.013L524.262 343.36L518.893 355.401L512.873 367.181L506.287 378.612L499.219 389.691L491.584 400.338L483.557 410.634L475.006 420.538L465.974 430.004L456.507 439.035L446.606 447.585L436.308 455.614L425.665 463.249L414.584 470.315L403.153 476.904L391.372 482.882L379.375 488.335L367.028 493.265L354.332 497.54L341.376 501.161L328.198 504.259L314.807 506.658L301.152 508.404L287.365 509.45L273.361 509.8L259.357 509.45L245.57 508.404L231.915 506.658L218.562 504.259L205.299 501.249L192.386 497.54L179.69 493.265L167.347 488.378L155.302 482.969L143.522 476.947L132.096 470.36L121.014 463.292L110.367 455.657L100.069 447.63L90.168 439.079L80.7011 430.047L71.6689 420.58L63.1181 410.721L55.0061 400.426L47.4139 389.779L40.3457 378.742L33.759 367.311L27.7389 355.533L22.2854 343.49L17.4412 331.143L13.1637 318.492L9.45707 305.536L6.4449 292.36L4.04624 279.01L2.30369 265.353L1.25561 251.523L0.90625 237.519L1.25561 223.514L2.30369 209.685L4.04624 196.03L6.4449 182.679L9.45707 169.416L13.1637 156.503L17.4412 143.806L22.328 131.459L27.7389 119.419L33.759 107.639L40.3457 96.2079L47.4139 85.1711L55.0061 74.5262L63.1181 64.2306L71.6689 54.3697L80.7011 44.9028L90.168 35.8726L100.027 27.3218L110.324 19.2055L120.967 11.6154L132.049 4.5472L143.437 -2.03955L155.175 -8.06179L167.3 -13.5153L179.647 -18.3573L192.301 -22.6328L205.214 -26.3415L218.435 -29.3516L231.868 -31.7077L245.438 -33.4523L259.31 -34.5004L273.314 -34.8477L287.323 -34.5004L301.105 -33.4523L314.76 -31.7077L328.113 -29.3516L341.376 -26.3415L354.289 -22.6328L366.985 -18.3573L379.332 -13.4705L391.372 -8.06179L403.153 -2.03955L414.584 4.5472L425.665 11.6154L436.308 19.2055L446.606 27.3218L456.464 35.8726L465.931 44.9028L474.964 54.3697L483.514 64.2732L491.541 74.5688L499.176 85.2158L506.244 96.2953L512.831 107.726L518.808 119.462L524.262 131.547L529.191 143.894L533.469 156.59L537.09 169.459L540.188 182.635L542.586 196.072L544.329 209.685L545.377 223.559L545.726 237.563V237.301Z" fill="white"/>
</g>
<path d="M236.571 55.6718C241.631 50.6109 249.183 51.7882 255.683 51.701C270.473 51.7882 285.13 51.4829 299.92 51.7883C305.417 51.4829 308.995 58.5943 305.548 62.7826C303.716 66.1419 299.528 65.7917 296.256 65.9226C279.328 65.7044 262.488 65.7045 245.56 66.0099C244.6 76.1315 248.481 89.5269 238.011 96.1147C227.322 100.521 215.891 103.355 205.857 109.288C200.229 113.084 192.466 114.263 186.663 110.249C181.253 106.148 177.066 100.869 172.092 96.332C158.611 109.289 145.217 122.335 132.478 136.034C136.797 140.44 141.421 144.541 145.434 149.209C149.535 154.183 149.972 161.73 146.525 167.314C141.77 175.953 137.799 185.027 135.094 194.407C134.134 197.33 133.264 200.995 129.905 201.954C124.931 204.31 118.995 199.162 120.391 193.97C123.619 181.667 128.81 169.931 134.962 158.893C129.77 151.869 120.394 147.332 118.998 138.17C117.907 132.76 120.307 127.264 124.277 123.599C136.361 111.514 148.447 99.4293 160.619 87.3444C166.028 81.4983 175.928 80.8874 181.862 86.1664C186.399 90.2674 190.37 94.8053 194.907 98.7754C206.338 92.3185 218.642 87.5621 231.032 83.5483C231.774 74.3865 228.326 62.6075 236.528 55.627L236.571 55.6718Z" fill="white"/>
<path d="M236.571 55.6718C241.631 50.6109 249.183 51.7882 255.683 51.701C270.473 51.7882 285.13 51.4829 299.92 51.7883C305.417 51.4829 308.995 58.5943 305.548 62.7826C303.716 66.1419 299.528 65.7917 296.256 65.9226C279.328 65.7044 262.488 65.7045 245.56 66.0099C244.6 76.1315 248.481 89.5269 238.011 96.1147C227.322 100.521 215.891 103.355 205.857 109.288C200.229 113.084 192.466 114.263 186.663 110.249C181.253 106.148 177.066 100.869 172.092 96.332C158.611 109.289 145.217 122.335 132.478 136.034C136.797 140.44 141.421 144.541 145.434 149.209C149.535 154.183 149.972 161.73 146.525 167.314C141.77 175.953 137.799 185.027 135.094 194.407C134.134 197.33 133.264 200.995 129.905 201.954C124.931 204.31 118.995 199.162 120.391 193.97C123.619 181.667 128.81 169.931 134.962 158.893C129.77 151.869 120.394 147.332 118.998 138.17C117.907 132.76 120.307 127.264 124.277 123.599C136.361 111.514 148.447 99.4293 160.619 87.3444C166.028 81.4983 175.928 80.8874 181.862 86.1664C186.399 90.2674 190.37 94.8053 194.907 98.7754C206.338 92.3185 218.642 87.5621 231.032 83.5483C231.774 74.3865 228.326 62.6075 236.528 55.627L236.571 55.6718Z" stroke="white" stroke-width="0.29" stroke-miterlimit="10"/>
<path d="M270.313 128.473C274.501 126.422 280.261 129.65 280.261 134.406C281.003 139.161 281.002 146.054 275.2 147.669C264.511 150.243 262.808 132.443 270.355 128.473H270.313Z" fill="white"/>
<path d="M270.313 128.473C274.501 126.422 280.261 129.65 280.261 134.406C281.003 139.161 281.002 146.054 275.2 147.669C264.511 150.243 262.808 132.443 270.355 128.473H270.313Z" stroke="white" stroke-width="0.29" stroke-miterlimit="10"/>
<path d="M231.166 136.684C238.932 133.019 243.033 142.836 243.688 148.856C243.688 155.313 234.088 158.018 230.859 152.521C227.936 147.983 224.709 139.693 231.166 136.639V136.684Z" fill="white"/>
<path d="M231.166 136.684C238.932 133.019 243.033 142.836 243.688 148.856C243.688 155.313 234.088 158.018 230.859 152.521C227.936 147.983 224.709 139.693 231.166 136.639V136.684Z" stroke="white" stroke-width="0.29" stroke-miterlimit="10"/>
<path d="M308.883 136.76C312.024 135.015 316.43 136.105 318.175 139.333C321.098 143.652 317.521 148.626 315.602 152.596C312.242 158.093 302.861 155.52 302.773 148.932C303.733 144.526 305.043 139.203 308.926 136.76H308.883Z" fill="white"/>
<path d="M308.883 136.76C312.024 135.015 316.43 136.105 318.175 139.333C321.098 143.652 317.521 148.626 315.602 152.596C312.242 158.093 302.861 155.52 302.773 148.932C303.733 144.526 305.043 139.203 308.926 136.76H308.883Z" stroke="white" stroke-width="0.29" stroke-miterlimit="10"/>
<path d="M199.561 158.372C204.753 156.103 208.854 160.729 211.733 164.307C215.529 167.972 213.26 175.3 207.937 176.085C202.876 176.958 199.516 172.204 196.724 168.844C193.931 165.485 195.636 159.899 199.518 158.372H199.561Z" fill="white"/>
<path d="M199.561 158.372C204.753 156.103 208.854 160.729 211.733 164.307C215.529 167.972 213.26 175.3 207.937 176.085C202.876 176.958 199.516 172.204 196.724 168.844C193.931 165.485 195.636 159.899 199.518 158.372H199.561Z" stroke="white" stroke-width="0.29" stroke-miterlimit="10"/>
<path d="M341.025 158.375C346.522 154.71 354.071 162.346 350.406 167.756C347.832 171.203 344.777 175.302 340.283 176.175C335.222 176.917 331.122 170.983 333.172 166.446C335.136 163.305 337.926 160.512 341.067 158.375H341.025Z" fill="white"/>
<path d="M341.025 158.375C346.522 154.71 354.071 162.346 350.406 167.756C347.832 171.203 344.777 175.302 340.283 176.175C335.222 176.917 331.122 170.983 333.172 166.446C335.136 163.305 337.926 160.512 341.067 158.375H341.025Z" stroke="white" stroke-width="0.29" stroke-miterlimit="10"/>
<path d="M174.812 193.615C178.39 187.376 186.243 191.128 190.78 194.051C194.14 196.407 193.268 200.641 192.395 204.087C185.938 209.933 170.275 203.126 174.812 193.615Z" fill="white"/>
<path d="M174.812 193.615C178.39 187.376 186.243 191.128 190.78 194.051C194.14 196.407 193.268 200.641 192.395 204.087C185.938 209.933 170.275 203.126 174.812 193.615Z" stroke="white" stroke-width="0.29" stroke-miterlimit="10"/>
<path d="M168.91 242.615C164.067 239.038 165.989 230.225 172.272 229.876C176.809 229.571 183.266 228.568 185.534 233.847C187.367 236.988 185.097 240.304 183.57 243.009C178.728 243.751 173.316 244.972 168.91 242.572V242.615Z" fill="white"/>
<path d="M168.91 242.615C164.067 239.038 165.989 230.225 172.272 229.876C176.809 229.571 183.266 228.568 185.534 233.847C187.367 236.988 185.097 240.304 183.57 243.009C178.728 243.751 173.316 244.972 168.91 242.572V242.615Z" stroke="white" stroke-width="0.29" stroke-miterlimit="10"/>
<path d="M183.489 267.741C188.026 265.472 193.961 269.137 193.612 274.198C193.394 279.826 187.374 281.657 183.055 283.141C177.863 285.409 172.366 279.259 174.329 274.285C175.638 270.315 180.043 269.092 183.489 267.696V267.741Z" fill="white"/>
<path d="M183.489 267.741C188.026 265.472 193.961 269.137 193.612 274.198C193.394 279.826 187.374 281.657 183.055 283.141C177.863 285.409 172.366 279.259 174.329 274.285C175.638 270.315 180.043 269.092 183.489 267.696V267.741Z" stroke="white" stroke-width="0.29" stroke-miterlimit="10"/>
<path d="M413.304 274.974C416.664 268.735 427.655 272.485 426.128 279.597C423.118 292.118 417.711 304.074 411.472 315.329C415.573 320.39 420.762 324.49 424.863 329.551C429.488 335.484 428.441 344.559 423.031 349.708C410.728 362.098 398.339 374.531 385.905 386.834C380.844 392.331 371.465 393.421 365.531 388.666C360.471 384.696 356.455 379.591 351.612 375.403C340.182 381.772 327.969 386.617 315.492 390.5C314.837 399.574 317.975 410.437 311.082 417.81C305.585 423.961 296.729 422.434 289.268 422.652C274.61 422.346 259.821 423.089 245.249 422.347C237.483 421.038 238.793 408.343 246.646 408.43C264.883 408.212 283.119 408.952 301.355 408.123C302.01 400.14 299.74 391.503 303.405 383.956C307.418 375.972 317.233 375.534 324.562 372.393C332.852 369.688 340.228 364.628 348.43 361.705C360.296 359.218 366.97 371.216 374.649 377.891C388.13 364.933 401.524 351.888 414.263 338.189C409.944 333.783 405.187 329.551 401.217 324.926C396.811 319.516 397.031 311.663 400.783 305.948C406.193 296.35 409.507 285.575 413.39 274.974H413.304Z" fill="white"/>
<path d="M413.304 274.974C416.664 268.735 427.655 272.485 426.128 279.597C423.118 292.118 417.711 304.074 411.472 315.329C415.573 320.39 420.762 324.49 424.863 329.551C429.488 335.484 428.441 344.559 423.031 349.708C410.728 362.098 398.339 374.531 385.905 386.834C380.844 392.331 371.465 393.421 365.531 388.666C360.471 384.696 356.455 379.591 351.612 375.403C340.182 381.772 327.969 386.617 315.492 390.5C314.837 399.574 317.975 410.437 311.082 417.81C305.585 423.961 296.729 422.434 289.268 422.652C274.61 422.346 259.821 423.089 245.249 422.347C237.483 421.038 238.793 408.343 246.646 408.43C264.883 408.212 283.119 408.952 301.355 408.123C302.01 400.14 299.74 391.503 303.405 383.956C307.418 375.972 317.233 375.534 324.562 372.393C332.852 369.688 340.228 364.628 348.43 361.705C360.296 359.218 366.97 371.216 374.649 377.891C388.13 364.933 401.524 351.888 414.263 338.189C409.944 333.783 405.187 329.551 401.217 324.926C396.811 319.516 397.031 311.663 400.783 305.948C406.193 296.35 409.507 285.575 413.39 274.974H413.304Z" stroke="white" stroke-width="0.29" stroke-miterlimit="10"/>
<path d="M204.647 297.759C209.621 296.014 214.986 300.987 213.59 306.048C210.885 312.287 203.554 319.094 196.748 313.815C192.865 307.009 198.888 300.639 204.647 297.759Z" fill="white"/>
<path d="M204.647 297.759C209.621 296.014 214.986 300.987 213.59 306.048C210.885 312.287 203.554 319.094 196.748 313.815C192.865 307.009 198.888 300.639 204.647 297.759Z" stroke="white" stroke-width="0.29" stroke-miterlimit="10"/>
<path d="M337.239 297.964C342.867 295.826 347.057 301.411 350.067 305.294C353.295 309.613 349.107 316.288 343.915 315.852C339.596 315.633 336.889 311.751 334.184 308.741C331.261 305.381 333.008 299.447 337.196 297.964H337.239Z" fill="white"/>
<path d="M337.239 297.964C342.867 295.826 347.057 301.411 350.067 305.294C353.295 309.613 349.107 316.288 343.915 315.852C339.596 315.633 336.889 311.751 334.184 308.741C331.261 305.381 333.008 299.447 337.196 297.964H337.239Z" stroke="white" stroke-width="0.29" stroke-miterlimit="10"/>
<path d="M351.407 99.0363C358.955 93.8446 363.709 83.2867 373.83 82.7632C381.29 81.8907 386.571 87.954 391.196 92.7094C401.754 103.398 412.573 113.955 423.043 124.644C428.453 129.836 429.631 138.867 424.875 144.801C420.861 149.861 415.712 153.963 411.48 158.937C417.937 170.367 422.823 182.582 426.575 195.06C433.163 195.06 439.751 194.538 446.208 195.367C453.886 196.893 459.471 204.528 458.729 212.294C458.642 229.439 458.949 246.715 458.644 263.861C459.167 271.757 446.251 272.805 444.942 265.388C443.982 246.628 445.251 227.824 444.422 209.064C436.002 208.192 426.488 211.114 418.94 206.359C411.262 201.385 411.481 191.352 407.816 183.936C405.242 175.952 399.92 169.145 397.783 161.161C396.256 149.731 407.729 143.58 414.186 136.032C401.359 122.421 388.185 109.157 374.486 96.3308C368.029 101.828 363.274 110.336 354.505 112.387C347.262 114.132 341.24 108.808 334.957 106.147C327.41 102.177 318.991 100.126 311.094 96.9848C305.074 93.4073 308.608 83.0678 315.632 84.1585C328.153 87.1688 340.109 92.7975 351.365 99.0363H351.407Z" fill="white"/>
<path d="M351.407 99.0363C358.955 93.8446 363.709 83.2867 373.83 82.7632C381.29 81.8907 386.571 87.954 391.196 92.7094C401.754 103.398 412.573 113.955 423.043 124.644C428.453 129.836 429.631 138.867 424.875 144.801C420.861 149.861 415.712 153.963 411.48 158.937C417.937 170.367 422.823 182.582 426.575 195.06C433.163 195.06 439.751 194.538 446.208 195.367C453.886 196.893 459.471 204.528 458.729 212.294C458.642 229.439 458.949 246.715 458.644 263.861C459.167 271.757 446.251 272.805 444.942 265.388C443.982 246.628 445.251 227.824 444.422 209.064C436.002 208.192 426.488 211.114 418.94 206.359C411.262 201.385 411.481 191.352 407.816 183.936C405.242 175.952 399.92 169.145 397.783 161.161C396.256 149.731 407.729 143.58 414.186 136.032C401.359 122.421 388.185 109.157 374.486 96.3308C368.029 101.828 363.274 110.336 354.505 112.387C347.262 114.132 341.24 108.808 334.957 106.147C327.41 102.177 318.991 100.126 311.094 96.9848C305.074 93.4073 308.608 83.0678 315.632 84.1585C328.153 87.1688 340.109 92.7975 351.365 99.0363H351.407Z" stroke="white" stroke-width="0.29" stroke-miterlimit="10"/>
<path d="M87.8432 212.28C87.4069 208.703 89.4584 204.601 93.254 203.859C97.355 202.681 101.892 206.129 101.98 210.448C101.98 228.685 101.542 246.789 102.197 265.025C111.926 266.116 124.402 262.233 131.339 271.395C135.745 278.288 136.529 286.927 140.281 294.257C143.074 302.546 150.97 310.005 148.266 319.298C145.692 327.369 137.709 332.038 132.387 338.277C140.283 347.22 149.096 355.117 157.298 363.624C162.271 368.38 166.678 373.745 172.175 377.846C178.196 372.436 182.863 364.585 190.934 361.967C198.918 359.48 205.594 365.414 212.531 368.424C219.86 372.22 227.845 374.139 235.393 377.062C241.326 380.64 237.876 390.891 230.983 390.018C218.375 386.877 206.38 381.6 195.037 375.23C189.977 379.2 185.875 384.39 180.901 388.491C174.88 393.028 165.673 392.287 160.613 386.746C148.44 374.792 136.443 362.576 124.27 350.491C120.824 347.132 118.119 342.726 118.642 337.752C118.86 327.5 129.42 322.527 134.917 315.197C128.679 303.985 123.576 292.118 120.129 279.596C113.978 278.637 107.739 279.51 101.588 278.942C94.04 278.288 87.5812 271.396 87.6685 263.717C87.5812 246.572 87.6707 229.425 87.758 212.148L87.8432 212.28Z" fill="white"/>
<path d="M87.8432 212.28C87.4069 208.703 89.4584 204.601 93.254 203.859C97.355 202.681 101.892 206.129 101.98 210.448C101.98 228.685 101.542 246.789 102.197 265.025C111.926 266.116 124.402 262.233 131.339 271.395C135.745 278.288 136.529 286.927 140.281 294.257C143.074 302.546 150.97 310.005 148.266 319.298C145.692 327.369 137.709 332.038 132.387 338.277C140.283 347.22 149.096 355.117 157.298 363.624C162.271 368.38 166.678 373.745 172.176 377.846C178.196 372.436 182.863 364.585 190.934 361.967C198.918 359.48 205.594 365.414 212.531 368.424C219.86 372.22 227.845 374.139 235.393 377.062C241.326 380.64 237.876 390.891 230.983 390.018C218.375 386.877 206.38 381.6 195.037 375.23C189.977 379.2 185.875 384.39 180.901 388.491C174.88 393.028 165.673 392.287 160.613 386.746C148.44 374.792 136.443 362.576 124.27 350.491C120.824 347.132 118.119 342.726 118.642 337.752C118.86 327.5 129.42 322.527 134.917 315.197C128.679 303.985 123.576 292.118 120.129 279.596C113.978 278.637 107.739 279.51 101.588 278.942C94.04 278.288 87.5812 271.396 87.6685 263.717C87.5812 246.572 87.6707 229.425 87.758 212.148L87.8432 212.28Z" stroke="white" stroke-width="0.29" stroke-miterlimit="10"/>
<path d="M251.031 176.674C252.427 176.151 253.955 176.15 255.351 176.15H295.574C299.893 175.932 303.643 180.47 302.029 184.658C297.186 197.921 291.997 210.966 287.024 224.273C286.151 226.759 284.667 229.334 285.409 232.17C286.15 234.962 288.855 236.924 291.778 237.012C298.453 237.23 305.17 236.924 311.845 237.099C316.47 237.099 319.526 243.12 316.821 246.915C300.417 269.994 281.744 309.826 273.761 321.998C272.364 324.267 271.403 325.14 269.658 326.972C267.171 329.459 265.034 331.728 263.638 331.16C262.678 330.724 262.329 327.713 262.547 321.649C262.634 318.202 262.986 315.933 262.986 315.933C265.036 305.681 266.866 295.428 268.916 285.307C269.222 283.474 269.658 281.424 268.916 279.679C267.826 277.192 265.254 275.491 262.462 275.578C253.387 275.491 244.222 275.578 235.148 275.578C231.047 275.665 227.688 271.39 228.778 267.376C234.799 238.8 240.865 210.312 246.885 181.736C247.322 179.467 248.938 177.634 250.988 176.674H251.031Z" fill="white"/>
<path d="M251.031 176.674C252.427 176.151 253.955 176.15 255.351 176.15H295.574C299.893 175.932 303.643 180.47 302.029 184.658C297.186 197.921 291.997 210.966 287.024 224.273C286.151 226.759 284.667 229.334 285.409 232.17C286.15 234.962 288.855 236.924 291.778 237.012C298.453 237.23 305.17 236.924 311.845 237.099C316.47 237.099 319.526 243.12 316.821 246.915C300.417 269.994 281.744 309.826 273.761 321.998C272.364 324.267 271.403 325.14 269.658 326.972C267.171 329.459 265.034 331.728 263.638 331.16C262.678 330.724 262.329 327.713 262.547 321.649C262.634 318.202 262.986 315.933 262.986 315.933C265.036 305.681 266.866 295.428 268.916 285.307C269.222 283.474 269.658 281.424 268.916 279.679C267.826 277.192 265.254 275.491 262.462 275.578C253.387 275.491 244.222 275.578 235.148 275.578C231.047 275.665 227.688 271.39 228.778 267.376C234.799 238.8 240.865 210.312 246.885 181.736C247.322 179.467 248.938 177.634 250.988 176.674H251.031Z" stroke="white" stroke-width="0.29" stroke-miterlimit="10"/>
</g>
</g>
</g>
</svg>
