<svg width="436" height="230" viewBox="0 0 436 230" fill="none" xmlns="http://www.w3.org/2000/svg">
<g opacity="0.6">
<path opacity="0.0144928" d="M264.416 -72.7382C274.406 -75.0378 284.711 -70.4497 289.686 -61.4875L346.1 40.1377C349.042 45.4377 349.773 51.6849 348.133 57.5209L299.399 231.007C298.11 235.597 295.426 239.672 291.72 242.67L172.354 339.209C165.633 344.645 156.432 345.853 148.535 342.338L58.7638 302.369C50.8673 298.853 45.6087 291.207 45.151 282.575L37.0223 129.271C36.7699 124.511 38.003 119.789 40.5511 115.76L136.867 -36.541C140.107 -41.6643 145.238 -45.3014 151.146 -46.6614L264.416 -72.7382Z" stroke="url(#paint0_linear_3573_8714)" stroke-width="4"/>
<path opacity="0.0289855" d="M244.25 -77.0522C254.083 -79.8482 264.582 -75.8182 270.019 -67.1605L331.337 30.4871C334.566 35.6283 335.631 41.8374 334.3 47.7605L295.186 221.842C294.138 226.507 291.662 230.73 288.102 233.922L174.887 335.46C168.46 341.224 159.347 342.904 151.288 339.81L60.1677 304.832C52.1085 301.739 46.4602 294.393 45.541 285.809L29.3475 134.596C28.8383 129.842 29.8236 125.047 32.1664 120.878L119.583 -34.6617C122.557 -39.954 127.503 -43.8557 133.342 -45.5161L244.25 -77.0522Z" stroke="url(#paint1_linear_3573_8714)" stroke-width="4"/>
<path opacity="0.0434783" d="M224.101 -80.7246C233.754 -84.0069 244.416 -80.5427 250.296 -72.2136L316.258 21.2247C319.765 26.1916 321.162 32.3448 320.144 38.339L290.578 212.489C289.775 217.217 287.514 221.576 284.112 224.956L177.241 331.117C171.124 337.192 162.123 339.337 153.924 336.673L61.7299 306.718C53.5306 304.053 47.5097 297.028 46.1326 288.517L22.0715 139.814C21.3054 135.08 22.0386 130.224 24.1685 125.927L102.612 -32.3416C105.312 -37.7891 110.059 -41.9459 115.815 -43.9032L224.101 -80.7246Z" stroke="url(#paint2_linear_3573_8714)" stroke-width="4"/>
<path opacity="0.057971" d="M204 -83.7638C213.448 -87.5209 224.241 -84.6287 230.545 -76.6511L300.88 12.3627C304.655 17.1403 306.382 23.2199 305.681 29.2685L285.561 202.968C285.008 207.747 282.97 212.232 279.733 215.792L179.378 326.193C173.587 332.564 164.723 335.167 156.406 332.938L63.4112 308.02C55.0949 305.792 48.7195 299.105 46.8896 290.692L15.1796 144.905C14.1571 140.204 14.6345 135.301 16.5446 130.885L85.9705 -29.6028C88.388 -35.1913 92.923 -39.5931 98.5811 -41.8431L204 -83.7638Z" stroke="url(#paint3_linear_3573_8714)" stroke-width="4"/>
<path opacity="0.0724638" d="M183.991 -86.1792C193.211 -90.3983 204.105 -88.0825 210.812 -80.4782L285.238 3.9125C289.272 8.48622 291.324 14.4747 290.943 20.5611L280.141 193.303C279.84 198.12 278.031 202.72 274.971 206.452L181.281 320.705C175.829 327.354 167.124 330.406 158.714 328.618L65.1902 308.739C56.78 306.952 50.0693 300.622 47.7929 292.331L8.67365 149.849C7.39589 145.195 7.61448 140.257 9.29847 135.734L69.6908 -26.4675C71.8187 -32.1826 76.1292 -36.8186 81.6744 -39.3563L183.991 -86.1792Z" stroke="url(#paint4_linear_3573_8714)" stroke-width="4"/>
<path opacity="0.0869565" d="M164.098 -87.98C173.067 -92.6474 184.031 -90.9108 191.119 -83.7004L269.346 -4.11391C273.628 0.241917 276.001 6.12182 275.942 12.2292L274.302 183.519C274.255 188.36 272.682 193.064 269.807 196.959L182.908 314.673C177.809 321.581 169.287 325.073 160.806 323.73L67.0239 308.876C58.5436 307.533 51.5174 301.578 48.8022 293.433L2.53276 154.627L0.642826 155.257L2.53277 154.627C1.00171 150.034 0.959122 145.075 2.41106 140.456L53.782 -22.9575C55.6137 -28.7841 59.6876 -33.6429 65.1055 -36.4625L164.098 -87.98Z" stroke="url(#paint5_linear_3573_8714)" stroke-width="4"/>
<path opacity="0.101449" d="M144.361 -89.1808C153.057 -94.2815 164.061 -93.125 171.506 -86.3278L253.238 -11.7092C257.755 -7.58478 260.444 -1.83056 260.708 4.28091L268.047 173.637C268.257 178.49 266.926 183.284 264.243 187.334L184.241 308.116C179.506 315.264 171.189 319.185 162.662 318.289L68.8876 308.433C60.3607 307.537 53.0401 301.972 49.895 293.996L-3.24728 159.22C-5.02897 154.701 -5.3344 149.734 -4.11981 145.031L38.2692 -19.0984C39.7989 -25.0213 43.625 -30.0908 48.9014 -33.1858L144.361 -89.1808Z" stroke="url(#paint6_linear_3573_8714)" stroke-width="4"/>
<path opacity="0.115942" d="M124.814 -89.7932C133.216 -95.3112 144.227 -94.7341 152.006 -88.3681L236.938 -18.8632C241.68 -14.983 244.677 -9.3713 245.265 -3.27281L261.376 163.684C261.844 168.534 260.759 173.408 258.278 177.603L185.253 301.057C180.894 308.426 172.803 312.764 164.253 312.316L70.751 307.415C62.2012 306.967 54.6078 301.807 51.0431 294.023L-8.67727 163.612C-10.7062 159.181 -11.2755 154.221 -10.303 149.446L23.1706 -14.9123C24.3933 -20.9159 27.9608 -26.1835 33.0819 -29.5468L124.814 -89.7932Z" stroke="url(#paint7_linear_3573_8714)" stroke-width="4"/>
<path opacity="0.130435" d="M105.482 -89.836C113.57 -95.7542 124.559 -95.7542 132.647 -89.836L220.469 -25.5723C225.422 -21.9485 228.72 -16.4959 229.632 -10.4275L254.283 153.68C255.009 158.515 254.176 163.455 251.903 167.785L185.916 293.516C181.943 301.086 174.099 305.827 165.55 305.827H72.5788C64.0298 305.827 56.1861 301.086 52.2132 293.516L-13.7746 167.785C-16.0468 163.455 -16.8802 158.515 -16.1539 153.68L8.49687 -10.4275C9.40842 -16.496 12.7072 -21.9485 17.6595 -25.5723L105.482 -89.836Z" stroke="url(#paint8_linear_3573_8714)" stroke-width="4"/>
<path opacity="0.144928" d="M86.3942 -89.3253C94.1489 -95.6256 105.084 -96.1987 113.455 -90.7435L203.855 -31.8304C209.004 -28.4745 212.596 -23.1972 213.829 -17.1758L246.767 143.65C247.751 148.456 247.173 153.45 245.116 157.904L186.203 285.518C182.625 293.269 175.049 298.4 166.525 298.847L74.3383 303.678C65.8138 304.125 57.743 299.813 53.3745 292.48L-18.5553 171.723C-21.0659 167.508 -22.163 162.601 -21.6865 157.719L-5.74033 -5.66866C-5.1433 -11.786 -2.12261 -17.4099 2.64781 -21.2856L86.3942 -89.3253Z" stroke="url(#paint9_linear_3573_8714)" stroke-width="4"/>
<path opacity="0.15942" d="M67.578 -88.2805C74.9817 -94.944 85.8332 -96.0845 94.4604 -91.1059L187.12 -37.6344C192.452 -34.5573 196.328 -29.471 197.881 -23.5136L238.829 133.617C240.07 138.38 239.751 143.416 237.917 147.985L186.094 277.089C182.919 284.999 175.63 290.505 167.153 291.395L76.0001 300.976C67.5235 301.867 59.2492 297.997 54.4991 290.92L-23.0339 175.412C-25.7774 171.324 -27.1372 166.465 -26.9133 161.547L-19.5289 -0.662935C-19.2489 -6.81293 -16.5151 -12.594 -11.9392 -16.7124L67.578 -88.2805Z" stroke="url(#paint10_linear_3573_8714)" stroke-width="4"/>
<path opacity="0.173913" d="M49.0633 -86.7223C56.0989 -93.7292 66.8368 -95.4299 75.6934 -90.9401L170.293 -42.9827C175.793 -40.1944 179.943 -35.3143 181.812 -29.4378L230.475 123.604C231.972 128.311 231.914 133.375 230.308 138.047L185.57 268.254C182.805 276.303 175.821 282.166 167.416 283.497L77.5374 297.733C69.1322 299.064 60.6788 295.645 55.5618 288.846L-27.2234 178.836C-30.1936 174.889 -31.8141 170.091 -31.8452 165.151L-32.8559 4.56223C-32.8947 -1.60412 -30.4558 -7.52778 -26.0865 -11.8792L49.0633 -86.7223Z" stroke="url(#paint11_linear_3573_8714)" stroke-width="4"/>
<path opacity="0.188406" d="M30.8727 -84.6731C37.5244 -92.0027 48.1195 -94.2548 57.1774 -90.2643L153.396 -47.875C159.049 -45.3848 163.462 -40.7258 165.643 -34.9468L221.706 113.633C223.456 118.271 223.661 123.35 222.29 128.114L184.609 259.04C182.259 267.205 175.599 273.41 167.288 275.176L78.9194 293.96C70.6085 295.726 62.0006 292.767 56.5328 286.264L-31.1426 181.983C-34.3327 178.189 -36.2116 173.465 -36.4992 168.517L-45.7157 9.97879C-46.0741 3.81252 -43.9374 -2.2388 -39.7864 -6.81277L30.8727 -84.6731Z" stroke="url(#paint12_linear_3573_8714)" stroke-width="4"/>
<path opacity="0.202899" d="M13.0374 -82.1535C19.2906 -89.7846 29.7142 -92.5775 38.9452 -89.0954L136.463 -52.3101C142.251 -50.1264 146.916 -45.7026 149.404 -40.0376L212.535 103.73C214.535 108.285 215.004 113.366 213.872 118.21L183.202 249.477C181.272 257.738 174.952 264.265 166.758 266.461L80.1259 289.674C71.9321 291.869 63.195 289.376 57.3933 283.188L-34.8012 184.842C-38.2036 181.213 -40.3376 176.578 -40.8829 171.633L-58.0938 15.5612C-58.7719 9.41144 -56.9438 3.2478 -53.0224 -1.53775L13.0374 -82.1535Z" stroke="url(#paint13_linear_3573_8714)" stroke-width="4"/>
<path opacity="0.217391" d="M-4.43363 -79.1907C1.40758 -87.1012 11.6316 -90.4232 21.0069 -87.4568L119.502 -56.2929C125.411 -54.4234 130.316 -50.2484 133.104 -44.7138L202.953 93.9126C205.2 98.3715 205.935 103.44 205.046 108.354L181.32 239.591C179.813 247.925 173.849 254.757 165.794 257.374L81.1171 284.887C73.0627 287.504 64.2217 285.483 58.1043 279.626L-38.2301 187.399C-41.8368 183.946 -44.2218 179.414 -45.0251 174.486L-69.9986 21.2784C-70.9956 15.1616 -69.482 8.90126 -65.8005 3.91567L-4.43363 -79.1907Z" stroke="url(#paint14_linear_3573_8714)" stroke-width="4"/>
<path opacity="0.231884" d="M-21.5075 -75.8095C-16.0905 -83.9768 -6.09321 -87.8144 3.3974 -85.3696L102.553 -59.8267C108.565 -58.278 113.695 -54.3648 116.778 -48.9764L192.982 84.2036C195.471 88.5533 196.471 93.5969 195.83 98.5672L178.961 229.412C177.879 237.797 172.285 244.913 164.392 247.943L81.88 279.616C73.9868 282.646 65.0676 281.101 58.6534 275.593L-41.4351 189.645C-45.2371 186.38 -47.8687 181.963 -48.9296 177.065L-81.4142 27.1026C-82.7285 21.0352 -81.5342 14.6941 -78.1028 9.52052L-21.5075 -75.8095Z" stroke="url(#paint15_linear_3573_8714)" stroke-width="4"/>
<path opacity="0.246377" d="M-38.1659 -72.0344C-33.1842 -80.4354 -23.4399 -84.7738 -13.8633 -82.8546L85.6365 -62.9144C91.7341 -61.6925 97.077 -58.0533 100.447 -52.8268L182.628 74.6254C185.354 78.853 186.619 83.8577 186.229 88.8727L176.111 218.97C175.457 227.385 170.246 234.766 162.535 238.199L82.3894 273.882C74.6789 277.315 65.7074 276.249 59.0161 271.104L-44.4353 191.571C-48.4233 188.505 -51.2961 184.216 -52.6138 179.362L-92.3395 33.0073C-93.9686 27.0056 -93.0978 20.6001 -89.9259 15.251L-38.1659 -72.0344Z" stroke="url(#paint16_linear_3573_8714)" stroke-width="4"/>
<path opacity="0.26087" d="M-54.3978 -67.8934C-49.861 -76.5045 -40.3951 -81.3276 -30.7619 -79.9365L68.7706 -65.5633C74.9364 -64.6729 80.4772 -61.3195 84.1258 -56.27L171.895 65.1975C174.852 69.2903 176.381 74.2425 176.244 79.29L172.755 208.297C172.527 216.719 167.712 224.343 160.205 228.168L82.6163 267.701C75.1091 271.526 66.1113 270.941 59.1635 266.174L-47.2559 193.169C-51.4197 190.313 -54.5278 186.165 -56.1007 181.367L-102.781 38.9635C-104.721 33.0437 -104.177 26.59 -101.273 21.0784L-54.3978 -67.8934Z" stroke="url(#paint17_linear_3573_8714)" stroke-width="4"/>
<path opacity="0.275362" d="M-70.1832 -63.4144C-66.0998 -72.2116 -56.9368 -77.5019 -47.2765 -76.6396L51.9819 -67.7806C58.1979 -67.2258 63.9216 -64.1689 67.8397 -59.3113L160.798 55.9396C163.98 59.8851 165.77 64.7713 165.889 69.8388L168.888 197.421C169.085 205.829 164.678 213.675 157.394 217.88L82.543 261.095C75.2593 265.3 66.2611 265.195 59.0782 260.82L-49.912 194.432C-54.241 191.795 -57.5777 187.802 -59.4034 183.073L-112.735 44.9433C-114.982 39.1214 -114.768 32.636 -112.14 26.9754L-70.1832 -63.4144Z" stroke="url(#paint18_linear_3573_8714)" stroke-width="4"/>
<path opacity="0.289855" d="M-85.502 -58.6259C-81.879 -67.5848 -73.0422 -73.3235 -63.3842 -72.9894L35.2989 -69.5749C41.547 -69.3587 47.4379 -66.6084 51.6154 -61.957L149.354 46.8706C152.755 50.6566 154.803 55.4634 155.18 60.5383L164.509 186.374C165.13 194.747 161.139 202.792 154.099 207.364L82.1557 254.085C75.1149 258.657 66.1421 259.03 58.7462 255.058L-52.4163 195.353C-56.8994 192.945 -60.4574 189.118 -62.5331 184.472L-122.198 50.9187C-124.748 45.2106 -124.865 38.7103 -122.521 32.9143L-85.502 -58.6259Z" stroke="url(#paint19_linear_3573_8714)" stroke-width="4"/>
<path opacity="0.304348" d="M-100.356 -53.5571C-97.1997 -62.6533 -88.7113 -68.8205 -79.0848 -69.0119L18.7284 -70.9563C24.9903 -71.0807 31.0322 -68.6461 35.4584 -64.2148L137.563 38.0083C141.173 41.6231 143.478 46.3372 144.112 51.4068L159.599 175.188C160.639 183.502 157.075 191.725 150.296 196.65L81.4207 246.691C74.6415 251.617 65.7199 252.465 58.1336 248.907L-54.8031 195.927C-59.4286 193.757 -63.1999 190.109 -65.5221 185.558L-131.19 56.8623C-134.037 51.2834 -134.485 44.7849 -132.432 38.8679L-100.356 -53.5571Z" stroke="url(#paint20_linear_3573_8714)" stroke-width="4"/>
<path opacity="0.318841" d="M-114.725 -48.2373C-112.039 -57.446 -103.92 -64.0207 -94.3541 -64.7334L2.30223 -71.935C8.55953 -72.4013 14.7356 -70.2908 19.3991 -66.0928L125.448 29.3704C129.26 32.8024 131.816 37.4106 132.709 42.4623L154.166 163.892C155.622 172.128 152.492 180.505 145.992 185.768L80.3318 238.939C73.832 244.202 64.9872 245.522 57.2336 242.386L-57.0809 196.151C-61.8365 194.228 -65.8126 190.769 -68.377 186.327L-139.705 62.7475C-142.842 57.3131 -143.622 50.8331 -141.865 44.8095L-114.725 -48.2373Z" stroke="url(#paint21_linear_3573_8714)" stroke-width="4"/>
<path opacity="0.333333" d="M-128.601 -42.6964C-126.389 -51.9927 -118.659 -58.9527 -109.182 -60.1811L-13.9617 -72.5233C-7.72766 -73.3313 -1.43452 -71.5525 3.4541 -67.6006L113.022 20.9731C117.027 24.2114 119.83 28.7007 120.981 33.7215L148.207 152.517C150.072 160.654 147.382 169.162 141.179 174.748L78.8708 230.85C72.6673 236.436 63.9245 238.222 56.0274 235.517L-59.2716 196.022C-64.1446 194.352 -68.3163 191.096 -71.1181 186.773L-147.754 68.5475C-151.173 63.2726 -152.284 56.828 -150.829 50.7126L-128.601 -42.6964Z" stroke="url(#paint22_linear_3573_8714)" stroke-width="4"/>
<path opacity="0.347826" d="M-141.978 -36.965C-140.241 -46.3242 -132.919 -53.6465 -123.56 -55.3831L-30.0443 -72.7346C-23.8521 -73.8835 -17.4596 -72.443 -12.3586 -68.7492L100.3 12.8314C104.489 15.8653 107.534 20.2227 108.942 25.2001L141.723 141.095C143.99 149.111 141.746 157.727 135.855 163.618L77.0233 222.449C71.1324 228.34 62.5164 230.585 54.4998 228.318L-61.3946 195.537C-66.3719 194.129 -70.7294 191.084 -73.7632 186.895L-155.344 74.2361C-159.038 69.1351 -160.478 62.7426 -159.329 56.5504L-141.978 -36.965Z" stroke="url(#paint23_linear_3573_8714)" stroke-width="4"/>
<path opacity="0.362319" d="M-154.848 -31.0712C-153.587 -40.4683 -146.689 -48.129 -137.475 -50.3648L-45.9251 -72.5803C-39.7932 -74.0682 -33.3193 -72.9717 -28.0195 -69.5474L87.301 4.96223C91.6642 7.78133 94.9446 11.9944 96.6081 16.9156L134.717 129.656C137.379 137.533 135.584 146.233 130.02 152.411L74.7787 213.764C69.2154 219.942 60.7506 222.637 52.6391 220.813L-63.4673 194.697C-68.5354 193.557 -73.0683 190.735 -76.328 186.691L-162.484 79.7903C-166.443 74.8774 -168.211 68.5536 -167.372 62.2998L-154.848 -31.0712Z" stroke="url(#paint24_linear_3573_8714)" stroke-width="4"/>
<path opacity="0.376812" d="M-167.21 -25.0473C-166.425 -34.4578 -159.968 -42.432 -150.926 -45.1566L-61.59 -72.0775C-55.537 -73.9016 -49.0001 -73.1537 -43.5155 -70.0097L74.0385 -2.6234C78.5648 -0.0287792 82.0744 4.02759 83.9914 8.87985L127.191 118.23C130.239 125.946 128.895 134.707 123.674 141.155L72.1222 204.816C66.9007 211.264 58.6111 214.4 50.4292 213.022L-65.5126 193.502C-70.6574 192.636 -75.3548 190.046 -78.8338 186.158L-169.188 85.1834C-173.404 80.4723 -175.495 74.2337 -174.969 67.9338L-167.21 -25.0473Z" stroke="url(#paint25_linear_3573_8714)" stroke-width="4"/>
<path opacity="0.391304" d="M-179.066 -18.923C-178.754 -28.3222 -172.751 -36.5845 -163.908 -39.7859L-77.0241 -71.2411C-71.0684 -73.3973 -64.487 -73.002 -58.8323 -70.1483L60.5286 -9.91227C65.2068 -7.55139 68.9386 -3.66379 71.1062 1.10705L119.149 106.845C122.574 114.383 121.683 123.18 116.816 129.878L69.0428 195.632C64.1763 202.331 56.0851 205.896 47.8578 204.968L-67.5509 191.952C-72.7581 191.365 -77.6086 189.017 -81.2996 185.297L-175.472 90.3925C-179.933 85.8963 -182.343 79.7593 -182.133 73.4287L-179.066 -18.923Z" stroke="url(#paint26_linear_3573_8714)" stroke-width="4"/>
<path opacity="0.405797" d="M-190.413 -12.7278C-190.571 -22.0915 -185.035 -30.6157 -176.417 -34.2804L-92.2112 -70.087C-86.3709 -72.5705 -79.764 -72.5304 -73.9543 -69.9762L46.7902 -16.8926C51.6087 -14.7742 55.5549 -11.067 57.9699 -6.3901L110.599 95.5315C114.389 102.872 113.951 111.682 109.452 118.611L65.5331 186.24C61.0335 193.169 53.1634 197.152 44.9156 196.675L-69.6005 190.051C-74.8554 189.747 -79.8471 187.65 -83.7422 184.11L-181.348 95.3953C-186.044 91.1267 -188.768 85.1073 -188.875 78.7618L-190.413 -12.7278Z" stroke="url(#paint27_linear_3573_8714)" stroke-width="4"/>
<path opacity="0.42029" d="M-201.252 -6.49108C-201.874 -15.7954 -196.817 -24.5546 -188.448 -28.6678L-107.134 -68.6319C-101.427 -71.4367 -94.814 -71.7537 -88.865 -69.5076L32.8446 -23.5537C37.7915 -21.6859 41.9436 -18.1707 44.6021 -13.6L101.553 84.3177C105.697 91.4434 105.711 100.242 101.59 107.381L61.5891 176.665C57.4674 183.804 49.8403 188.191 41.597 188.164L-71.6776 187.802C-76.9652 187.785 -82.0856 185.947 -86.1765 182.597L-186.829 100.17C-191.748 96.1414 -194.78 90.2555 -195.205 83.9108L-201.252 -6.49108Z" stroke="url(#paint28_linear_3573_8714)" stroke-width="4"/>
<path opacity="0.434783" d="M-211.58 -0.242333C-212.662 -9.46366 -208.093 -18.4308 -199.997 -22.9762L-121.776 -66.8935C-116.22 -70.0128 -109.619 -70.6877 -103.547 -68.7572L18.7156 -29.8866C23.7781 -28.2771 28.1274 -24.9648 31.0248 -20.5123L92.0262 73.2306C96.5121 80.1242 96.9755 88.8887 93.2415 96.217L57.2101 166.933C53.4762 174.261 46.1132 179.038 37.8994 179.46L-73.7959 185.21C-79.1011 185.483 -84.3372 183.911 -88.615 180.762L-191.926 104.697C-197.057 100.919 -200.391 95.1822 -201.133 88.854L-211.58 -0.242333Z" stroke="url(#paint29_linear_3573_8714)" stroke-width="4"/>
<path opacity="0.449275" d="M-221.405 5.98916C-222.939 -3.1261 -218.866 -12.2735 -211.066 -17.2335L-136.125 -64.8906C-130.737 -68.3165 -124.168 -69.349 -117.99 -67.741L4.4213 -35.8836C9.58649 -34.5394 14.1234 -31.4406 17.2546 -27.1183L82.0292 62.2963C86.8433 68.9416 87.7523 77.6482 84.4147 85.1446L52.3915 157.07C49.0539 164.566 41.9754 169.717 33.8158 170.586L-75.975 182.279C-81.2822 182.844 -86.6208 181.546 -91.076 178.607L-196.66 108.954C-201.989 105.439 -205.617 99.8663 -206.676 93.5703L-221.405 5.98916Z" stroke="url(#paint30_linear_3573_8714)" stroke-width="4"/>
<path opacity="0.463768" d="M-230.741 12.1769C-232.718 3.19029 -229.148 -6.10945 -221.666 -11.4654L-150.178 -62.6398C-144.976 -66.3636 -138.458 -67.7525 -132.19 -66.4731L-10.026 -41.5361C-4.7715 -40.4635 -0.0569548 -37.5884 3.30237 -33.408L71.5682 51.5423C76.6961 57.9235 78.0458 66.5495 75.1121 74.1921L47.1237 147.104C44.1899 154.747 37.4151 160.254 29.3344 161.565L-78.2399 179.017C-83.5335 179.876 -88.9609 178.857 -93.5835 176.139L-201.055 112.927C-206.569 109.684 -210.484 104.29 -211.858 98.0421L-230.741 12.1769Z" stroke="url(#paint31_linear_3573_8714)" stroke-width="4"/>
<path opacity="0.478261" d="M-239.603 18.2907C-242.013 9.4547 -238.951 0.0307915 -231.807 -5.70103L-163.931 -60.1631C-158.931 -64.175 -152.484 -65.9181 -146.143 -64.9722L-24.6123 -46.8407C-19.2822 -46.0455 -14.4005 -43.4039 -10.8193 -39.3769L60.6518 40.9905C66.0787 47.0929 67.8628 55.6155 65.3392 63.3823L41.4 137.059C38.8764 144.826 32.4237 150.672 24.4463 152.42L-80.6137 175.429C-85.8781 176.581 -91.3801 175.849 -96.1597 173.36L-205.138 116.594C-210.823 113.633 -215.015 108.433 -216.702 102.248L-239.603 18.2907Z" stroke="url(#paint32_linear_3573_8714)" stroke-width="4"/>
<path opacity="0.492754" d="M-247.98 24.3062C-250.813 15.6421 -248.262 6.1223 -241.477 0.035654L-177.357 -57.4774C-172.575 -61.7667 -166.217 -63.8607 -159.822 -63.2525L-39.2981 -51.7906C-33.9065 -51.2778 -28.8688 -48.8789 -25.0723 -45.0163L49.3152 30.6668C55.0256 36.4766 57.2367 44.8735 55.1283 52.7421L35.2407 126.964C33.1323 134.832 27.019 140.999 19.1688 143.175L-83.0943 171.525C-88.3134 172.971 -93.8757 172.53 -98.8013 170.278L-208.909 119.943C-214.751 117.272 -219.211 112.279 -221.207 106.174L-247.98 24.3062Z" stroke="url(#paint33_linear_3573_8714)" stroke-width="4"/>
<path opacity="0.507246" d="M-255.888 30.1962C-259.132 21.7247 -257.094 12.1372 -250.684 5.71786L-190.451 -54.6035C-185.903 -59.1587 -179.653 -61.5993 -173.222 -61.3321L-54.0661 -56.3833C-48.6274 -56.1575 -43.4451 -54.0099 -39.4408 -50.3227L37.573 20.5924C43.5504 26.0965 46.1801 34.3461 44.4907 42.294L28.6453 116.841C26.9559 124.789 21.1982 131.255 13.4989 133.852L-85.7006 167.312C-90.8584 169.052 -96.4662 168.906 -101.527 166.9L-212.393 122.956C-218.378 120.584 -223.094 115.813 -225.397 109.802L-255.888 30.1962Z" stroke="url(#paint34_linear_3573_8714)" stroke-width="4"/>
<path opacity="0.521739" d="M-263.356 35.9354C-266.999 27.6763 -265.474 18.0495 -259.457 11.3205L-203.225 -51.5616C-198.925 -56.3703 -192.803 -59.1521 -186.352 -59.2284L-68.9132 -60.6169C-63.4422 -60.6815 -58.1272 -58.7937 -53.9228 -55.2923L25.4262 10.7884C31.6538 15.9746 34.6923 24.0557 33.4245 32.0602L21.6002 106.716C20.3324 114.721 14.9454 121.467 7.41996 124.475L-88.4655 162.802C-93.5461 164.832 -99.1843 164.985 -104.368 163.233L-215.63 125.622C-221.741 123.556 -226.704 119.019 -229.307 113.116L-263.356 35.9354Z" stroke="url(#paint35_linear_3573_8714)" stroke-width="4"/>
<path opacity="0.536232" d="M-270.376 41.5006C-274.404 33.4731 -273.391 23.835 -267.782 16.8204L-215.65 -48.3708C-211.612 -53.4198 -205.636 -56.5365 -199.185 -56.9575L-83.7961 -64.489C-78.3075 -64.8473 -72.8723 -63.2268 -68.4761 -59.9214L12.9172 1.27542C19.3776 6.13275 22.8141 14.0247 21.9693 22.0631L14.1335 96.6151C13.2887 104.653 8.28637 111.658 0.957278 115.066L-91.3809 158.003C-96.3683 160.322 -102.022 160.778 -107.316 159.286L-218.617 127.928C-224.84 126.175 -230.038 121.884 -232.937 116.106L-270.376 41.5006Z" stroke="url(#paint36_linear_3573_8714)" stroke-width="4"/>
<path opacity="0.550725" d="M-276.986 46.8688C-281.384 39.091 -280.88 29.4695 -275.692 22.194L-227.745 -45.0513C-223.984 -50.3265 -218.172 -53.7707 -211.739 -54.5371L-98.7172 -68C-93.2263 -68.6541 -87.6837 -67.308 -83.1044 -64.2084L0.0437796 -7.92792C6.71899 -3.40967 10.5418 4.27328 10.1199 12.3228L6.22926 86.5615C5.8074 94.611 1.20244 101.852 -5.90848 105.648L-94.4841 152.929C-99.3623 155.533 -105.015 156.292 -110.408 155.068L-221.403 129.865C-227.721 128.43 -233.141 124.397 -236.33 118.758L-276.986 46.8688Z" stroke="url(#paint37_linear_3573_8714)" stroke-width="4"/>
</g>
<defs>
<linearGradient id="paint0_linear_3573_8714" x1="282.303" y1="-78.9082" x2="86.4062" y2="361.083" gradientUnits="userSpaceOnUse">
<stop stop-color="#238DC1"/>
<stop offset="1" stop-color="#195A7D"/>
</linearGradient>
<linearGradient id="paint1_linear_3573_8714" x1="261.74" y1="-84.1047" x2="90.6627" y2="361.567" gradientUnits="userSpaceOnUse">
<stop stop-color="#238DC1"/>
<stop offset="1" stop-color="#195A7D"/>
</linearGradient>
<linearGradient id="paint2_linear_3573_8714" x1="241.151" y1="-88.6347" x2="94.9468" y2="361.337" gradientUnits="userSpaceOnUse">
<stop stop-color="#238DC1"/>
<stop offset="1" stop-color="#195A7D"/>
</linearGradient>
<linearGradient id="paint3_linear_3573_8714" x1="220.567" y1="-92.5044" x2="99.2131" y2="360.396" gradientUnits="userSpaceOnUse">
<stop stop-color="#238DC1"/>
<stop offset="1" stop-color="#195A7D"/>
</linearGradient>
<linearGradient id="paint4_linear_3573_8714" x1="200.035" y1="-95.7211" x2="103.434" y2="358.752" gradientUnits="userSpaceOnUse">
<stop stop-color="#238DC1"/>
<stop offset="1" stop-color="#195A7D"/>
</linearGradient>
<linearGradient id="paint5_linear_3573_8714" x1="179.581" y1="-98.2921" x2="107.562" y2="356.415" gradientUnits="userSpaceOnUse">
<stop stop-color="#238DC1"/>
<stop offset="1" stop-color="#195A7D"/>
</linearGradient>
<linearGradient id="paint6_linear_3573_8714" x1="159.245" y1="-100.23" x2="111.567" y2="353.396" gradientUnits="userSpaceOnUse">
<stop stop-color="#238DC1"/>
<stop offset="1" stop-color="#195A7D"/>
</linearGradient>
<linearGradient id="paint7_linear_3573_8714" x1="139.063" y1="-101.545" x2="115.414" y2="349.71" gradientUnits="userSpaceOnUse">
<stop stop-color="#238DC1"/>
<stop offset="1" stop-color="#195A7D"/>
</linearGradient>
<linearGradient id="paint8_linear_3573_8714" x1="119.064" y1="-102.253" x2="119.064" y2="345.37" gradientUnits="userSpaceOnUse">
<stop stop-color="#238DC1"/>
<stop offset="1" stop-color="#195A7D"/>
</linearGradient>
<linearGradient id="paint9_linear_3573_8714" x1="99.2781" y1="-102.37" x2="122.482" y2="340.394" gradientUnits="userSpaceOnUse">
<stop stop-color="#238DC1"/>
<stop offset="1" stop-color="#195A7D"/>
</linearGradient>
<linearGradient id="paint10_linear_3573_8714" x1="79.7349" y1="-101.913" x2="125.636" y2="334.802" gradientUnits="userSpaceOnUse">
<stop stop-color="#238DC1"/>
<stop offset="1" stop-color="#195A7D"/>
</linearGradient>
<linearGradient id="paint11_linear_3573_8714" x1="60.4666" y1="-100.902" x2="128.495" y2="328.614" gradientUnits="userSpaceOnUse">
<stop stop-color="#238DC1"/>
<stop offset="1" stop-color="#195A7D"/>
</linearGradient>
<linearGradient id="paint12_linear_3573_8714" x1="41.498" y1="-99.3573" x2="131.029" y2="321.851" gradientUnits="userSpaceOnUse">
<stop stop-color="#238DC1"/>
<stop offset="1" stop-color="#195A7D"/>
</linearGradient>
<linearGradient id="paint13_linear_3573_8714" x1="22.863" y1="-97.2995" x2="133.215" y2="314.54" gradientUnits="userSpaceOnUse">
<stop stop-color="#238DC1"/>
<stop offset="1" stop-color="#195A7D"/>
</linearGradient>
<linearGradient id="paint14_linear_3573_8714" x1="4.57262" y1="-94.7543" x2="135.014" y2="306.703" gradientUnits="userSpaceOnUse">
<stop stop-color="#238DC1"/>
<stop offset="1" stop-color="#195A7D"/>
</linearGradient>
<linearGradient id="paint15_linear_3573_8714" x1="-13.3376" y1="-91.7459" x2="136.412" y2="298.366" gradientUnits="userSpaceOnUse">
<stop stop-color="#238DC1"/>
<stop offset="1" stop-color="#195A7D"/>
</linearGradient>
<linearGradient id="paint16_linear_3573_8714" x1="-30.8469" y1="-88.298" x2="137.386" y2="289.558" gradientUnits="userSpaceOnUse">
<stop stop-color="#238DC1"/>
<stop offset="1" stop-color="#195A7D"/>
</linearGradient>
<linearGradient id="paint17_linear_3573_8714" x1="-47.9417" y1="-84.4381" x2="137.906" y2="280.308" gradientUnits="userSpaceOnUse">
<stop stop-color="#238DC1"/>
<stop offset="1" stop-color="#195A7D"/>
</linearGradient>
<linearGradient id="paint18_linear_3573_8714" x1="-64.5996" y1="-80.1937" x2="137.957" y2="270.645" gradientUnits="userSpaceOnUse">
<stop stop-color="#238DC1"/>
<stop offset="1" stop-color="#195A7D"/>
</linearGradient>
<linearGradient id="paint19_linear_3573_8714" x1="-80.7978" y1="-75.5931" x2="137.527" y2="260.598" gradientUnits="userSpaceOnUse">
<stop stop-color="#238DC1"/>
<stop offset="1" stop-color="#195A7D"/>
</linearGradient>
<linearGradient id="paint20_linear_3573_8714" x1="-96.5363" y1="-70.6654" x2="136.586" y2="250.2" gradientUnits="userSpaceOnUse">
<stop stop-color="#238DC1"/>
<stop offset="1" stop-color="#195A7D"/>
</linearGradient>
<linearGradient id="paint21_linear_3573_8714" x1="-111.791" y1="-65.4398" x2="135.13" y2="239.482" gradientUnits="userSpaceOnUse">
<stop stop-color="#238DC1"/>
<stop offset="1" stop-color="#195A7D"/>
</linearGradient>
<linearGradient id="paint22_linear_3573_8714" x1="-126.552" y1="-59.9464" x2="133.144" y2="228.475" gradientUnits="userSpaceOnUse">
<stop stop-color="#238DC1"/>
<stop offset="1" stop-color="#195A7D"/>
</linearGradient>
<linearGradient id="paint23_linear_3573_8714" x1="-140.811" y1="-54.2163" x2="130.618" y2="217.213" gradientUnits="userSpaceOnUse">
<stop stop-color="#238DC1"/>
<stop offset="1" stop-color="#195A7D"/>
</linearGradient>
<linearGradient id="paint24_linear_3573_8714" x1="-154.557" y1="-48.2778" x2="127.546" y2="205.729" gradientUnits="userSpaceOnUse">
<stop stop-color="#238DC1"/>
<stop offset="1" stop-color="#195A7D"/>
</linearGradient>
<linearGradient id="paint25_linear_3573_8714" x1="-167.789" y1="-42.1639" x2="123.918" y2="194.056" gradientUnits="userSpaceOnUse">
<stop stop-color="#238DC1"/>
<stop offset="1" stop-color="#195A7D"/>
</linearGradient>
<linearGradient id="paint26_linear_3573_8714" x1="-180.503" y1="-35.905" x2="119.728" y2="182.226" gradientUnits="userSpaceOnUse">
<stop stop-color="#238DC1"/>
<stop offset="1" stop-color="#195A7D"/>
</linearGradient>
<linearGradient id="paint27_linear_3573_8714" x1="-192.696" y1="-29.5313" x2="114.974" y2="170.272" gradientUnits="userSpaceOnUse">
<stop stop-color="#238DC1"/>
<stop offset="1" stop-color="#195A7D"/>
</linearGradient>
<linearGradient id="paint28_linear_3573_8714" x1="-204.365" y1="-23.0732" x2="109.659" y2="158.229" gradientUnits="userSpaceOnUse">
<stop stop-color="#238DC1"/>
<stop offset="1" stop-color="#195A7D"/>
</linearGradient>
<linearGradient id="paint29_linear_3573_8714" x1="-215.508" y1="-16.5613" x2="103.787" y2="146.128" gradientUnits="userSpaceOnUse">
<stop stop-color="#238DC1"/>
<stop offset="1" stop-color="#195A7D"/>
</linearGradient>
<linearGradient id="paint30_linear_3573_8714" x1="-226.127" y1="-10.0261" x2="97.3613" y2="134" gradientUnits="userSpaceOnUse">
<stop stop-color="#238DC1"/>
<stop offset="1" stop-color="#195A7D"/>
</linearGradient>
<linearGradient id="paint31_linear_3573_8714" x1="-236.236" y1="-3.49522" x2="90.3783" y2="121.88" gradientUnits="userSpaceOnUse">
<stop stop-color="#238DC1"/>
<stop offset="1" stop-color="#195A7D"/>
</linearGradient>
<linearGradient id="paint32_linear_3573_8714" x1="-245.847" y1="2.99961" x2="82.8387" y2="109.796" gradientUnits="userSpaceOnUse">
<stop stop-color="#238DC1"/>
<stop offset="1" stop-color="#195A7D"/>
</linearGradient>
<linearGradient id="paint33_linear_3573_8714" x1="-254.948" y1="9.43252" x2="74.77" y2="97.7802" gradientUnits="userSpaceOnUse">
<stop stop-color="#238DC1"/>
<stop offset="1" stop-color="#195A7D"/>
</linearGradient>
<linearGradient id="paint34_linear_3573_8714" x1="-263.553" y1="15.7747" x2="66.179" y2="85.8614" gradientUnits="userSpaceOnUse">
<stop stop-color="#238DC1"/>
<stop offset="1" stop-color="#195A7D"/>
</linearGradient>
<linearGradient id="paint35_linear_3573_8714" x1="-271.69" y1="21.9993" x2="57.06" y2="74.0681" gradientUnits="userSpaceOnUse">
<stop stop-color="#238DC1"/>
<stop offset="1" stop-color="#195A7D"/>
</linearGradient>
<linearGradient id="paint36_linear_3573_8714" x1="-279.347" y1="28.0812" x2="47.449" y2="62.4289" gradientUnits="userSpaceOnUse">
<stop stop-color="#238DC1"/>
<stop offset="1" stop-color="#195A7D"/>
</linearGradient>
<linearGradient id="paint37_linear_3573_8714" x1="-286.564" y1="33.9956" x2="37.3376" y2="50.9705" gradientUnits="userSpaceOnUse">
<stop stop-color="#238DC1"/>
<stop offset="1" stop-color="#195A7D"/>
</linearGradient>
</defs>
</svg>
