<svg width="115" height="32" viewBox="0 0 115 32" fill="none" xmlns="http://www.w3.org/2000/svg">
<path d="M2.09531 5.58651L2.54156 5.07318L3.06219 5.58651H3.21094L3.80594 4.92651L3.13656 4.33984H3.06219L2.54156 4.85318L2.02094 4.33984H1.94656L1.35156 4.92651L1.94656 5.58651H2.09531Z" fill="#1E1E1C"/>
<path d="M1.64642 10.2072C1.94392 10.2072 2.3158 10.1338 2.6133 9.98716C2.68767 9.76716 2.68767 9.54716 2.76205 9.40049C2.9108 10.4272 3.28267 10.8672 4.17517 10.8672H21.3558C22.4714 10.8672 23.587 10.7205 24.7027 10.3538L25.5208 10.1338L25.7439 9.1805L25.6695 9.10716L24.8514 9.32716C23.587 9.62049 22.3227 9.25383 22.3227 8.44716C22.3227 7.8605 22.992 7.56716 23.587 7.56716C24.1077 7.56716 24.7027 7.71383 25.0745 8.0805L25.2977 7.86049C24.9258 7.05383 24.4052 6.61383 23.8102 6.61383C22.8433 6.61383 22.0252 7.64049 22.0252 8.66716C22.0252 9.10716 22.2483 9.54716 22.5458 9.84049C22.2483 9.84049 21.802 9.91383 21.4302 9.91383H4.3983C3.65455 9.91383 3.43142 9.62049 3.35705 8.74049L3.05955 6.17383H2.76205L2.46455 6.9805L1.64642 7.49383C0.753922 8.08049 0.382047 8.52049 0.382047 9.10716C0.307672 9.69383 0.828297 10.2072 1.64642 10.2072ZM1.4233 8.22716L2.53892 7.71383L2.76205 9.03383C2.46455 9.18049 2.09267 9.25383 1.7208 9.25383C1.20017 9.25383 0.828297 9.10716 0.828297 8.88716C0.828297 8.66716 0.977047 8.37383 1.4233 8.22716Z" fill="#1E1E1C"/>
<path d="M28.6441 10.8668H36.0072C36.3791 10.8668 36.6766 10.7201 36.9741 10.5001C37.0484 10.2801 37.0484 10.1335 37.1228 9.98681C37.2716 10.5001 37.7922 10.8668 38.6103 10.8668H40.7672C41.2134 10.8668 41.5853 10.6468 41.8828 10.3535C42.6266 10.7935 43.4447 11.0135 44.2628 11.0135C45.2297 11.0135 46.1222 10.8668 47.0147 10.5001C47.4609 10.7201 47.9816 10.8668 48.5022 10.7935C49.0972 10.7935 49.6922 10.6468 50.2128 10.2801C50.3616 9.84014 50.5103 9.40014 50.5103 8.88681V5.14681L51.0309 4.78014L50.5103 4.19348V3.46014H50.2872C49.6922 3.90014 49.5434 4.34014 49.8409 4.85348L49.9897 9.47348C49.6178 9.62014 49.1716 9.69348 48.7997 9.69348C48.5022 9.69348 48.2047 9.69348 47.9072 9.62014C48.0559 9.32681 48.1303 8.96014 48.1303 8.59348C48.1303 7.71348 47.4609 7.05348 46.6428 6.98014C46.6428 6.98014 46.6428 6.98014 46.5684 6.98014C45.5272 6.98014 44.4859 7.78681 43.2216 9.69348C42.9984 9.62014 42.7753 9.54681 42.5522 9.47348L43.0728 8.81348L42.8497 8.59348L42.4778 9.03348C42.1059 9.54681 41.5109 9.76681 40.9159 9.69348H38.9078C38.0153 9.69348 37.7922 9.54681 37.7922 8.88681V8.00681H37.4203L37.1972 9.40014C36.8253 9.54681 36.4534 9.62014 36.0816 9.62014H28.9416C28.1234 9.62014 27.8259 9.40014 27.8259 8.74014V3.31348H27.5284L27.0078 4.26681L27.1566 8.74014C27.0822 10.4268 27.5284 10.8668 28.6441 10.8668ZM46.1222 8.15348C46.8659 8.22681 47.5353 8.66681 47.7584 9.40014C46.7172 9.84014 45.5272 10.0601 44.4116 10.0601C44.1141 10.0601 43.8909 10.0601 43.5934 9.98681C44.5603 8.74014 45.3041 8.15348 46.1222 8.15348Z" fill="#1E1E1C"/>
<path d="M37.6422 7.49374L38.2372 6.83374L37.6422 6.24707H37.5678L36.8984 6.83374L37.5678 7.49374H37.6422Z" fill="#1E1E1C"/>
<path d="M52.7431 10.8664L53.0406 9.76645V3.60645H52.7431L52.2969 4.55978L52.4456 10.8664H52.7431Z" fill="#1E1E1C"/>
<path d="M57.1266 6.39315L57.6472 5.87982L58.1678 6.39315H58.2422L58.9116 5.80648L58.2422 5.14648H58.1678L57.6472 5.65982L57.1266 5.14648H57.0522L56.3828 5.80648L57.0522 6.39315H57.1266Z" fill="#1E1E1C"/>
<path d="M57.5797 11.0139C58.5466 11.0139 59.1416 10.2806 59.1416 9.18056C59.1416 8.22723 58.6954 7.64056 56.9104 6.90723H56.836V7.93389C56.3897 8.44723 56.0922 9.03389 56.0922 9.69389C56.0179 10.4272 56.6129 11.0139 57.3566 11.0139C57.431 11.0139 57.5054 11.0139 57.5797 11.0139ZM57.3566 8.22723C58.3979 8.74056 58.8441 9.10723 58.8441 9.40056C58.8441 9.76723 58.3979 9.98723 57.7285 9.98723C56.9847 9.98723 56.6129 9.76723 56.6129 9.40056C56.6129 8.96056 56.9104 8.52056 57.3566 8.22723Z" fill="#1E1E1C"/>
<path d="M59.1406 12.3332V12.6265L61 13.2132C61.8181 12.1865 62.3388 10.9398 62.4131 9.61983C62.4131 8.8865 62.1156 8.15316 61.6694 7.49316H61.3719L61 8.37316C61.7438 9.25316 61.9669 9.69316 61.9669 10.2065C62.0413 11.0865 61 11.8932 59.1406 12.3332Z" fill="#1E1E1C"/>
<path d="M64.1181 10.8664L64.49 9.76645V3.60645H64.1181L63.6719 4.55978L63.8206 10.8664H64.1181Z" fill="#1E1E1C"/>
<path d="M67.6203 9.69307C67.6203 8.95974 67.3228 8.22641 66.8766 7.56641H66.5791L66.2072 8.44641C66.9509 9.32641 67.1741 9.76641 67.1741 10.2797C67.1741 11.1597 66.1328 11.9664 64.2734 12.4064V12.6997L66.1328 13.2864C67.0997 12.1864 67.6203 10.9397 67.6203 9.69307Z" fill="#1E1E1C"/>
<path d="M66.7281 6.76034L67.3231 6.17367L66.7281 5.51367H66.5794L65.9844 6.17367L66.6538 6.76034H66.7281Z" fill="#1E1E1C"/>
<path d="M71.6369 9.54686C71.6369 8.22686 70.9675 7.2002 70.1494 7.2002C69.4056 7.2002 68.6619 8.22686 68.6619 9.25353C68.5875 9.91353 69.1081 10.5002 69.7031 10.5735C69.7775 10.5735 69.8519 10.5735 69.9262 10.5735C70.2237 10.5735 70.5956 10.5002 70.8188 10.3535L71.1163 9.62019C71.1906 9.76686 71.1906 9.91353 71.1906 10.1335C71.1906 11.2335 70.0006 12.0402 67.8438 12.4069V12.7002L69.7031 13.2869C70.8931 12.2602 71.5625 10.9402 71.6369 9.54686ZM70.075 9.47353C69.4056 9.47353 69.0337 9.32686 69.0337 8.9602C69.0337 8.5202 69.4056 8.15353 69.8519 8.15353C70.3725 8.15353 70.8931 8.66686 71.1163 9.32686C70.8188 9.47353 70.4469 9.54686 70.075 9.47353Z" fill="#1E1E1C"/>
<path d="M3.06219 15.4131L2.54156 15.9264L2.02094 15.4131H1.94656L1.35156 16.0731L1.94656 16.6598H2.09531L2.54156 16.1464L3.06219 16.6598H3.21094L3.80594 16.0731L3.13656 15.4131H3.06219Z" fill="#1E1E1C"/>
<path d="M14.8084 22.8203H14.7341L14.2134 23.3336L13.6928 22.8203H13.6184L13.0234 23.4803L13.6184 24.1403H13.7672L14.2134 23.5536L14.7341 24.1403H14.8828L15.4778 23.4803L14.8084 22.8203Z" fill="#1E1E1C"/>
<path d="M19.5716 21.9406H21.5797C22.1747 21.9406 22.8441 21.7939 23.3647 21.5006C23.5134 21.0606 23.6622 20.6206 23.5878 20.1073C23.5878 19.5939 23.3647 19.0806 23.0672 18.5673H22.7697L22.5466 19.4473C22.8441 19.8139 23.1416 20.1806 23.2903 20.6206C22.7697 20.8406 22.1747 20.9139 21.6541 20.9139H15.7784C14.8859 20.9139 14.6628 20.7673 14.6628 20.1073V19.2273H14.3653L14.1422 20.6206C13.7703 20.7673 13.3984 20.8406 13.0266 20.8406H4.39906C3.65531 20.8406 3.43219 20.5473 3.35781 19.6673L3.06031 17.1006H2.76281L2.46531 17.9073L1.64719 18.4939C0.754688 19.0806 0.382812 19.5206 0.382812 20.1073C0.382812 20.6939 0.903437 21.2073 1.72156 21.2073C2.01906 21.2073 2.39094 21.1339 2.68844 20.9873C2.76281 20.7673 2.76281 20.5473 2.83719 20.4006C2.98594 21.5006 3.35781 21.9406 4.25031 21.9406H12.8778C13.2497 21.9406 13.6216 21.7939 13.9191 21.5739C13.9934 21.4273 13.9934 21.2073 14.0678 21.0606C14.2166 21.5739 14.7372 21.9406 15.5553 21.9406H19.5716ZM1.64719 20.3273C1.12656 20.3273 0.754688 20.1806 0.754688 19.9606C0.754688 19.7406 0.977812 19.5206 1.42406 19.3006L2.53969 18.7873L2.76281 20.1073C2.39094 20.2539 2.01906 20.3273 1.64719 20.3273Z" fill="#1E1E1C"/>
<path d="M22.25 17.2468L22.845 17.9068H22.9937L23.5888 17.2468L22.9194 16.6602H22.845L22.25 17.2468Z" fill="#1E1E1C"/>
<path d="M44.0369 14.6797H43.7394C43.07 15.1197 42.9956 15.5597 43.2931 16.073L43.4419 20.693C43.07 20.8397 42.6981 20.913 42.2519 20.913C41.8056 20.9864 41.3594 20.693 41.2106 20.3264L40.9875 19.8864C40.6156 19.153 40.3181 18.933 39.8719 18.933C39.2025 18.933 38.6075 19.7397 38.3844 20.693C38.0869 20.8397 37.7894 20.913 37.4175 20.913C36.8225 20.913 36.3019 20.7664 35.8556 20.3997C36.3763 19.9597 36.5994 19.6664 36.5994 19.373C36.5994 18.7864 36.1531 18.493 35.4094 18.493C34.9631 18.493 34.5169 18.6397 34.145 18.8597L33.8475 19.7397L33.9963 19.9597C34.3681 19.9597 34.74 20.1064 34.9631 20.473V20.5464C34.4425 20.8397 33.8475 20.9864 33.2525 20.9864H29.3106C28.5669 20.9864 28.195 20.6197 27.8231 19.5197L27.0794 17.4664H27.005L26.6331 18.3464L27.3025 20.033C27.4513 20.3264 27.5256 20.5464 27.6744 20.7664C27.2281 20.9864 26.7819 21.133 26.2613 21.133C25.3688 21.133 25.1456 20.9864 25.0713 20.3997V20.253H24.7738C24.6994 20.5464 24.625 20.7664 24.625 21.0597C24.625 21.793 25.0713 22.1597 26.0381 22.1597C26.5588 22.1597 27.1537 22.013 27.6 21.6464C27.6744 21.4264 27.6744 21.2064 27.7488 21.0597H27.8231C28.2694 21.793 28.6413 22.013 29.2363 22.013H33.3269C34.145 21.9397 34.8144 21.573 35.4094 21.0597C35.8556 21.6464 36.5994 22.013 37.3431 22.013C37.7894 22.013 38.1613 21.8664 38.5331 21.573C39.2769 21.9397 40.0206 22.1597 40.7644 22.233C40.8388 22.013 40.9131 21.7197 40.9875 21.4997C41.285 21.793 41.6569 22.013 42.1031 21.9397C42.6981 21.9397 43.2931 21.793 43.8137 21.4997C43.9625 21.0597 44.1112 20.6197 44.1112 20.1064V16.3664L44.6319 15.9997L44.1112 15.413L44.0369 14.6797ZM38.8306 20.693C38.905 20.3264 39.2025 19.9597 39.6488 19.9597C39.9462 19.9597 40.1694 20.1064 40.3925 20.6197L40.6156 21.0597C40.69 21.133 40.69 21.2064 40.7644 21.2797C40.1694 21.133 39.5 20.913 38.8306 20.693Z" fill="#1E1E1C"/>
<path d="M46.2706 21.9397L46.5681 20.8397V14.6797H46.2706L45.75 15.633L45.8988 21.9397H46.2706Z" fill="#1E1E1C"/>
<path d="M51.1032 22.1604C52.0701 22.1604 52.6651 21.427 52.6651 20.327C52.6651 19.3737 52.2188 18.787 50.4338 18.0537H50.3594V19.007C49.9132 19.5204 49.6157 20.107 49.6157 20.767C49.5413 21.5004 50.1363 22.087 50.8057 22.1604C50.9544 22.1604 51.0288 22.1604 51.1032 22.1604ZM50.8057 19.3004C51.8469 19.8137 52.2932 20.1804 52.2932 20.4737C52.2932 20.8404 51.8469 21.0604 51.1776 21.0604C50.4338 21.0604 50.0619 20.8404 50.0619 20.4737C50.0619 20.0337 50.3594 19.5937 50.8057 19.3004Z" fill="#1E1E1C"/>
<path d="M50.5091 16.2939L49.9141 16.8806L50.5834 17.5406H50.6578L51.1784 17.0273L51.6991 17.5406H51.7734L52.3684 16.8806L51.7734 16.2939H51.6247L51.1784 16.8073L50.5834 16.2939H50.5091Z" fill="#1E1E1C"/>
<path d="M55.2 18.2734C54.4562 18.2734 53.7125 19.3001 53.7125 20.3268C53.6381 20.9868 54.1587 21.5734 54.8281 21.6468C54.9025 21.6468 54.9769 21.6468 55.0512 21.6468C55.3487 21.6468 55.7206 21.5734 55.9437 21.4268L56.2413 20.6934C56.3156 20.8401 56.3156 20.9868 56.3156 21.2068C56.3156 22.3068 55.1256 23.1134 52.9688 23.4801V23.7734L54.8281 24.3601C55.8694 23.4068 56.5387 22.0868 56.6875 20.6934C56.6131 19.3734 56.0181 18.2734 55.2 18.2734ZM55.0512 20.6201C54.3819 20.6201 54.01 20.4734 54.01 20.1068C54.01 19.6668 54.3819 19.3001 54.8281 19.3001C55.3487 19.3001 55.8694 19.8134 56.0925 20.4734C55.795 20.5468 55.4231 20.6201 55.0512 20.6201Z" fill="#1E1E1C"/>
<path d="M61.5953 16.3667L62.1903 15.78L61.5209 15.1934H61.4466L60.8516 15.78L61.5209 16.3667H61.5953Z" fill="#1E1E1C"/>
<path d="M62.0387 16.2939L61.5181 16.8073L60.9975 16.2939H60.9231L60.3281 16.8806L60.9231 17.5406H60.9975L61.5181 17.0273L62.0387 17.5406H62.1875L62.7825 16.8806L62.1131 16.2939H62.0387Z" fill="#1E1E1C"/>
<path d="M62.9353 21.9397C63.5303 21.9397 64.1253 21.793 64.6459 21.4997C64.7947 21.0597 64.9434 20.6197 64.9434 20.1064V16.3664L65.4641 15.9997L64.9434 15.413V14.6797H64.6459C63.9766 15.1197 63.9022 15.5597 64.1997 16.073L64.3484 20.693C63.9766 20.8397 63.5303 20.913 63.1584 20.913C62.4147 20.913 62.1172 20.6197 61.9684 19.7397L61.7453 18.1997H61.4478L61.2991 18.5664C61.0016 19.373 60.6297 19.593 60.2578 19.593C59.8116 19.5197 59.3653 19.2997 59.1422 18.8597H58.8447L58.4728 19.7397C59.1422 20.3264 59.4397 20.8397 59.4397 21.2064C59.4397 22.0864 58.3984 22.8197 56.5391 23.2597V23.553L58.3984 24.1397C59.2166 23.113 59.7372 21.8664 59.8116 20.6197V20.5464C59.8859 20.5464 59.9603 20.5464 60.1091 20.5464C60.6297 20.5464 61.0759 20.1797 61.2247 19.4464L61.2991 20.033C61.6709 21.573 62.0428 22.013 62.9353 21.9397Z" fill="#1E1E1C"/>
<path d="M67.3922 20.8397V14.6797H67.0947L66.6484 15.633L66.7972 21.9397H67.0947L67.3922 20.8397Z" fill="#1E1E1C"/>
<path d="M68.0625 23.4068V23.7001L69.9219 24.2868C70.9631 23.3334 71.6325 22.0134 71.7812 20.6201C71.7812 19.3001 71.1119 18.2734 70.2937 18.2734C69.55 18.2734 68.8062 19.3001 68.8062 20.3268C68.7319 20.9868 69.2525 21.5734 69.9219 21.6468C69.9962 21.6468 70.0706 21.6468 70.145 21.6468C70.4425 21.6468 70.8144 21.5734 71.0375 21.4268L71.335 20.6934C71.4094 20.8401 71.4094 20.9868 71.4094 21.2068C71.335 22.2334 70.145 23.0401 68.0625 23.4068ZM70.2194 20.6201C69.55 20.6201 69.1781 20.4734 69.1781 20.1068C69.1781 19.6668 69.55 19.3001 69.9963 19.3001C70.5169 19.3001 71.0375 19.8134 71.2606 20.4734C70.8888 20.5468 70.5169 20.6201 70.2194 20.6201Z" fill="#1E1E1C"/>
<path d="M3.20906 26.7805L3.50656 26.6339V26.5605H2.68844V26.7072L2.01906 28.3205L1.20094 26.5605H0.382812V26.6339L0.680312 26.7805V28.7605L0.382812 28.9072V28.9805H1.34969V28.9072L0.903438 28.7605V26.8539L1.72156 28.6872L1.79594 28.9072H1.94469L2.01906 28.6872L2.83719 26.8539V28.7605L2.46531 28.9072V28.9805H3.50656V28.9072L3.20906 28.7605V26.7805Z" fill="#1E1E1C"/>
<path d="M4.39594 27.2197L3.80094 27.2931V27.4397L4.02406 27.5131V28.7597L3.72656 28.9064V28.9797H4.61906V28.9064L4.39594 28.8331V27.2197Z" fill="#1E1E1C"/>
<path d="M4.39938 26.4866C4.39938 26.3399 4.25063 26.2666 4.17625 26.2666C4.0275 26.2666 3.95312 26.4133 3.95312 26.4866C4.0275 26.6333 4.10187 26.7066 4.25062 26.6333C4.325 26.6333 4.39938 26.5599 4.39938 26.4866Z" fill="#1E1E1C"/>
<path d="M6.6325 27.8065C6.6325 27.2931 6.48375 27.1465 6.11187 27.1465C5.88875 27.1465 5.66563 27.2932 5.51688 27.5132L5.4425 27.1465L4.92188 27.3665V27.5132L5.145 27.5865V28.8332L4.92188 28.9065V29.0531H5.81437V28.9065L5.59125 28.8332V27.6598C5.74 27.5132 5.88875 27.5131 6.0375 27.4398C6.26063 27.4398 6.335 27.5865 6.40937 27.8798V28.8332L6.18625 28.9065V29.0531H6.93V28.9065L6.70687 28.8332L6.6325 27.8065Z" fill="#1E1E1C"/>
<path d="M7.67313 27.2197L7.07812 27.2931V27.4397L7.30125 27.5131V28.7597L7.07812 28.9064V28.9797H7.97062V28.9064L7.67313 28.8331V27.2197Z" fill="#1E1E1C"/>
<path d="M7.74719 26.4866C7.67281 26.3399 7.52406 26.2666 7.37531 26.2666C7.30094 26.2666 7.22656 26.3399 7.22656 26.4133C7.30094 26.5599 7.37531 26.6333 7.52406 26.5599C7.59844 26.6333 7.67281 26.5599 7.74719 26.4866Z" fill="#1E1E1C"/>
<path d="M9.08781 28.0264L8.93906 27.9531C8.71594 27.8797 8.64156 27.7331 8.64156 27.6597C8.64156 27.5131 8.79031 27.4397 8.86469 27.4397C8.93906 27.4397 9.08781 27.4397 9.16219 27.5131L9.31094 27.8797H9.45969V27.3664C9.31094 27.2931 9.16219 27.2197 8.93906 27.2197C8.56719 27.2197 8.26969 27.4397 8.26969 27.8064C8.26969 28.0264 8.41844 28.1731 8.64156 28.3197L8.79031 28.3931C9.08781 28.5397 9.16219 28.6131 9.16219 28.7597C9.16219 28.9064 9.01344 29.0531 8.86469 29.0531C8.71594 29.0531 8.64156 29.0531 8.56719 28.9797L8.34406 28.5397H8.19531L8.26969 29.0531C8.41844 29.1264 8.64156 29.1997 8.79031 29.1997C9.16219 29.1997 9.45969 28.9797 9.53406 28.6131C9.53406 28.3197 9.38531 28.1731 9.08781 28.0264Z" fill="#1E1E1C"/>
<path d="M10.5722 28.8336C10.4234 28.8336 10.3491 28.8336 10.3491 28.5403V27.5136H10.8697V27.2936H10.3491V26.7803H10.2003L9.97719 27.2203L9.67969 27.2936V27.4403H9.97719V28.6136C9.97719 28.8336 10.0516 29.0536 10.3491 29.0536C10.5722 29.0536 10.7209 28.9803 10.8697 28.9069V28.8336C10.7953 28.8336 10.7209 28.8336 10.5722 28.8336Z" fill="#1E1E1C"/>
<path d="M12.135 27.1465C11.9862 27.1465 11.9119 27.2198 11.7631 27.4398L11.6144 27.6598V27.2198L11.0938 27.4398V27.5865L11.3169 27.6598V28.9065L11.0938 28.9798V29.1265H12.0606V28.9798L11.6887 28.9065V27.8798C11.7631 27.8065 11.8375 27.7332 11.9119 27.6598L12.2094 27.8065C12.2838 27.7331 12.3581 27.6598 12.3581 27.5132C12.4325 27.2932 12.3581 27.2198 12.135 27.1465C12.2094 27.1465 12.2094 27.1465 12.135 27.1465Z" fill="#1E1E1C"/>
<path d="M13.6941 27.3664L13.9172 27.4397L13.4709 28.6864L13.0247 27.4397L13.3222 27.3664V27.2197H12.4297V27.3664L12.5784 27.4397L13.2478 29.1997L13.0247 29.7131C13.0247 29.6397 12.9503 29.5664 12.8016 29.5664C12.7272 29.5664 12.5784 29.6397 12.5784 29.7864C12.5784 29.9331 12.7272 30.0064 12.8016 30.0064C13.0247 30.0064 13.0991 29.8597 13.2478 29.4931L14.0659 27.4397L14.2147 27.3664V27.2197H13.5453V27.3664H13.6941Z" fill="#1E1E1C"/>
<path d="M16.0722 27.1465C15.5516 27.1465 15.1797 27.5865 15.1797 28.0998C15.1797 28.5398 15.4772 28.9798 15.9978 28.9798H16.0722C16.5928 28.9798 16.9647 28.5398 16.9647 28.0265C17.0391 27.5865 16.6672 27.1465 16.2209 27.1465C16.1466 27.1465 16.0722 27.1465 16.0722 27.1465ZM16.1466 28.9065C15.7747 28.9065 15.6259 28.4665 15.5516 28.0265C15.4772 27.5865 15.7003 27.3665 15.9978 27.3665C16.2953 27.3665 16.5184 27.6598 16.5184 28.1731C16.5928 28.6131 16.3697 28.9065 16.1466 28.9065Z" fill="#1E1E1C"/>
<path d="M18.3031 26.1934C17.7825 26.2667 17.4106 26.7067 17.485 27.1467L17.1875 27.22V27.3667H17.485V28.76L17.2619 28.8334V28.98H18.2288V28.8334L17.8569 28.76V27.44H18.3775V27.22H17.8569V26.9267C17.8569 26.4867 18.0056 26.34 18.2288 26.34C18.3031 26.34 18.3775 26.34 18.3775 26.4134L18.4519 26.7067H18.5263C18.6006 26.7067 18.7494 26.6334 18.7494 26.56C18.8238 26.4134 18.6006 26.1934 18.3031 26.1934Z" fill="#1E1E1C"/>
<path d="M20.0953 26.7805L20.3928 26.6339V26.5605H19.3516V26.6339L19.6491 26.7805V28.7605L19.3516 28.9072V28.9805H20.3928V28.9072L20.0953 28.7605V26.7805Z" fill="#1E1E1C"/>
<path d="M22.3981 27.8065C22.3981 27.2931 22.2494 27.1465 21.8775 27.1465C21.6544 27.1465 21.4312 27.2932 21.2825 27.5132L21.2081 27.1465L20.6875 27.3665V27.5132L20.9106 27.5865V28.8332L20.6875 28.9065V29.0531H21.5056V28.9065L21.2825 28.8332V27.6598C21.4312 27.5132 21.58 27.5131 21.7287 27.4398C21.9519 27.4398 22.0263 27.5865 22.1006 27.8798V28.8332L21.8775 28.9065V29.0531H22.6956V28.9065L22.4725 28.8332L22.3981 27.8065Z" fill="#1E1E1C"/>
<path d="M24.5521 26.1934L23.8083 26.2667V26.4134L24.1802 26.4867V27.22C24.1058 27.22 23.9571 27.1467 23.8827 27.1467C23.3621 27.1467 22.9158 27.5867 22.9158 28.1734C22.8414 28.6134 23.2133 28.98 23.5852 29.0534H23.6596C23.8827 29.0534 24.1058 28.98 24.1802 28.76L24.2546 29.0534L24.7752 28.98V28.8334L24.4777 28.76L24.5521 26.1934ZM24.1802 28.6867C24.1058 28.76 23.9571 28.76 23.8827 28.76C23.4364 28.76 23.2877 28.3934 23.2877 27.9534C23.2877 27.5134 23.5108 27.2934 23.8083 27.2934C23.9571 27.2934 24.1058 27.3667 24.1802 27.5134V28.6867Z" fill="#1E1E1C"/>
<path d="M26.7147 27.2197L26.0453 27.2931V27.4397L26.3428 27.5131V28.6864C26.2684 28.7597 26.1197 28.8331 25.9709 28.8331C25.7478 28.8331 25.5991 28.6864 25.5991 28.3931V27.2197L24.9297 27.2931V27.4397L25.2272 27.5131V28.4664C25.2272 28.9064 25.4503 29.1264 25.7478 29.1264C25.9709 29.1264 26.1941 28.9797 26.3428 28.8331L26.4916 29.1264L27.0866 29.0531V28.9064L26.7891 28.8331L26.7147 27.2197Z" fill="#1E1E1C"/>
<path d="M28.1269 28.0264L27.9781 27.9531C27.755 27.8797 27.6806 27.7331 27.6806 27.6597C27.6806 27.5131 27.8294 27.4397 27.9781 27.4397C28.0525 27.4397 28.1269 27.4397 28.2012 27.5131L28.35 27.8797H28.4988V27.3664C28.35 27.2931 28.2012 27.2197 27.9781 27.2197C27.6062 27.2197 27.3088 27.4397 27.3088 27.8064C27.3088 28.0264 27.4575 28.1731 27.6806 28.3197L27.8294 28.3931C28.1269 28.5397 28.2012 28.6131 28.2012 28.7597C28.2012 28.9064 28.0525 29.0531 27.9038 29.0531C27.755 29.0531 27.6806 29.0531 27.6062 28.9797L27.3831 28.5397H27.2344L27.3088 29.0531C27.4575 29.1264 27.6806 29.1997 27.8294 29.1997C28.2012 29.1997 28.4987 28.9797 28.5731 28.6131C28.5731 28.3197 28.4244 28.1731 28.1269 28.0264Z" fill="#1E1E1C"/>
<path d="M29.6113 28.8336C29.4625 28.8336 29.3881 28.8336 29.3881 28.5403V27.5136H29.9088V27.2936H29.3881V26.7803H29.2394L29.0163 27.2203L28.7188 27.2936V27.4403H29.0163V28.6136C29.0163 28.8336 29.0906 29.0536 29.3881 29.0536C29.6113 29.0536 29.76 28.9803 29.9088 28.9069V28.8336C29.8344 28.8336 29.76 28.8336 29.6113 28.8336Z" fill="#1E1E1C"/>
<path d="M31.17 27.1465C31.0212 27.1465 30.9469 27.2198 30.7981 27.4398L30.7238 27.6598V27.2198L30.2031 27.4398V27.5865L30.4262 27.6598V28.9065L30.2031 28.9798V29.1265H31.17V28.9798L30.7238 28.8332V27.8065C30.7981 27.7331 30.8725 27.6598 30.9469 27.5865L31.2444 27.7332C31.3188 27.6598 31.3931 27.5865 31.3931 27.4398C31.4675 27.2931 31.3931 27.2198 31.17 27.1465C31.2444 27.1465 31.2444 27.1465 31.17 27.1465Z" fill="#1E1E1C"/>
<path d="M32.7331 27.3664L32.9563 27.4397L32.51 28.6864L32.0637 27.4397L32.3613 27.3664V27.2197H31.4688V27.3664L31.6175 27.4397L32.2869 29.1997L32.0637 29.7131C32.0637 29.6397 31.9894 29.5664 31.8406 29.5664C31.7663 29.5664 31.6175 29.6397 31.6175 29.7864C31.6175 29.9331 31.7663 30.0064 31.8406 30.0064C32.0638 30.0064 32.1381 29.8597 32.2869 29.4931L33.105 27.4397L33.2538 27.3664V27.2197H32.5844V27.3664H32.7331Z" fill="#1E1E1C"/>
<path d="M35.6356 28.7598V27.7332C35.6356 27.3665 35.4869 27.1465 35.0406 27.1465C34.5944 27.1465 34.2969 27.4398 34.2969 27.5865C34.2969 27.6598 34.3712 27.7332 34.52 27.7332C34.5944 27.7332 34.6688 27.7332 34.6688 27.7332V27.3665C34.7431 27.2932 34.8175 27.2932 34.8919 27.2932C35.115 27.2932 35.2637 27.4398 35.2637 27.7332V27.8798L34.8919 27.9531C34.52 28.0265 34.2969 28.1732 34.2969 28.4665C34.2969 28.6865 34.52 28.9065 34.7431 28.9065C34.9663 28.9065 35.115 28.7598 35.2637 28.6132C35.2637 28.7598 35.3381 28.9065 35.5613 28.9065C35.71 28.9065 35.8588 28.8332 35.9331 28.8332V28.6865H35.7844C35.6356 28.8331 35.6356 28.8332 35.6356 28.7598ZM35.2637 28.6132C35.1894 28.6865 35.115 28.7598 34.9663 28.7598C34.8175 28.7598 34.6688 28.6865 34.6688 28.5398C34.6688 28.3931 34.7431 28.3198 34.9663 28.2465L35.2637 28.1731V28.6132Z" fill="#1E1E1C"/>
<path d="M37.8669 27.8065C37.8669 27.2931 37.7181 27.1465 37.3463 27.1465C37.1231 27.1465 36.9 27.2932 36.7512 27.5132L36.6769 27.2198L36.1562 27.4398V27.5865L36.3794 27.6598V28.9065L36.1562 28.9798V29.1265H36.9744V28.9798L36.7512 28.9065V27.7332C36.9 27.5865 37.0488 27.5865 37.1975 27.5132C37.4206 27.5132 37.5694 27.6598 37.5694 27.9531V28.9065L37.3463 28.9798V29.1265H38.1644V28.9798L37.9413 28.9065L37.8669 27.8065Z" fill="#1E1E1C"/>
<path d="M40.0208 26.1934L39.2771 26.2667V26.4134L39.6489 26.4867V27.22C39.5746 27.22 39.4258 27.1467 39.3514 27.1467C38.8308 27.1467 38.3846 27.5867 38.3846 28.1734C38.3102 28.6134 38.6821 28.98 39.0539 29.0534H39.1283C39.3514 29.0534 39.5746 28.98 39.6489 28.76L39.7233 29.0534L40.2439 28.98V28.8334L39.9464 28.76V26.1934H40.0208ZM39.6489 28.6867C39.5746 28.76 39.4258 28.76 39.3514 28.76C38.9052 28.76 38.7564 28.3934 38.7564 27.9534C38.7564 27.5134 38.9796 27.2934 39.2771 27.2934C39.4258 27.2934 39.5746 27.3667 39.6489 27.5134V28.6867Z" fill="#1E1E1C"/>
<path d="M44.1897 26.7805L44.4872 26.6339V26.5605H43.5947V26.7072L42.9253 28.3205L42.1072 26.5605H41.2891V26.6339L41.6609 26.7805L41.5866 28.7605L41.2891 28.9072V28.9805H42.2559V28.9072L41.8097 28.7605L41.8841 26.8539L42.7022 28.6872L42.7766 28.9072H42.9253L42.9997 28.6872L43.7434 26.8539V28.7605L43.4459 28.9072V28.9805H44.4872V28.9072L44.1897 28.7605V26.7805Z" fill="#1E1E1C"/>
<path d="M44.8594 26.4866C44.8594 26.6332 45.0081 26.7066 45.0825 26.7066C45.2312 26.7066 45.3056 26.5599 45.3056 26.4866C45.3056 26.3399 45.1569 26.2666 45.0825 26.2666C45.0081 26.1932 44.8594 26.3399 44.8594 26.4866Z" fill="#1E1E1C"/>
<path d="M45.3059 27.2197L44.7109 27.2931V27.4397L44.9341 27.5131V28.7597L44.7109 28.9064V28.9797H45.6034V28.9064L45.3059 28.8331V27.2197Z" fill="#1E1E1C"/>
<path d="M47.5387 27.8065C47.5387 27.2931 47.39 27.1465 47.0181 27.1465C46.795 27.1465 46.5719 27.2932 46.4231 27.5132L46.3487 27.2198L45.8281 27.4398V27.5865L46.0512 27.6598V28.9065L45.8281 28.9798V29.1265H46.7206V28.9798L46.4975 28.9065V27.7332C46.6462 27.5865 46.795 27.5865 46.9437 27.5132C47.1669 27.5132 47.3156 27.6598 47.3156 27.9531V28.9065L47.0925 28.9798V29.1265H47.8362V28.9798L47.6131 28.9065L47.5387 27.8065Z" fill="#1E1E1C"/>
<path d="M49.0216 28.7597C48.6497 28.7597 48.3522 28.4664 48.3522 28.0264H49.6166C49.6166 27.5131 49.3934 27.2197 48.9472 27.2197C48.4266 27.2197 48.0547 27.6597 48.0547 28.1731C48.0547 28.1731 48.0547 28.1731 48.0547 28.2464C48.0547 28.6864 48.3522 29.1264 48.7984 29.1264C49.1703 29.1264 49.4678 28.9797 49.6166 28.6131L49.5422 28.4664C49.3934 28.6864 49.2447 28.7597 49.0216 28.7597ZM48.8728 27.3664C49.0959 27.3664 49.2447 27.5864 49.2447 27.8797H48.4266C48.3522 27.5864 48.5753 27.3664 48.8728 27.3664Z" fill="#1E1E1C"/>
<path d="M51.0297 27.1465C50.8809 27.1465 50.8066 27.2198 50.6578 27.4398L50.5091 27.6598L50.4347 27.2198L49.9141 27.4398V27.5865L50.1372 27.6598V28.9065L49.9141 28.9798V29.1265H50.8809V28.9798L50.5091 28.9065V27.8798C50.5834 27.8065 50.6578 27.7332 50.7322 27.6598L51.0297 27.8065C51.1041 27.7331 51.1784 27.6598 51.1784 27.5132C51.2528 27.2932 51.1784 27.2198 51.0297 27.1465Z" fill="#1E1E1C"/>
<path d="M52.745 28.7598V27.7332C52.745 27.3665 52.5963 27.1465 52.15 27.1465C51.7781 27.1465 51.4062 27.4398 51.4062 27.5865C51.4062 27.6598 51.4806 27.7332 51.6294 27.7332C51.7037 27.7332 51.7781 27.7332 51.7781 27.7332V27.3665C51.8525 27.2932 51.9269 27.2932 52.0012 27.2932C52.2244 27.2932 52.3731 27.4398 52.3731 27.7332V27.8798L52.0012 27.9531C51.6294 28.0265 51.4062 28.1732 51.4062 28.4665C51.4062 28.6865 51.6294 28.9065 51.8525 28.9065C52.0756 28.9065 52.2244 28.7598 52.3731 28.6132C52.3731 28.7598 52.4475 28.9065 52.6706 28.9065C52.8194 28.9065 52.9681 28.8332 53.0425 28.8332V28.6865H52.8938C52.8194 28.8331 52.745 28.8332 52.745 28.7598ZM52.3731 28.6132C52.2987 28.6865 52.2244 28.7598 52.0756 28.7598C51.9269 28.7598 51.7781 28.6865 51.7781 28.5398C51.7781 28.3931 51.8525 28.3198 52.0756 28.2465L52.3731 28.1731V28.6132Z" fill="#1E1E1C"/>
<path d="M53.8606 26.1934L53.2656 26.34V26.4867L53.4887 26.56V28.8334L53.2656 28.9067V28.98H54.1581V28.9067L53.8606 28.8334V26.1934Z" fill="#1E1E1C"/>
<path d="M56.6084 27.8073C56.9059 27.734 57.1291 27.514 57.2034 27.1473C57.2034 26.7806 56.8316 26.4873 56.0878 26.4873H55.1953V26.634L55.4928 26.7073V28.7606L55.1953 28.834V28.9806H56.2366V28.834L55.9391 28.7606V27.8806H56.2366L56.3853 28.1006L56.9803 28.9806H57.6497V28.834L57.3522 28.7606L56.6084 27.8073ZM56.1622 27.734H55.8647V26.634C56.3853 26.634 56.6828 26.854 56.6828 27.2206C56.6828 27.514 56.4597 27.734 56.1622 27.734Z" fill="#1E1E1C"/>
<path d="M58.6156 28.7597C58.2438 28.7597 57.9463 28.4664 57.9463 28.0264H59.2106C59.2106 27.5131 58.9875 27.2197 58.5413 27.2197C58.0206 27.2197 57.5744 27.6597 57.6488 28.1731C57.6488 28.1731 57.6488 28.1731 57.6488 28.2464C57.6488 28.6864 57.9463 29.1264 58.4669 29.1264C58.8388 29.1264 59.1363 28.9064 59.285 28.6131L59.1363 28.4664C59.0619 28.6864 58.8388 28.7597 58.6156 28.7597ZM58.4669 27.3664C58.69 27.3664 58.8388 27.5864 58.8388 27.8797H58.0206C58.0206 27.5864 58.1694 27.3664 58.4669 27.3664Z" fill="#1E1E1C"/>
<path d="M60.4784 28.0264L60.3297 27.9531C60.1066 27.8797 60.0322 27.7331 60.0322 27.6597C60.0322 27.5131 60.1809 27.4397 60.2553 27.4397C60.3297 27.4397 60.4784 27.4397 60.5528 27.5131L60.7016 27.8797H60.8503V27.3664C60.7016 27.2931 60.5528 27.2197 60.3297 27.2197C59.9578 27.2197 59.6603 27.4397 59.6603 27.7331C59.6603 27.9531 59.8091 28.0997 60.0322 28.2464L60.1809 28.3197C60.4784 28.4664 60.5528 28.5397 60.5528 28.6864C60.5528 28.8331 60.4041 28.9797 60.2553 28.9797C60.1066 28.9797 60.0322 28.9797 59.9578 28.9064L59.7347 28.3931H59.5859L59.6603 28.9064C59.8091 28.9797 60.0322 29.0531 60.1809 29.0531C60.5528 29.0531 60.8503 28.8331 60.9247 28.4664C60.9247 28.3197 60.7759 28.1731 60.4784 28.0264Z" fill="#1E1E1C"/>
<path d="M62.1112 27.1465C61.5906 27.1465 61.2188 27.5865 61.2188 28.0998C61.2188 28.5398 61.5162 28.9798 62.0369 28.9798H62.1112C62.6319 28.9798 63.0038 28.5398 63.0038 28.0265C63.0781 27.5865 62.7063 27.1465 62.26 27.1465C62.1856 27.1465 62.1112 27.1465 62.1112 27.1465ZM62.1856 28.9065C61.8138 28.9065 61.665 28.4665 61.5906 28.0265C61.5906 27.5865 61.7394 27.3665 62.0369 27.3665C62.3344 27.3665 62.5575 27.6598 62.5575 28.1731C62.6319 28.6131 62.4088 28.9065 62.1856 28.9065Z" fill="#1E1E1C"/>
<path d="M64.9413 27.2197L64.2719 27.2931V27.4397L64.5694 27.5131V28.6864C64.495 28.7597 64.3463 28.8331 64.1975 28.8331C63.9744 28.8331 63.8256 28.6864 63.8256 28.3931V27.2197L63.1562 27.2931V27.4397L63.4538 27.5131V28.4664C63.4538 28.9064 63.6769 29.1264 63.9744 29.1264C64.1975 29.1264 64.4206 28.9797 64.5694 28.8331L64.7181 29.1264L65.2388 29.0531V28.9064L64.9413 28.7597V27.2197Z" fill="#1E1E1C"/>
<path d="M66.5022 27.1465C66.3534 27.1465 66.2791 27.2198 66.1303 27.4398L65.9816 27.6598V27.2198L65.4609 27.4398V27.5865L65.6841 27.6598V28.9065L65.4609 28.9798V29.1265H66.4278V28.9798L66.0559 28.9065V27.8798C66.1303 27.8065 66.2047 27.7332 66.2791 27.6598L66.5766 27.8065C66.6509 27.7331 66.7253 27.6598 66.7253 27.5132C66.7253 27.2932 66.6509 27.2198 66.5022 27.1465Z" fill="#1E1E1C"/>
<path d="M67.8398 28.7597C67.468 28.7597 67.1705 28.3931 67.1705 28.0264C67.1705 27.6597 67.3936 27.3664 67.6911 27.3664C67.7655 27.3664 67.8398 27.3664 67.9142 27.4397L67.9886 27.8064C68.063 27.8064 68.063 27.8064 68.1373 27.8064C68.2861 27.8064 68.3605 27.7331 68.3605 27.5864C68.3605 27.3664 68.1373 27.2197 67.7655 27.2197C67.2448 27.2197 66.7986 27.6597 66.7986 28.2464C66.7242 28.6864 67.0961 29.0531 67.5423 29.1264H67.6167C67.9142 29.1264 68.2117 28.9797 68.3605 28.6864L68.2861 28.6131C68.2117 28.6864 68.063 28.7597 67.8398 28.7597Z" fill="#1E1E1C"/>
<path d="M69.6235 28.7597C69.2516 28.7597 68.9541 28.4664 68.9541 28.0264H70.2185C70.2185 27.5131 69.9953 27.2197 69.5491 27.2197C69.0284 27.2197 68.5822 27.6597 68.6566 28.1731C68.6566 28.1731 68.6566 28.1731 68.6566 28.2464C68.6566 28.6864 68.9541 29.1264 69.4747 29.1264C69.4747 29.1264 69.4747 29.1264 69.5491 29.1264C69.9209 29.1264 70.2184 28.9064 70.2928 28.6131L70.1441 28.4664C69.9953 28.6864 69.8466 28.7597 69.6235 28.7597ZM69.4003 27.3664C69.6235 27.3664 69.7722 27.5864 69.7722 27.8797H68.9541C68.9541 27.5864 69.1772 27.3664 69.4003 27.3664Z" fill="#1E1E1C"/>
<path d="M71.4081 28.0266L71.2594 27.9532C71.0362 27.8799 70.9619 27.7332 70.9619 27.6599C70.9619 27.5132 71.1106 27.4399 71.185 27.4399C71.2594 27.4399 71.3337 27.4399 71.4081 27.5132L71.6312 27.7332H71.78V27.2199C71.6312 27.1466 71.4825 27.0732 71.2594 27.0732C70.8875 27.0732 70.59 27.2932 70.59 27.6599C70.59 27.8799 70.7387 28.0266 70.9619 28.1732L71.1106 28.2466C71.4081 28.3932 71.4825 28.4666 71.4825 28.6132C71.4825 28.7599 71.3338 28.9066 71.185 28.9066C71.0363 28.9066 70.9619 28.9066 70.8875 28.8332L70.6644 28.3932H70.5156L70.59 28.9066C70.7387 28.9799 70.9619 29.0532 71.1106 29.0532C71.4825 29.0532 71.78 28.8332 71.8544 28.4666C71.8544 28.3199 71.78 28.1732 71.4081 28.0266Z" fill="#1E1E1C"/>
<path d="M103.984 31.8399C104.059 31.8399 104.207 31.7666 104.356 31.7666L103.984 31.8399Z" fill="#9E9B9C"/>
<path d="M114.694 17.54C114.546 19.74 113.579 23.8467 112.389 25.7534C111.348 27.3667 107.852 30.3734 104.877 31.5467C103.389 32.1334 101.604 31.3267 100.563 30.6667H100.489C100.34 30.5934 100.117 30.4467 100.042 30.3734C99.8194 30.2267 99.6706 30.1534 99.6706 30.1534C99.3731 29.9334 99.0756 29.7134 98.8525 29.4934L98.6294 29.2734C98.555 29.2 98.4806 29.1267 98.3319 29.0534L97.96 28.6867L97.5881 28.32L97.1419 27.9534L96.5469 27.3667C101.009 26.4134 108.001 23.7 111.868 20.9134C113.43 19.8134 114.471 18.64 114.694 17.54Z" fill="url(#paint0_linear_3726_8458)"/>
<path d="M104.659 31.6206C104.585 31.6206 104.436 31.6939 104.362 31.7673L103.99 31.8406C103.916 31.8406 103.841 31.9139 103.692 31.9139H103.544H103.395H103.246C103.172 31.9139 103.097 31.9139 103.023 31.9139C100.792 32.1339 94.3956 31.2539 90.4537 29.4206L90.305 29.3473L90.1562 29.2739C89.115 28.7606 88.1481 28.0273 87.4043 27.1473C84.7268 23.8473 81.38 15.7806 81.4543 11.1606C81.5287 10.4273 81.7518 9.69392 82.1981 9.03392L82.2725 8.96059C82.2725 8.88725 82.3468 8.88725 82.3468 8.81392C83.0906 7.71392 84.0575 6.83392 85.1731 6.10059C86.4375 12.3339 90.6025 21.5739 96.3293 27.2939C96.5525 27.5139 96.7012 27.6606 96.9243 27.8806C97.1475 28.1006 97.445 28.3939 97.7425 28.6139L98.1144 28.9806C98.1887 29.0539 98.2631 29.1273 98.4118 29.2006L98.635 29.4206C98.9325 29.6406 99.23 29.8606 99.4531 30.0806C99.4531 30.0806 99.6018 30.1539 99.825 30.3006C99.9737 30.3739 100.122 30.5206 100.346 30.5939C101.461 31.3273 103.246 32.1339 104.659 31.6206Z" fill="url(#paint1_linear_3726_8458)"/>
<path d="M81.5978 10.4268C81.5978 10.6468 81.5234 10.9401 81.5234 11.0868C81.5978 10.9401 81.5978 10.7201 81.5978 10.4268Z" fill="url(#paint2_linear_3726_8458)"/>
<path d="M114.624 17.5402C114.476 18.6402 113.36 19.8135 111.724 20.9868C109.121 20.0335 106.592 18.7135 104.361 17.1002C98.2619 12.7735 94.32 5.51348 89.1881 5.14682C87.775 5.07348 86.3619 5.44015 85.1719 6.24682C84.0562 6.98015 83.0894 7.86015 82.3456 8.96015C82.3456 9.03348 82.2713 9.03349 82.2713 9.10682L82.1969 9.18015C81.825 9.84015 81.5275 10.5735 81.4531 11.3068C81.4531 11.3068 81.4531 11.3068 81.4531 11.2335C81.4531 11.1602 81.4531 11.1602 81.4531 11.1602C81.4531 10.9402 81.4531 10.7202 81.5275 10.5002V10.4268C82.2713 5.51348 87.4031 -0.0598482 91.6425 0.0868185C96.7 0.233485 101.088 6.17348 105.03 9.76682C108.451 12.8468 111.129 14.1668 112.839 15.2668C114.104 15.9268 114.699 16.5135 114.624 17.5402Z" fill="url(#paint3_linear_3726_8458)"/>
<defs>
<linearGradient id="paint0_linear_3726_8458" x1="127.989" y1="24.9506" x2="83.205" y2="24.1778" gradientUnits="userSpaceOnUse">
<stop offset="0.13" stop-color="#DDD9D7"/>
<stop offset="0.16" stop-color="#CECBC9"/>
<stop offset="0.24" stop-color="#A7A7A6"/>
<stop offset="0.25" stop-color="#A2A2A1"/>
<stop offset="0.28" stop-color="#A9A9A9"/>
<stop offset="0.32" stop-color="#BBBBBB"/>
<stop offset="0.35" stop-color="#ACACAC"/>
<stop offset="0.42" stop-color="#808181"/>
<stop offset="0.48" stop-color="#8D8E8E"/>
<stop offset="0.6" stop-color="#B1B1B1"/>
<stop offset="0.7" stop-color="#D6D6D6"/>
<stop offset="0.72" stop-color="#CCCDCD"/>
<stop offset="0.77" stop-color="#B2B4B4"/>
<stop offset="0.83" stop-color="#878B8C"/>
<stop offset="0.9" stop-color="#4D5455"/>
<stop offset="0.92" stop-color="#707475"/>
<stop offset="0.96" stop-color="#9FA1A1"/>
<stop offset="0.98" stop-color="#BDBDBD"/>
<stop offset="1" stop-color="#C8C7C7"/>
</linearGradient>
<linearGradient id="paint1_linear_3726_8458" x1="84.4975" y1="4.64616" x2="122.406" y2="90.3982" gradientUnits="userSpaceOnUse">
<stop offset="0.03" stop-color="#4E4D4D"/>
<stop offset="0.04" stop-color="#636363"/>
<stop offset="0.06" stop-color="#737474"/>
<stop offset="0.08" stop-color="#7F7F80"/>
<stop offset="0.11" stop-color="#858687"/>
<stop offset="0.18" stop-color="#878889"/>
<stop offset="0.35" stop-color="#4E4D4D"/>
<stop offset="0.39" stop-color="#6B6A6A"/>
<stop offset="0.45" stop-color="#888787"/>
<stop offset="0.51" stop-color="#9F9E9E"/>
<stop offset="0.58" stop-color="#B2B1B1"/>
<stop offset="0.66" stop-color="#BEBDBD"/>
<stop offset="0.77" stop-color="#C6C5C5"/>
<stop offset="1" stop-color="#C8C7C7"/>
</linearGradient>
<linearGradient id="paint2_linear_3726_8458" x1="109.666" y1="27.0872" x2="74.8586" y2="6.31625" gradientUnits="userSpaceOnUse">
<stop stop-color="#DDD9D7"/>
<stop offset="0.04" stop-color="#B3B2B1"/>
<stop offset="0.12" stop-color="#6A6F6F"/>
<stop offset="0.16" stop-color="#4D5455"/>
<stop offset="0.73" stop-color="#7D8386"/>
<stop offset="0.82" stop-color="#868B8F"/>
<stop offset="0.84" stop-color="#8B9093"/>
<stop offset="0.86" stop-color="#9A9DA0"/>
<stop offset="0.88" stop-color="#B3B4B5"/>
<stop offset="0.9" stop-color="#C8C7C7"/>
</linearGradient>
<linearGradient id="paint3_linear_3726_8458" x1="112.777" y1="22.0331" x2="72.3414" y2="-5.18694" gradientUnits="userSpaceOnUse">
<stop offset="0.03" stop-color="#676767"/>
<stop offset="0.09" stop-color="#7E7E7D"/>
<stop offset="0.16" stop-color="#929291"/>
<stop offset="0.23" stop-color="#9E9E9D"/>
<stop offset="0.29" stop-color="#A2A2A1"/>
<stop offset="0.35" stop-color="#9A9A99"/>
<stop offset="0.44" stop-color="#838383"/>
<stop offset="0.52" stop-color="#676767"/>
<stop offset="0.53" stop-color="#6D6D6D"/>
<stop offset="0.59" stop-color="#979797"/>
<stop offset="0.64" stop-color="#B1B1B1"/>
<stop offset="0.67" stop-color="#BBBBBB"/>
<stop offset="0.71" stop-color="#B9B9B9"/>
<stop offset="0.73" stop-color="#B2B3B4"/>
<stop offset="0.74" stop-color="#A6A8AA"/>
<stop offset="0.75" stop-color="#95999C"/>
<stop offset="0.76" stop-color="#868B8F"/>
<stop offset="0.79" stop-color="#8B9093"/>
<stop offset="0.83" stop-color="#9A9DA0"/>
<stop offset="0.87" stop-color="#B3B4B5"/>
<stop offset="0.9" stop-color="#C8C7C7"/>
<stop offset="0.92" stop-color="#C3C2C3"/>
<stop offset="0.95" stop-color="#B4B4B6"/>
<stop offset="0.98" stop-color="#9B9EA0"/>
<stop offset="1" stop-color="#868B8F"/>
</linearGradient>
</defs>
</svg>
