<svg width="48" height="48" viewBox="0 0 48 48" fill="none" xmlns="http://www.w3.org/2000/svg">
<mask id="mask0_3071_12488" style="mask-type:luminance" maskUnits="userSpaceOnUse" x="0" y="0" width="48" height="48">
<path d="M48 0.00390625H0V48H48V0.00390625Z" fill="white"/>
</mask>
<g mask="url(#mask0_3071_12488)">
<mask id="mask1_3071_12488" style="mask-type:luminance" maskUnits="userSpaceOnUse" x="0" y="0" width="48" height="48">
<path d="M47.9785 0.0742188H0.078125V47.9707H47.9785V0.0742188Z" fill="white"/>
</mask>
<g mask="url(#mask1_3071_12488)">
<path d="M46.1451 22.8598V22.9059L46.0567 21.7322V21.7783L45.9147 20.6277L45.9226 20.6698L45.7192 19.5306L45.7267 19.5804L45.466 18.4644L45.4776 18.5066L45.1709 17.4174L45.1862 17.4595L44.8255 16.3857L44.8409 16.4316L44.4266 15.3884L44.442 15.4268L43.9779 14.4026L43.997 14.441L43.4948 13.4515L43.5176 13.4938L42.9614 12.5272L42.9846 12.5617L42.3861 11.6259L42.4131 11.6643L41.7647 10.7629L41.7879 10.7936L41.1051 9.92299L41.1321 9.95745L40.4074 9.12146L40.4377 9.15591L39.6747 8.35438L39.7055 8.38116L38.9035 7.61782L38.9384 7.64853L38.102 6.92359L38.1327 6.95056L37.2623 6.26401L37.2967 6.29079L36.3952 5.65031L36.43 5.67334L35.494 5.075L35.5285 5.09803L34.5621 4.54182L34.6003 4.56486L33.6033 4.05472L33.6452 4.07401L32.6253 3.61762L32.6598 3.63297L31.6163 3.21872L31.6624 3.23408L30.5885 2.87357L30.6271 2.885L29.5376 2.57056L29.5874 2.58199L28.4675 2.32879L28.5098 2.33647L27.3783 2.13327L27.4206 2.14095L26.2662 1.99132H26.3123L25.1422 1.90704H25.1883L24.0032 1.88008H24.0493L22.8642 1.91079H22.9103L21.7364 1.99525H21.7825L20.6319 2.14095L20.6742 2.13327L19.5348 2.33647L19.5772 2.32879L18.461 2.58592L18.5108 2.57431L17.4216 2.88893L17.4602 2.87732L16.386 3.23782L16.4283 3.22247L15.3852 3.63297L15.4272 3.61369L14.4031 4.07775L14.4455 4.05865L13.4559 4.56879L13.4941 4.5495L12.5278 5.10571L12.5622 5.08267L11.6266 5.68102L11.6611 5.65798L10.7595 6.29847L10.794 6.27169L9.92353 6.95824L9.95424 6.93127L9.11825 7.65621L9.15271 7.6255L8.35117 8.38883L8.38188 8.36187L7.61855 9.16359L7.64927 9.12895L6.92414 9.96513L6.95111 9.93442L6.26456 10.8051L6.29152 10.7706L5.65105 11.672L5.67389 11.6373L5.07574 12.5733L5.09859 12.5387L4.54238 13.5052L4.5656 13.4668L4.05546 14.464L4.07457 14.4219L3.61799 15.4422L3.63335 15.4075L3.2191 16.4509L3.23445 16.4048L2.87414 17.4786L2.88575 17.4404L2.57113 18.5296L2.58274 18.4798L2.32954 19.5997L2.33703 19.5576L2.13403 20.6889L2.14152 20.6468L1.99207 21.8011V21.7552L1.90742 22.9212V22.8752L1.88083 24.0602V24.0142L1.91154 25.1994V25.1534L1.99956 26.3231V26.2772L2.14152 27.4316L2.13403 27.3894L2.33703 28.5208L2.32954 28.4786L2.58274 29.5948L2.57113 29.5487L2.88575 30.6456L2.87414 30.6034L3.23445 31.6773L3.2191 31.6351L3.6296 32.6785L3.6105 32.6361L4.07457 33.6564L4.05546 33.618L4.5656 34.6153L4.54238 34.5769L5.09859 35.5434L5.07574 35.5089L5.67389 36.4448L5.65105 36.4064L6.29152 37.3077L6.26456 37.2733L6.95111 38.1439L6.92414 38.1132L7.64927 38.9492L7.61855 38.9147L8.38188 39.7163L8.35117 39.6895L9.15271 40.4528L9.11825 40.4221L9.95424 41.1471L9.91978 41.1201L10.7902 41.8029L10.7595 41.7799L11.6611 42.4241L11.6225 42.3973L12.5585 42.9956L12.524 42.9726L13.4904 43.5288L13.4522 43.5058L14.4492 44.0159L14.4073 43.9966L15.4272 44.453L15.3927 44.4377L16.4362 44.8519L16.3901 44.8366L17.464 45.1971L17.4254 45.1856L18.5149 45.5001L18.4648 45.4887L19.585 45.7419L19.5427 45.7342L20.6742 45.9374L20.6319 45.9297L21.7863 46.0793H21.7402L22.9103 46.1636H22.8642L24.0493 46.1906H24.0032L25.1883 46.1599H25.1422L26.3123 46.0716H26.2662L27.4206 45.9297L27.3783 45.9374L28.5098 45.7342L28.4637 45.7456L29.5799 45.4847L29.5417 45.4963L30.6384 45.1894L30.5923 45.2047L31.6665 44.8442L31.6204 44.8596L32.6635 44.4453L32.6253 44.4607L33.6452 43.9966L33.6108 44.012L34.6082 43.5095L34.5659 43.5326L35.5322 42.9764L35.4978 42.9994L36.4338 42.401L36.3952 42.428L37.2967 41.7836L37.266 41.8066L38.1365 41.124L38.102 41.1508L38.9384 40.4259L38.9035 40.4566L39.7055 39.6934L39.6747 39.7202L40.4377 38.9187L40.4074 38.9531L41.1321 38.1169L41.1051 38.1516L41.7879 37.2809L41.7647 37.3116L42.4131 36.4103L42.3861 36.4524L42.9846 35.5166L42.9614 35.5511L43.5176 34.5845L43.4948 34.6229L44.0049 33.6257L43.9854 33.668L44.442 32.6477L44.4266 32.6822L44.8409 31.6391L44.8255 31.685L45.1862 30.6111L45.1746 30.6495L45.4892 29.5601L45.4739 29.6101L45.7308 28.4902L45.723 28.5324L45.9263 27.4008L45.9185 27.443L46.0683 26.2886V26.3347L46.1526 25.1648V25.2108L46.1795 24.0258V24.0718L46.1488 22.8866L46.1451 22.8598ZM47.9744 24.0258L47.9437 25.2569L47.8515 26.4727L47.6983 27.6731L47.4875 28.8468L47.2227 30.0128L46.8968 31.148L46.5208 32.2642L46.0874 33.3497L45.6155 34.4081L45.0862 35.4438L44.5072 36.4487L43.8858 37.4227L43.2146 38.3587L42.509 39.2638L41.7572 40.1345L40.9632 40.9667L40.1309 41.7606L39.2605 42.5123L38.3552 43.2181L37.4196 43.8893L36.4454 44.5105L35.4405 45.0898L34.4048 45.6153L33.3501 46.0947L32.2647 46.528L31.1485 46.9039L30.0095 47.2223L28.851 47.4946L27.6738 47.7054L26.4734 47.859L25.2613 47.951L24.0302 47.9817L22.799 47.951L21.587 47.859L20.3866 47.7054L19.2127 47.4946L18.0468 47.2299L16.9115 46.9039L15.7953 46.528L14.7103 46.0984L13.6514 45.6229L12.6158 45.0935L11.6112 44.5145L10.637 43.8931L9.70105 43.2219L8.79576 42.5162L7.92531 41.7645L7.09306 40.9705L6.29902 40.1382L5.5473 39.2715L4.83415 38.3664L4.16671 37.4304L3.54533 36.4601L2.96628 35.4552L2.43704 34.4197L1.95761 33.3611L1.53175 32.2756L1.1557 31.1634L0.829846 30.0244L0.565039 28.8661L0.354168 27.6924L0.200977 26.4918L0.108838 25.276L0.078125 24.0449L0.108838 22.8137L0.200977 21.5979L0.354168 20.3975L0.565039 19.2238L0.829846 18.0579L1.1557 16.9226L1.53175 15.8064L1.96136 14.721L2.43704 13.6625L2.96628 12.6269L3.54533 11.622L4.16671 10.6517L4.83415 9.71587L5.5473 8.81077L6.29902 7.94387L7.09306 7.11162L7.92531 6.31776L8.79202 5.56603L9.6973 4.85251L10.6329 4.18525L11.6071 3.56387L12.6083 2.98481L13.6402 2.45539L14.7062 1.97596L15.7916 1.55028L16.904 1.17442L18.0393 0.848377L19.2015 0.583757L20.3824 0.37663L21.5754 0.223251L22.7949 0.131112L24.0261 0.100586L25.2576 0.131112L26.4692 0.223251L27.6697 0.37663L28.8435 0.583757L30.0095 0.848377L31.1447 1.17442L32.2609 1.55028L33.3464 1.97989L34.4048 2.45539L35.4405 2.98481L36.4454 3.56387L37.4196 4.18525L38.3552 4.85251L39.2605 5.56603L40.1272 6.31776L40.9594 7.11162L41.7535 7.94387L42.5052 8.81451L43.2109 9.71961L43.882 10.6556L44.5034 11.6296L45.0825 12.6346L45.608 13.6663L46.0874 14.7287L46.5208 15.8141L46.8968 16.9303L47.2152 18.0616L47.4875 19.2199L47.6983 20.4012L47.8515 21.5979L47.9437 22.8177L47.9744 24.0488V24.0258Z" fill="#195A7D"/>
</g>
<path d="M20.7967 8.05849C21.2416 7.61358 21.9055 7.71708 22.477 7.70941C23.7772 7.71708 25.0657 7.69024 26.3659 7.71708C26.8492 7.69024 27.1637 8.31541 26.8607 8.68361C26.6996 8.97894 26.3314 8.94815 26.0438 8.95966C24.5557 8.94048 23.0752 8.94049 21.587 8.96733C21.5026 9.85715 21.8438 11.0348 20.9233 11.6139C19.9837 12.0013 18.9787 12.2504 18.0966 12.772C17.6018 13.1057 16.9194 13.2093 16.4093 12.8565C15.9337 12.496 15.5655 12.0319 15.1283 11.633C13.9432 12.7721 12.7657 13.9189 11.6457 15.1233C12.0254 15.5106 12.4319 15.8712 12.7847 16.2816C13.1453 16.7188 13.1836 17.3823 12.8806 17.8732C12.4626 18.6326 12.1135 19.4304 11.8757 20.255C11.7913 20.512 11.7148 20.8341 11.4195 20.9185C10.9823 21.1256 10.4604 20.673 10.5831 20.2166C10.867 19.135 11.3233 18.1033 11.8641 17.1329C11.4077 16.5154 10.5834 16.1165 10.4607 15.3111C10.3648 14.8355 10.5757 14.3523 10.9247 14.0301C11.9871 12.9677 13.0496 11.9053 14.1196 10.8429C14.5952 10.329 15.4655 10.2753 15.9871 10.7393C16.386 11.0999 16.7351 11.4988 17.134 11.8478C18.1389 11.2802 19.2206 10.862 20.3098 10.5092C20.375 9.70374 20.0719 8.66822 20.793 8.05455L20.7967 8.05849Z" fill="#54C8E8"/>
<path d="M20.7967 8.05849C21.2416 7.61358 21.9055 7.71708 22.477 7.70941C23.7772 7.71708 25.0657 7.69024 26.3659 7.71708C26.8492 7.69024 27.1637 8.31541 26.8607 8.68361C26.6996 8.97894 26.3314 8.94815 26.0438 8.95966C24.5557 8.94048 23.0752 8.94049 21.587 8.96733C21.5026 9.85715 21.8438 11.0348 20.9233 11.6139C19.9837 12.0013 18.9787 12.2504 18.0966 12.772C17.6018 13.1057 16.9194 13.2093 16.4093 12.8565C15.9337 12.496 15.5655 12.0319 15.1283 11.633C13.9432 12.7721 12.7657 13.9189 11.6457 15.1233C12.0254 15.5106 12.4319 15.8712 12.7847 16.2816C13.1453 16.7188 13.1836 17.3823 12.8806 17.8732C12.4626 18.6326 12.1135 19.4304 11.8757 20.255C11.7913 20.512 11.7148 20.8341 11.4195 20.9185C10.9823 21.1256 10.4604 20.673 10.5831 20.2166C10.867 19.135 11.3233 18.1033 11.8641 17.1329C11.4077 16.5154 10.5834 16.1165 10.4607 15.3111C10.3648 14.8355 10.5757 14.3523 10.9247 14.0301C11.9871 12.9677 13.0496 11.9053 14.1196 10.8429C14.5952 10.329 15.4655 10.2753 15.9871 10.7393C16.386 11.0999 16.7351 11.4988 17.134 11.8478C18.1389 11.2802 19.2206 10.862 20.3098 10.5092C20.375 9.70374 20.0719 8.66822 20.793 8.05455L20.7967 8.05849Z" stroke="#54C8E8" stroke-width="0.29" stroke-miterlimit="10"/>
<path d="M23.7633 14.4595C24.1314 14.2793 24.6378 14.563 24.6378 14.9811C24.703 15.3991 24.703 16.0052 24.1929 16.1471C23.2532 16.3734 23.1035 14.8085 23.767 14.4595H23.7633Z" fill="#54C8E8"/>
<path d="M23.7633 14.4595C24.1314 14.2793 24.6378 14.563 24.6378 14.9811C24.703 15.3991 24.703 16.0052 24.1929 16.1471C23.2532 16.3734 23.1035 14.8085 23.767 14.4595H23.7633Z" stroke="#54C8E8" stroke-width="0.29" stroke-miterlimit="10"/>
<path d="M20.322 15.1814C21.0047 14.8593 21.3653 15.7222 21.4228 16.2515C21.4228 16.8192 20.5789 17.0569 20.2951 16.5736C20.0381 16.1748 19.7544 15.446 20.322 15.1775V15.1814Z" fill="#54C8E8"/>
<path d="M20.322 15.1814C21.0047 14.8593 21.3653 15.7222 21.4228 16.2515C21.4228 16.8192 20.5789 17.0569 20.2951 16.5736C20.0381 16.1748 19.7544 15.446 20.322 15.1775V15.1814Z" stroke="#54C8E8" stroke-width="0.29" stroke-miterlimit="10"/>
<path d="M27.1543 15.1889C27.4304 15.0355 27.8178 15.1313 27.9712 15.4152C28.2282 15.7949 27.9137 16.2321 27.745 16.5811C27.4496 17.0644 26.6249 16.8382 26.6172 16.259C26.7016 15.8716 26.8167 15.4037 27.158 15.1889H27.1543Z" fill="#54C8E8"/>
<path d="M27.1543 15.1889C27.4304 15.0355 27.8178 15.1313 27.9712 15.4152C28.2282 15.7949 27.9137 16.2321 27.745 16.5811C27.4496 17.0644 26.6249 16.8382 26.6172 16.259C26.7016 15.8716 26.8167 15.4037 27.158 15.1889H27.1543Z" stroke="#54C8E8" stroke-width="0.29" stroke-miterlimit="10"/>
<path d="M17.5426 17.0871C17.999 16.8876 18.3596 17.2943 18.6127 17.6088C18.9464 17.931 18.7469 18.5752 18.279 18.6443C17.8341 18.721 17.5386 18.303 17.2932 18.0077C17.0477 17.7124 17.1975 17.2213 17.5389 17.0871H17.5426Z" fill="#54C8E8"/>
<path d="M17.5426 17.0871C17.999 16.8876 18.3596 17.2943 18.6127 17.6088C18.9464 17.931 18.7469 18.5752 18.279 18.6443C17.8341 18.721 17.5386 18.303 17.2932 18.0077C17.0477 17.7124 17.1975 17.2213 17.5389 17.0871H17.5426Z" stroke="#54C8E8" stroke-width="0.29" stroke-miterlimit="10"/>
<path d="M29.9799 17.0873C30.4632 16.7651 31.1269 17.4364 30.8047 17.912C30.5784 18.215 30.3098 18.5754 29.9148 18.6522C29.4698 18.7174 29.1094 18.1957 29.2896 17.7969C29.4622 17.5207 29.7075 17.2752 29.9837 17.0873H29.9799Z" fill="#54C8E8"/>
<path d="M29.9799 17.0873C30.4632 16.7651 31.1269 17.4364 30.8047 17.912C30.5784 18.215 30.3098 18.5754 29.9148 18.6522C29.4698 18.7174 29.1094 18.1957 29.2896 17.7969C29.4622 17.5207 29.7075 17.2752 29.9837 17.0873H29.9799Z" stroke="#54C8E8" stroke-width="0.29" stroke-miterlimit="10"/>
<path d="M15.3683 20.1861C15.6828 19.6376 16.3732 19.9675 16.7721 20.2245C17.0674 20.4316 16.9907 20.8038 16.914 21.1068C16.3464 21.6207 14.9694 21.0222 15.3683 20.1861Z" fill="#54C8E8"/>
<path d="M15.3683 20.1861C15.6828 19.6376 16.3732 19.9675 16.7721 20.2245C17.0674 20.4316 16.9907 20.8038 16.914 21.1068C16.3464 21.6207 14.9694 21.0222 15.3683 20.1861Z" stroke="#54C8E8" stroke-width="0.29" stroke-miterlimit="10"/>
<path d="M31.6809 20.006C32.0798 19.7414 32.7241 19.9024 32.751 20.4317C32.8085 20.9917 32.1836 21.1795 31.7655 21.3138C31.3206 21.448 30.9024 20.9457 31.0558 20.5276C31.1325 20.2323 31.4354 20.1211 31.6809 20.006Z" fill="#54C8E8"/>
<path d="M31.6809 20.006C32.0798 19.7414 32.7241 19.9024 32.751 20.4317C32.8085 20.9917 32.1836 21.1795 31.7655 21.3138C31.3206 21.448 30.9024 20.9457 31.0558 20.5276C31.1325 20.2323 31.4354 20.1211 31.6809 20.006Z" stroke="#54C8E8" stroke-width="0.29" stroke-miterlimit="10"/>
<path d="M14.8487 24.4931C14.423 24.1786 14.5919 23.4039 15.1442 23.3732C15.5431 23.3463 16.1108 23.2582 16.3102 23.7223C16.4713 23.9984 16.2718 24.29 16.1375 24.5277C15.7118 24.5929 15.2361 24.7003 14.8487 24.4894V24.4931Z" fill="#54C8E8"/>
<path d="M14.8487 24.4931C14.423 24.1786 14.5919 23.4039 15.1442 23.3732C15.5431 23.3463 16.1108 23.2582 16.3102 23.7223C16.4713 23.9984 16.2718 24.29 16.1375 24.5277C15.7118 24.5929 15.2361 24.7003 14.8487 24.4894V24.4931Z" stroke="#54C8E8" stroke-width="0.29" stroke-miterlimit="10"/>
<path d="M31.9982 23.4421C32.3127 23.2887 32.6928 23.3577 33.0226 23.4037C33.4867 23.5264 33.6017 24.2474 33.1837 24.4929C32.8692 24.6923 32.4548 24.6272 32.102 24.5773C31.6072 24.4239 31.5342 23.6683 31.9982 23.4381V23.4421Z" fill="#54C8E8"/>
<path d="M31.9982 23.4421C32.3127 23.2887 32.6928 23.3577 33.0226 23.4037C33.4867 23.5264 33.6017 24.2474 33.1837 24.4929C32.8692 24.6923 32.4548 24.6272 32.102 24.5773C31.6072 24.4239 31.5342 23.6683 31.9982 23.4381V23.4421Z" stroke="#54C8E8" stroke-width="0.29" stroke-miterlimit="10"/>
<path d="M16.1301 26.7029C16.529 26.5035 17.0508 26.8256 17.0201 27.2706C17.0009 27.7653 16.4716 27.9263 16.0919 28.0567C15.6355 28.2562 15.1523 27.7155 15.3249 27.2782C15.4399 26.9292 15.8272 26.8217 16.1301 26.699V26.7029Z" fill="#54C8E8"/>
<path d="M16.1301 26.7029C16.529 26.5035 17.0508 26.8256 17.0201 27.2706C17.0009 27.7653 16.4716 27.9263 16.0919 28.0567C15.6355 28.2562 15.1523 27.7155 15.3249 27.2782C15.4399 26.9292 15.8272 26.8217 16.1301 26.699V26.7029Z" stroke="#54C8E8" stroke-width="0.29" stroke-miterlimit="10"/>
<path d="M31.1491 27.616C30.827 27.1902 31.2643 26.5153 31.7859 26.6687C32.1004 26.7723 32.4798 26.868 32.6601 27.171C32.8135 27.4165 32.668 27.6926 32.6028 27.9381C32.1195 28.2142 31.5134 27.9957 31.1529 27.616H31.1491Z" fill="#54C8E8"/>
<path d="M31.1491 27.616C30.827 27.1902 31.2643 26.5153 31.7859 26.6687C32.1004 26.7723 32.4798 26.868 32.6601 27.171C32.8135 27.4165 32.668 27.6926 32.6028 27.9381C32.1195 28.2142 31.5134 27.9957 31.1529 27.616H31.1491Z" stroke="#54C8E8" stroke-width="0.29" stroke-miterlimit="10"/>
<path d="M36.333 27.3397C36.6283 26.7912 37.5946 27.1209 37.4604 27.7461C37.1957 28.8468 36.7204 29.8979 36.1719 30.8874C36.5325 31.3324 36.9886 31.6928 37.3491 32.1377C37.7557 32.6593 37.6637 33.4571 37.1881 33.9097C36.1065 34.999 35.0173 36.092 33.9243 37.1735C33.4794 37.6568 32.6548 37.7527 32.1332 37.3346C31.6883 36.9856 31.3352 36.5368 30.9095 36.1686C29.9046 36.7286 28.831 37.1545 27.7341 37.4958C27.6766 38.2936 27.9524 39.2485 27.3464 39.8967C26.8632 40.4375 26.0846 40.3032 25.4287 40.3224C24.14 40.2955 22.8399 40.3608 21.5589 40.2956C20.8762 40.1805 20.9914 39.0645 21.6817 39.0721C23.2849 39.053 24.8881 39.118 26.4913 39.0452C26.5489 38.3433 26.3493 37.584 26.6715 36.9205C27.0243 36.2186 27.8872 36.1801 28.5315 35.904C29.2602 35.6662 29.9087 35.2214 30.6297 34.9644C31.6729 34.7458 32.2597 35.8005 32.9347 36.3874C34.1198 35.2482 35.2973 34.1014 36.4173 32.8971C36.0376 32.5097 35.6194 32.1377 35.2704 31.7311C34.883 31.2555 34.9023 30.5651 35.2322 30.0627C35.7078 29.2189 35.9991 28.2717 36.3405 27.3397H36.333Z" fill="#54C8E8"/>
<path d="M36.333 27.3397C36.6283 26.7912 37.5946 27.1209 37.4604 27.7461C37.1957 28.8468 36.7204 29.8979 36.1719 30.8874C36.5325 31.3324 36.9886 31.6928 37.3491 32.1377C37.7557 32.6593 37.6637 33.4571 37.1881 33.9097C36.1065 34.999 35.0173 36.092 33.9243 37.1735C33.4794 37.6568 32.6548 37.7527 32.1332 37.3346C31.6883 36.9856 31.3352 36.5368 30.9095 36.1686C29.9046 36.7286 28.831 37.1545 27.7341 37.4958C27.6766 38.2936 27.9524 39.2485 27.3464 39.8967C26.8632 40.4375 26.0846 40.3032 25.4287 40.3224C24.14 40.2955 22.8399 40.3608 21.5589 40.2956C20.8762 40.1805 20.9914 39.0645 21.6817 39.0721C23.2849 39.053 24.8881 39.118 26.4913 39.0452C26.5489 38.3433 26.3493 37.584 26.6715 36.9205C27.0243 36.2186 27.8872 36.1801 28.5315 35.904C29.2602 35.6662 29.9087 35.2214 30.6297 34.9644C31.6729 34.7458 32.2597 35.8005 32.9347 36.3874C34.1198 35.2482 35.2973 34.1014 36.4173 32.8971C36.0376 32.5097 35.6194 32.1377 35.2704 31.7311C34.883 31.2555 34.9023 30.5651 35.2322 30.0627C35.7078 29.2189 35.9991 28.2717 36.3405 27.3397H36.333Z" stroke="#54C8E8" stroke-width="0.29" stroke-miterlimit="10"/>
<path d="M17.9903 29.3419C18.4275 29.1884 18.8992 29.6256 18.7765 30.0705C18.5387 30.619 17.8942 31.2174 17.2959 30.7533C16.9545 30.155 17.484 29.595 17.9903 29.3419Z" fill="#54C8E8"/>
<path d="M17.9903 29.3419C18.4275 29.1884 18.8992 29.6256 18.7765 30.0705C18.5387 30.619 17.8942 31.2174 17.2959 30.7533C16.9545 30.155 17.484 29.595 17.9903 29.3419Z" stroke="#54C8E8" stroke-width="0.29" stroke-miterlimit="10"/>
<path d="M29.646 29.3609C30.1407 29.173 30.5091 29.664 30.7738 30.0053C31.0576 30.385 30.6893 30.9718 30.2329 30.9334C29.8532 30.9143 29.6152 30.573 29.3774 30.3083C29.1205 30.013 29.274 29.4913 29.6422 29.3609H29.646Z" fill="#54C8E8"/>
<path d="M29.646 29.3609C30.1407 29.173 30.5091 29.664 30.7738 30.0053C31.0576 30.385 30.6893 30.9718 30.2329 30.9334C29.8532 30.9143 29.6152 30.573 29.3774 30.3083C29.1205 30.013 29.274 29.4913 29.6422 29.3609H29.646Z" stroke="#54C8E8" stroke-width="0.29" stroke-miterlimit="10"/>
<path d="M30.8921 11.8706C31.5556 11.4142 31.9735 10.4861 32.8633 10.44C33.5192 10.3633 33.9834 10.8964 34.39 11.3144C35.3182 12.2541 36.2693 13.1822 37.1898 14.1219C37.6653 14.5783 37.7689 15.3723 37.3508 15.8939C36.998 16.3388 36.5453 16.6994 36.1732 17.1366C36.7409 18.1415 37.1704 19.2153 37.5003 20.3123C38.0794 20.3123 38.6585 20.2664 39.2262 20.3392C39.9012 20.4735 40.3922 21.1446 40.327 21.8273C40.3193 23.3346 40.3463 24.8534 40.3195 26.3607C40.3655 27.0549 39.23 27.147 39.1149 26.495C39.0306 24.8458 39.1421 23.1926 39.0692 21.5434C38.329 21.4667 37.4926 21.7236 36.8291 21.3056C36.154 20.8683 36.1733 19.9863 35.8511 19.3343C35.6248 18.6324 35.157 18.034 34.9691 17.3322C34.8348 16.3273 35.8434 15.7866 36.4111 15.1231C35.2835 13.9264 34.1253 12.7604 32.921 11.6328C32.3534 12.1161 31.9353 12.864 31.1644 13.0443C30.5277 13.1977 29.9982 12.7297 29.4459 12.4958C28.7824 12.1467 28.0423 11.9664 27.3481 11.6903C26.8188 11.3758 27.1295 10.4668 27.747 10.5627C28.8477 10.8274 29.8988 11.3222 30.8883 11.8706H30.8921Z" fill="#195A7D"/>
<path d="M30.8921 11.8706C31.5556 11.4142 31.9735 10.4861 32.8633 10.44C33.5192 10.3633 33.9834 10.8964 34.39 11.3144C35.3182 12.2541 36.2693 13.1822 37.1898 14.1219C37.6653 14.5783 37.7689 15.3723 37.3508 15.8939C36.998 16.3388 36.5453 16.6994 36.1732 17.1366C36.7409 18.1415 37.1704 19.2153 37.5003 20.3123C38.0794 20.3123 38.6585 20.2664 39.2262 20.3392C39.9012 20.4735 40.3922 21.1446 40.327 21.8273C40.3193 23.3346 40.3463 24.8534 40.3195 26.3607C40.3655 27.0549 39.23 27.147 39.1149 26.495C39.0306 24.8458 39.1421 23.1926 39.0692 21.5434C38.329 21.4667 37.4926 21.7236 36.8291 21.3056C36.154 20.8683 36.1733 19.9863 35.8511 19.3343C35.6248 18.6324 35.157 18.034 34.9691 17.3322C34.8348 16.3273 35.8434 15.7866 36.4111 15.1231C35.2835 13.9264 34.1253 12.7604 32.921 11.6328C32.3534 12.1161 31.9353 12.864 31.1644 13.0443C30.5277 13.1977 29.9982 12.7297 29.4459 12.4958C28.7824 12.1467 28.0423 11.9664 27.3481 11.6903C26.8188 11.3758 27.1295 10.4668 27.747 10.5627C28.8477 10.8274 29.8988 11.3222 30.8883 11.8706H30.8921Z" stroke="#195A7D" stroke-width="0.29" stroke-miterlimit="10"/>
<path d="M7.72162 21.8282C7.68327 21.5137 7.86362 21.1531 8.1973 21.0879C8.55782 20.9843 8.9567 21.2874 8.96437 21.6671C8.96437 23.2703 8.92595 24.8619 8.98348 26.4651C9.83877 26.561 10.9356 26.2197 11.5454 27.0251C11.9328 27.6311 12.0017 28.3906 12.3316 29.0349C12.577 29.7637 13.2713 30.4194 13.0335 31.2364C12.8072 31.9459 12.1055 32.3563 11.6375 32.9048C12.3317 33.6911 13.1065 34.3853 13.8275 35.1332C14.2648 35.5512 14.6522 36.0229 15.1354 36.3834C15.6647 35.9078 16.075 35.2176 16.7846 34.9875C17.4865 34.7689 18.0734 35.2905 18.6832 35.5551C19.3275 35.8888 20.0295 36.0575 20.693 36.3145C21.2146 36.629 20.9113 37.5302 20.3054 37.4535C19.1969 37.1774 18.1425 36.7134 17.1453 36.1535C16.7004 36.5025 16.3398 36.9587 15.9025 37.3193C15.3732 37.7181 14.5638 37.653 14.1189 37.1659C13.0489 36.115 11.9941 35.041 10.924 33.9786C10.621 33.6833 10.3832 33.296 10.4292 32.8587C10.4484 31.9574 11.3768 31.5202 11.86 30.8759C11.3116 29.8902 10.8629 28.8469 10.56 27.7461C10.0192 27.6617 9.4707 27.7385 8.92992 27.6886C8.26639 27.6311 7.69859 27.0252 7.70626 26.3502C7.69859 24.8428 7.70646 23.3354 7.71413 21.8166L7.72162 21.8282Z" fill="#195A7D"/>
<path d="M7.72162 21.8282C7.68327 21.5137 7.86362 21.1531 8.1973 21.0879C8.55782 20.9843 8.9567 21.2874 8.96437 21.6671C8.96437 23.2703 8.92595 24.8619 8.98348 26.4651C9.83877 26.561 10.9356 26.2197 11.5454 27.0251C11.9328 27.6311 12.0017 28.3906 12.3316 29.0349C12.577 29.7637 13.2713 30.4194 13.0335 31.2364C12.8072 31.9459 12.1055 32.3563 11.6375 32.9048C12.3317 33.6911 13.1065 34.3853 13.8275 35.1332C14.2648 35.5512 14.6522 36.0229 15.1354 36.3834C15.6647 35.9078 16.075 35.2176 16.7846 34.9875C17.4865 34.7689 18.0734 35.2905 18.6832 35.5551C19.3275 35.8888 20.0295 36.0575 20.693 36.3145C21.2146 36.629 20.9113 37.5302 20.3054 37.4535C19.1969 37.1774 18.1425 36.7134 17.1453 36.1535C16.7004 36.5025 16.3398 36.9587 15.9025 37.3192C15.3732 37.7181 14.5638 37.653 14.1189 37.1659C13.0489 36.115 11.9941 35.041 10.924 33.9786C10.621 33.6833 10.3832 33.296 10.4292 32.8587C10.4484 31.9574 11.3768 31.5202 11.86 30.8759C11.3116 29.8902 10.8629 28.8469 10.56 27.7461C10.0192 27.6617 9.4707 27.7385 8.92992 27.6886C8.26639 27.6311 7.69859 27.0252 7.70626 26.3502C7.69859 24.8428 7.70646 23.3354 7.71413 21.8166L7.72162 21.8282Z" stroke="#195A7D" stroke-width="0.29" stroke-miterlimit="10"/>
<path d="M22.0683 18.6981C22.191 18.6521 22.3254 18.652 22.4481 18.652H25.9842C26.3639 18.6329 26.6936 19.0318 26.5517 19.4C26.1259 20.566 25.6697 21.7128 25.2325 22.8826C25.1558 23.1012 25.0253 23.3275 25.0905 23.5768C25.1557 23.8223 25.3935 23.9948 25.6505 24.0025C26.2373 24.0217 26.8278 23.9948 27.4146 24.0102C27.8212 24.0102 28.0899 24.5395 27.8521 24.8731C26.41 26.9021 24.7684 30.4038 24.0665 31.4738C23.9438 31.6733 23.8592 31.75 23.7058 31.9111C23.4872 32.1298 23.2993 32.3292 23.1766 32.2793C23.0922 32.241 23.0615 31.9763 23.0807 31.4431C23.0884 31.1401 23.1193 30.9407 23.1193 30.9407C23.2995 30.0394 23.4604 29.138 23.6407 28.2482C23.6675 28.0871 23.7059 27.9068 23.6407 27.7534C23.5448 27.5348 23.3187 27.3853 23.0732 27.3929C22.2755 27.3853 21.4697 27.3929 20.672 27.3929C20.3115 27.4006 20.0161 27.0248 20.112 26.6719C20.6413 24.1597 21.1746 21.6553 21.7039 19.1431C21.7422 18.9436 21.8843 18.7825 22.0646 18.6981H22.0683Z" fill="#195A7D"/>
<path d="M22.0683 18.6981C22.191 18.6521 22.3254 18.652 22.4481 18.652H25.9842C26.3639 18.6329 26.6936 19.0318 26.5517 19.4C26.1259 20.566 25.6697 21.7128 25.2325 22.8826C25.1558 23.1012 25.0253 23.3275 25.0905 23.5768C25.1557 23.8223 25.3935 23.9948 25.6505 24.0025C26.2373 24.0217 26.8278 23.9948 27.4146 24.0102C27.8212 24.0102 28.0899 24.5395 27.8521 24.8731C26.41 26.9021 24.7684 30.4038 24.0665 31.4738C23.9438 31.6733 23.8592 31.75 23.7058 31.9111C23.4872 32.1298 23.2993 32.3292 23.1766 32.2793C23.0922 32.241 23.0615 31.9763 23.0807 31.4431C23.0884 31.1401 23.1193 30.9407 23.1193 30.9407C23.2995 30.0394 23.4604 29.138 23.6407 28.2482C23.6675 28.0871 23.7059 27.9068 23.6407 27.7534C23.5448 27.5348 23.3187 27.3853 23.0732 27.3929C22.2755 27.3853 21.4697 27.3929 20.672 27.3929C20.3115 27.4006 20.0161 27.0248 20.112 26.6719C20.6413 24.1597 21.1746 21.6553 21.7039 19.1431C21.7422 18.9436 21.8843 18.7825 22.0646 18.6981H22.0683Z" stroke="#195A7D" stroke-width="0.29" stroke-miterlimit="10"/>
</g>
</svg>
