<svg width="48" height="48" viewBox="0 0 48 48" fill="none" xmlns="http://www.w3.org/2000/svg">
<mask id="mask0_3071_12547" style="mask-type:luminance" maskUnits="userSpaceOnUse" x="0" y="0" width="48" height="48">
<path d="M47.9786 0.0703125H0.078125V47.9669H47.9786V0.0703125Z" fill="white"/>
</mask>
<g mask="url(#mask0_3071_12547)">
<path d="M46.1475 22.8615V22.9075L46.0596 21.7352V21.7812L45.9178 20.6319L45.9252 20.6739L45.7225 19.5362L45.7299 19.586L45.4695 18.4711L45.4811 18.5133L45.1744 17.4214L45.1897 17.4635L44.8298 16.3909L44.8451 16.4367L44.4313 15.3948L44.4467 15.4331L43.9831 14.4063L44.0022 14.4446L43.5005 13.4523L43.5233 13.4945L42.9677 12.5291L42.9909 12.5635L42.3931 11.6287L42.42 11.6671L41.7724 10.7667L41.7956 10.7974L41.1135 9.92382L41.1405 9.95843L40.4161 9.12318L40.4468 9.1576L39.6806 8.35696L39.7113 8.38371L38.9106 7.62142L38.9451 7.6521L38.11 6.92796L38.1407 6.95471L37.2708 6.26893L37.3052 6.29587L36.4051 5.6561L36.4395 5.67911L35.5049 5.08144L35.5393 5.10444L34.5737 4.54886L34.6122 4.57187L33.6159 4.0623L33.6582 4.08138L32.6391 3.6255L32.6735 3.64084L31.6315 3.22705L31.6775 3.24239L30.6049 2.88229L30.6431 2.89389L29.5514 2.57962L29.6011 2.59121L28.4825 2.3383L28.5244 2.34597L27.3904 2.143L27.4326 2.15049L26.2758 2.00121H26.3215L25.1531 1.91684H25.1991L24.0153 1.89009H24.0613L22.8776 1.92077H22.9236L21.7511 2.00495H21.7971L20.6478 2.15049L20.69 2.143L19.5519 2.34597L19.5942 2.3383L18.4793 2.59495L18.5291 2.58354L17.4373 2.89763L17.4755 2.88622L16.4029 3.24632L16.4451 3.23098L15.4028 3.64084L15.4451 3.62176L14.4185 4.08531L14.4604 4.06604L13.4682 4.57561L13.5067 4.55653L12.5411 5.11211L12.5755 5.0891L11.6409 5.68678L11.6753 5.66377L10.7748 6.30354L10.8096 6.2766L9.93973 6.96238L9.97041 6.93563L9.13535 7.65977L9.16977 7.62909L8.36913 8.39138L8.39981 8.36463L7.63359 9.16527L7.66426 9.13085L6.93995 9.9661L6.96688 9.93542L6.27736 10.8088L6.30392 10.7744L5.66416 11.6748L5.68735 11.6402L5.08949 12.5751L5.11269 12.5405L4.5571 13.5059L4.57992 13.4676L4.07035 14.4637L4.08981 14.4216L3.63374 15.4408L3.64908 15.4062L3.23529 16.4483L3.25063 16.4023L2.89072 17.4749L2.90194 17.4368L2.58804 18.5285L2.59927 18.4787L2.34261 19.6013L2.35047 19.5592L2.14732 20.6893L2.1548 20.6472L2.00552 21.8042V21.7582L1.92134 22.9268V22.8808L1.8944 24.0645V24.0185L1.92508 25.2024V25.1564L2.01338 26.3248V26.279L2.1548 27.4358L2.14732 27.3937L2.35047 28.524L2.34261 28.4819L2.59927 29.5966L2.58804 29.5506L2.90194 30.6464L2.89072 30.6042L3.25063 31.677L3.23529 31.6349L3.64534 32.6768L3.62626 32.6348L4.08981 33.6539L4.07035 33.6155L4.57992 34.6117L4.5571 34.5733L5.11269 35.5388L5.08949 35.5042L5.68735 36.4389L5.66416 36.4008L6.30392 37.3009L6.27736 37.2665L6.96688 38.1401L6.93995 38.1094L7.66426 38.9445L7.63359 38.9101L8.39981 39.7107L8.36913 39.684L9.16977 40.4502L9.13535 40.4195L9.97041 41.1436L9.93599 41.1169L10.8055 41.7987L10.7748 41.7757L11.6753 42.4232L11.6368 42.3964L12.5718 42.9941L12.5373 42.9711L13.5026 43.5265L13.4644 43.5037L14.4604 44.013L14.4185 43.994L15.4376 44.4498L15.4028 44.4345L16.4451 44.8483L16.3991 44.833L17.4718 45.1931L17.4336 45.1816L18.5253 45.4957L18.4756 45.4843L19.5942 45.741L19.5519 45.7333L20.6859 45.9363L20.644 45.9286L21.8008 46.0781H21.7548L22.9236 46.1624H22.8776L24.0613 46.1892H24.0153L25.1991 46.1585H25.1531L26.3215 46.0704H26.2758L27.4326 45.9286L27.3904 45.9363L28.5244 45.7333L28.4787 45.7447L29.5933 45.4843L29.5551 45.4957L30.6509 45.1893L30.6049 45.2046L31.6775 44.8445L31.6315 44.8599L32.6735 44.4461L32.6353 44.4614L33.6545 43.9979L33.62 44.013L34.616 43.5074L34.5737 43.5304L35.5393 42.9748L35.5049 42.9978L36.4395 42.4002L36.4013 42.4271L37.3015 41.7797L37.2708 41.8025L38.1407 41.1206L38.1063 41.1474L38.9413 40.4234L38.9069 40.4541L39.7075 39.6879L39.6769 39.7146L40.4431 38.914L40.4124 38.9484L41.1363 38.1132L41.1098 38.1478L41.7918 37.2742L41.7686 37.3049L42.4163 36.4045L42.3893 36.4466L42.9868 35.5118L42.964 35.5464L43.5196 34.581L43.4964 34.6191L44.0059 33.6232L43.9869 33.6653L44.4429 32.6462L44.4276 32.6808L44.8414 31.6386L44.826 31.6846L45.186 30.6118L45.1744 30.6502L45.4886 29.5583L45.4733 29.6082L45.7299 28.4856L45.7225 28.5277L45.9252 27.3977L45.9178 27.4397L46.067 26.2827V26.3288L46.1516 25.1602V25.2062L46.1782 24.0224V24.0684L46.1475 22.8845V22.8615ZM47.9826 24.0224L47.9519 25.2522L47.8602 26.4666L47.7069 27.6657L47.4962 28.842L47.2317 30.0067L46.9062 31.1407L46.5306 32.2554L46.0977 33.3396L45.6229 34.3971L45.0902 35.4353L44.5118 36.4389L43.8873 37.412L43.2169 38.347L42.512 39.2511L41.7612 40.1208L40.968 40.9521L40.1367 41.7451L39.2668 42.4959L38.3629 43.2047L37.428 43.8752L36.4548 44.4996L35.451 45.0782L34.4169 45.6031L33.3593 46.082L32.275 46.5149L31.1564 46.8903L30.0186 47.2083L28.8618 47.4803L27.6856 47.6909L26.4865 47.8442L25.272 47.9362L24.0423 47.9669L22.8125 47.9362L21.5977 47.8442L20.3986 47.6909L19.2227 47.4803L18.058 47.216L16.924 46.8903L15.8091 46.5149L14.7249 46.0857L13.6676 45.6108L12.6294 45.0782L11.6256 44.4996L10.6525 43.8752L9.7175 43.2047L8.8136 42.4959L7.94374 41.7451L7.11242 40.9521L6.31926 40.1208L5.56838 39.2511L4.85603 38.347L4.18933 37.4083L3.56864 36.4352L2.99023 35.4314L2.46159 34.3971L1.97858 33.3359L1.55357 32.2516L1.17794 31.1407L0.852445 29.999L0.587934 28.8381L0.377298 27.662L0.224278 26.4629L0.132241 25.2483L0.101562 24.0185L0.132241 22.7887L0.224278 21.5743L0.377298 20.3752L0.587934 19.1989L0.852445 18.0305L1.17794 16.8965L1.55357 15.7816L1.9827 14.6974L2.45747 13.6401L2.99023 12.6019L3.56864 11.5981L4.18933 10.6249L4.85603 9.68644L5.56838 8.78216L6.31926 7.91249L7.11242 7.08117L7.94374 6.2882L8.8136 5.53731L9.7175 4.82085L10.6562 4.15434L11.6293 3.53365L12.6331 2.95506L13.6635 2.42641L14.7324 1.94378L15.8166 1.51839L16.9315 1.14295L18.0655 0.817267L19.2264 0.552943L20.4064 0.346048L21.6018 0.192841L22.8237 0.100991L24.0535 0.0703125L25.2833 0.100991L26.4977 0.192841L27.6972 0.346048L28.8731 0.552943L30.0377 0.817267L31.1717 1.14295L32.2866 1.51839L33.3709 1.94752L34.4282 2.42267L35.4664 2.95132L36.4702 3.52972L37.4433 4.15041L38.382 4.81711L39.2863 5.53339L40.1558 6.28427L40.9871 7.07743L41.7802 7.90875L42.5311 8.77842L43.236 9.68251L43.9064 10.6173L44.5308 11.5904L45.1093 12.5942L45.6342 13.6247L46.1131 14.6899L46.5459 15.7739L46.9216 16.8928L47.2433 18.0268L47.5153 19.1838L47.7259 20.3675L47.8793 21.5629L47.9714 22.7811L48.002 24.0108L47.9826 24.0224Z" fill="#195A7D"/>
</g>
<path d="M34.0865 7.38265H34.7685C35.8604 7.58953 36.9216 8.27526 37.2932 9.35563C37.5882 10.2559 37.1208 11.1755 36.6381 11.9072C31.8952 18.945 27.1138 25.9367 22.3249 32.917C22.0108 32.7254 21.7006 32.557 21.375 32.3846C22.6163 29.6147 23.8996 26.8753 25.1485 24.1131C27.3974 19.1518 29.7572 14.248 32.0329 9.30587C32.4237 8.43238 33.0484 7.513 34.0828 7.37891L34.0865 7.38265Z" fill="#195A7D"/>
<path d="M11.055 23.4583C11.4803 22.2553 13.2274 21.6194 14.2426 22.4891C14.8326 23.0216 15.0203 23.8376 15.2655 24.5578C16.0509 27.1668 16.6983 29.8027 17.3419 32.45C17.1044 32.5074 16.7712 32.9059 16.6026 32.5457C15.2847 30.7987 13.9744 29.0555 12.6948 27.2817C12.1738 26.5308 11.6411 25.7915 11.2159 24.987C10.9515 24.5234 11.009 23.964 11.055 23.4583Z" fill="#195A7D"/>
<path d="M17.2037 34.8407C17.8856 34.1089 18.951 33.749 19.9356 33.9405C20.8857 34.1129 21.7359 34.7449 22.1343 35.6299C22.6286 36.6643 22.4677 37.9631 21.7168 38.8366C21.2034 39.4802 20.4181 39.8212 19.6097 39.9285H19.1731C18.0544 39.8136 16.993 39.0933 16.5946 38.0206C16.1578 36.9594 16.4145 35.6683 17.1999 34.8446L17.2037 34.8407Z" fill="#54C8E8"/>
<path d="M25.3221 37.8745C24.8471 38.1006 24.7321 38.8132 25.1152 39.1733C25.506 39.6369 26.3567 39.4377 26.4984 38.8516C26.7819 38.1888 25.9274 37.5144 25.3221 37.8745ZM25.2073 37.7713C25.8701 37.3345 26.8584 37.978 26.6784 38.7672C26.5941 39.4875 25.6058 39.8592 25.0771 39.3535C24.5752 38.955 24.6517 38.0816 25.211 37.7713H25.2073Z" fill="#195A7D"/>
<path d="M25.5659 38.2731C25.3935 38.4915 25.8304 38.5759 25.9453 38.4533C26.1177 38.2349 25.6809 38.139 25.5659 38.2731ZM25.3516 38.1046C25.6351 38.1237 25.995 37.9705 26.2057 38.2387C26.2823 38.4762 26.0641 38.5797 25.9109 38.7023C26.0067 38.8632 26.1023 39.0242 26.1866 39.1851C25.9299 39.0127 25.7307 38.7789 25.5315 38.549C25.5239 38.7406 25.5126 38.9282 25.505 39.1275C25.4666 39.1198 25.39 39.1084 25.3632 39.1084C25.3555 38.7751 25.3553 38.4341 25.3553 38.1046H25.3516Z" fill="#195A7D"/>
</svg>
