<svg width="48" height="48" viewBox="0 0 48 48" fill="none" xmlns="http://www.w3.org/2000/svg">
<mask id="mask0_3071_12442" style="mask-type:luminance" maskUnits="userSpaceOnUse" x="0" y="0" width="48" height="48">
<path d="M47.9786 0.0703125H0.078125V47.9706H47.9786V0.0703125Z" fill="white"/>
</mask>
<g mask="url(#mask0_3071_12442)">
<path d="M46.1475 22.8595V22.9056L46.0596 21.7331V21.779L45.9178 20.6295L45.9252 20.6718L45.7221 19.5338L45.7299 19.5836L45.4695 18.4687L45.4808 18.5108L45.1744 17.4189L45.1897 17.4611L44.8298 16.3882L44.8447 16.4342L44.4313 15.392L44.4467 15.4304L43.9827 14.4035L44.0022 14.4418L43.5001 13.4496L43.5233 13.4917L42.9677 12.5261L42.9906 12.5607L42.3931 11.6257L42.42 11.6641L41.7724 10.7636L41.7952 10.7943L41.1135 9.92085L41.1401 9.95527L40.4161 9.12015L40.4468 9.15457L39.6806 8.35386L39.7113 8.38062L38.9106 7.61808L38.9451 7.64876L38.11 6.92476L38.1403 6.95151L37.2708 6.26567L37.3052 6.29242L36.4051 5.65261L36.4395 5.67562L35.5045 5.0779L35.5393 5.10091L34.5737 4.54528L34.6119 4.56829L33.6159 4.05868L33.6582 4.07795L32.6391 3.62204L32.6735 3.63738L31.6315 3.22356L31.6775 3.2389L30.6045 2.87877L30.6431 2.89018L29.551 2.57607L29.6011 2.58748L28.4821 2.33455L28.5244 2.34222L27.3904 2.13924L27.4326 2.14691L26.2755 1.99743H26.3215L25.1531 1.91324H25.1991L24.0153 1.8863H24.061L22.8772 1.91698H22.9232L21.7511 2.00136H21.7971L20.6478 2.14691L20.6897 2.13924L19.5519 2.34222L19.5942 2.33455L18.4793 2.59141L18.5291 2.57981L17.4373 2.89411L17.4755 2.88251L16.4029 3.24264L16.4448 3.2273L15.4028 3.63738L15.4451 3.61811L14.4181 4.08169L14.4604 4.06261L13.4682 4.57222L13.5063 4.55295L12.5411 5.10858L12.5755 5.08557L11.6405 5.68329L11.6753 5.66028L10.7748 6.30009L10.8092 6.27334L9.93974 6.95918L9.97041 6.93224L9.13498 7.65643L9.16977 7.62575L8.36876 8.38829L8.39943 8.36154L7.63321 9.16224L7.66389 9.12782L6.93995 9.96294L6.96688 9.93226L6.27698 10.8059L6.30392 10.7713L5.66416 11.6717L5.68698 11.6373L5.08949 12.5722L5.11231 12.5377L4.5571 13.5033L4.57992 13.4649L4.07035 14.4611L4.08943 14.4188L3.63374 15.438L3.64908 15.4036L3.23529 16.4457L3.25063 16.3998L2.89034 17.4725L2.90194 17.4342L2.58767 18.5262L2.59927 18.4764L2.34261 19.5989L2.3501 19.5568L2.14732 20.6871L2.1548 20.6449L2.00552 21.802V21.7561L1.92134 22.9246V22.8786L1.8944 24.0626V24.0166L1.92508 25.2005V25.1544L2.013 26.3231V26.2771L2.1548 27.4342L2.14732 27.3921L2.3501 28.5223L2.34261 28.4802L2.59927 29.5952L2.58767 29.5492L2.90194 30.6449L2.89034 30.6028L3.25063 31.6755L3.23529 31.6334L3.64534 32.6756L3.62589 32.6334L4.08943 33.6526L4.07035 33.6142L4.57992 34.6104L4.5571 34.5721L5.11231 35.5376L5.08949 35.5032L5.68698 36.438L5.66416 36.3997L6.30392 37.3001L6.27698 37.2657L6.96688 38.1391L6.93995 38.1085L7.66389 38.9438L7.63321 38.9094L8.39943 39.7101L8.36876 39.6833L9.16977 40.4496L9.13498 40.4189L9.97041 41.1429L9.93599 41.1162L10.8055 41.7981L10.7748 41.7752L11.6753 42.4227L11.6368 42.3958L12.5718 42.9935L12.5373 42.9705L13.5026 43.5261L13.4644 43.5031L14.4604 44.0127L14.4181 43.9936L15.4372 44.4496L15.4028 44.4342L16.4448 44.848L16.3987 44.8327L17.4718 45.1928L17.4332 45.1812L18.5253 45.4955L18.4756 45.4839L19.5942 45.7406L19.5519 45.7329L20.6859 45.9361L20.6437 45.9284L21.8008 46.0779H21.7548L22.9232 46.1621H22.8772L24.061 46.189H24.0153L25.1991 46.1584H25.1531L26.3215 46.0702H26.2755L27.4326 45.9284L27.3904 45.9361L28.5244 45.7329L28.4783 45.7445L29.5933 45.4839L29.5551 45.4955L30.6506 45.1889L30.6045 45.2042L31.6775 44.8441L31.6315 44.8595L32.6735 44.4456L32.6353 44.461L33.6541 43.9974L33.6197 44.0127L34.616 43.507L34.5737 43.5299L35.5393 42.9744L35.5045 42.9974L36.4395 42.3997L36.4013 42.4265L37.3015 41.779L37.2708 41.802L38.1403 41.1201L38.1059 41.1468L38.9413 40.4226L38.9065 40.4533L39.7075 39.687L39.6769 39.7138L40.4431 38.9131L40.4124 38.9475L41.1364 38.1124L41.1094 38.1468L41.7915 37.2733L41.7686 37.3038L42.4159 36.4036L42.3893 36.4457L42.9868 35.5108L42.964 35.5453L43.5192 34.5798L43.4964 34.6181L44.0059 33.6219L43.9869 33.664L44.4426 32.645L44.4272 32.6794L44.841 31.6373L44.8257 31.6832L45.186 30.6105L45.1744 30.6488L45.4886 29.5568L45.4733 29.6066L45.7299 28.4839L45.7221 28.5262L45.9252 27.3959L45.9178 27.438L46.067 26.2809V26.3269L46.1512 25.1584V25.2044L46.1782 24.0204V24.0664L46.1475 22.8825V22.8595ZM47.9826 24.0243L47.9519 25.2542L47.8599 26.4687L47.7069 27.6679L47.4962 28.8442L47.2317 30.009L46.9062 31.1431L46.5306 32.2579L46.0977 33.3422L45.6226 34.3998L45.0902 35.4381L44.5118 36.4418L43.887 37.415L43.2165 38.3498L42.5117 39.2541L41.7608 40.1239L40.968 40.9553L40.1367 41.7483L39.2668 42.4992L38.3625 43.2081L37.428 43.8786L36.4548 44.5031L35.451 45.0817L34.4166 45.6067L33.3593 46.0856L32.275 46.5185L31.1564 46.894L30.0186 47.212L28.8615 47.484L27.6856 47.6947L26.4861 47.8479L25.2717 47.9399L24.0419 47.9706L22.8121 47.9399L21.5977 47.8479L20.3986 47.6947L19.2223 47.484L18.0576 47.2197L16.9237 46.894L15.8091 46.5185L14.7249 46.0893L13.6672 45.6143L12.629 45.0817L11.6252 44.5031L10.6521 43.8786L9.7175 43.2081L8.81322 42.4992L7.94374 41.7483L7.11242 40.9553L6.31926 40.1239L5.56838 39.2541L4.85566 38.3498L4.18933 37.4112L3.56864 36.438L2.98986 35.4341L2.46121 34.3998L1.97858 33.3385L1.55319 32.2542L1.17794 31.1431L0.852445 30.0013L0.587934 28.8403L0.377298 27.6641L0.223904 26.4649L0.131867 25.2502L0.101562 24.0204L0.131867 22.7905L0.223904 21.576L0.377298 20.3768L0.587934 19.2004L0.852445 18.0319L1.17794 16.8978L1.55319 15.7828L1.98232 14.6985L2.45747 13.6411L2.98986 12.6028L3.56864 11.599L4.18933 10.6258L4.85566 9.68719L5.56838 8.78284L6.31926 7.9131L7.11242 7.08172L7.94374 6.28868L8.81322 5.53774L9.7175 4.82122L10.6562 4.15447L11.6293 3.53392L12.6331 2.95528L13.6635 2.42659L14.7324 1.94392L15.8166 1.5185L16.9315 1.14303L18.0655 0.817325L19.2264 0.55298L20.4065 0.346069L21.6014 0.19285L22.8237 0.100994L24.0535 0.0703125L25.2833 0.100994L26.4977 0.19285L27.6968 0.346069L28.8731 0.55298L30.0377 0.817325L31.1717 1.14303L32.2866 1.5185L33.3709 1.94767L34.4282 2.42285L35.4664 2.95154L36.4702 3.52999L37.4433 4.15073L38.382 4.81748L39.2859 5.53381L40.1558 6.28475L40.9871 7.07798L41.7799 7.90936L42.5311 8.7791L43.236 9.68326L43.9064 10.6181L44.5308 11.5913L45.1093 12.5952L45.6342 13.6258L46.1131 14.6908L46.5459 15.7752L46.9216 16.8939L47.2433 18.0282L47.5153 19.1853L47.7259 20.3691L47.8793 21.5646L47.971 22.7828L48.0017 24.0127L47.9826 24.0243Z" fill="#195A7D"/>
</g>
<path d="M24.9263 9.88575C24.7271 9.68652 24.4051 9.68652 24.2136 9.88575L23.1219 10.9585C22.8077 11.2726 23.0374 11.8205 23.4818 11.8205C23.6159 11.8205 23.7386 11.7746 23.8421 11.6673L24.9222 10.5944C25.1138 10.3952 25.1138 10.0734 24.9222 9.88182L24.9263 9.88575Z" fill="#54C8E8"/>
<path d="M24.9263 9.88575C24.7271 9.68652 24.4051 9.68652 24.2136 9.88575L23.1219 10.9585C22.8077 11.2726 23.0374 11.8205 23.4818 11.8205C23.6159 11.8205 23.7386 11.7746 23.8421 11.6673L24.9222 10.5944C25.1138 10.3952 25.1138 10.0734 24.9222 9.88182L24.9263 9.88575Z" stroke="#54C8E8" stroke-width="0.29" stroke-miterlimit="10"/>
<path d="M12.6907 27.0078C12.6907 27.0078 12.6525 26.9886 12.6525 26.9694V25.889C12.6525 25.889 12.6715 25.8507 12.6907 25.8507H28.341C28.6168 25.8507 28.8427 25.6246 28.8427 25.3487C28.8427 25.0729 28.6168 24.8468 28.341 24.8468H26.1493V24.2758C26.1493 22.7663 27.3714 21.5441 28.8809 21.5441C29.1567 21.5441 29.3829 21.318 29.3829 21.0422V19.9311H30.5323V21.0307C30.5323 21.3066 30.7582 21.5327 31.034 21.5327C32.5435 21.5327 33.7655 22.7549 33.7655 24.2644V24.8354H30.4937C30.2179 24.8354 29.992 25.0613 29.992 25.3371C29.992 25.613 30.2179 25.8391 30.4937 25.8391H35.3593C35.3593 25.8391 35.3979 25.8583 35.3979 25.8774V26.9578C35.3979 26.9578 35.3785 26.9962 35.3593 26.9962H12.6907V27.0038V27.0078ZM26.1493 31.3219V28.0115H33.7771V31.3219H26.1493ZM22.9161 31.3219V28.0115H25.1455V31.3219H22.9161ZM14.277 31.3219V28.0115H21.9044V31.3219H14.277ZM35.3631 32.3371C35.3631 32.3371 35.4016 32.3563 35.4016 32.3755V33.4561C35.4016 33.4561 35.3822 33.4942 35.3631 33.4942H19.7131C19.4373 33.4942 19.2114 33.7203 19.2114 33.9962C19.2114 34.272 19.4373 34.4981 19.7131 34.4981H21.9044V36.1495C21.9044 37.659 20.6823 38.8812 19.1729 38.8812H17.0085C15.4991 38.8812 14.277 37.659 14.277 36.1495V34.4981H17.5484C17.8242 34.4981 18.0505 34.272 18.0505 33.9962C18.0505 33.7203 17.8242 33.4942 17.5484 33.4942H12.6907C12.6907 33.4942 12.6525 33.4752 12.6525 33.4561V32.3755C12.6525 32.3755 12.6715 32.3371 12.6907 32.3371H35.3593H35.3631ZM33.7771 36.1532C33.7771 37.6628 32.555 38.8851 31.0456 38.8851H28.8809C27.3714 38.8851 26.1493 37.6628 26.1493 36.1532V34.502H33.7771V36.1532ZM14.277 24.2758C14.277 22.7663 15.4991 21.5441 17.0085 21.5441C17.2844 21.5441 17.5102 21.318 17.5102 21.0422V19.9311H18.6596V21.0307C18.6596 21.3066 18.8858 21.5327 19.1617 21.5327C20.6711 21.5327 21.8932 22.7549 21.8932 24.2644V24.8354H14.2654V24.2758H14.2729H14.277ZM16.4376 18.9081V17.7587H19.7476V18.9081H16.4376ZM17.5181 16.1457H18.6674V16.7511H17.5181V16.1457ZM18.5907 14.525H19.1617C19.4375 14.525 19.6634 14.2989 19.6634 14.0231C19.6634 13.7472 19.4375 13.5211 19.1617 13.5211H18.5907V12.9504C18.5907 12.0385 19.33 11.299 20.2418 11.299H20.8587C21.1039 12.8277 22.4255 14.004 24.0269 14.004C25.6283 14.004 26.9502 12.8354 27.1954 11.299H27.812C28.7238 11.299 29.4634 12.0385 29.4634 12.9504V13.5211H28.8925C28.6166 13.5211 28.3908 13.7472 28.3908 14.0231C28.3908 14.2989 28.6166 14.525 28.8925 14.525H29.4634V15.1304H28.8925C28.6166 15.1304 28.3908 15.3565 28.3908 15.6323V16.7434H27.8198C27.544 16.7434 27.3177 16.9695 27.3177 17.2454V19.4177C27.3177 19.6936 27.544 19.9197 27.8198 19.9197H28.3908V20.5632C26.5595 20.8084 25.1571 22.3832 25.1571 24.2721V24.8429H22.9273V24.2721C22.9273 22.3756 21.5138 20.8084 19.6941 20.5632V19.9197H20.265C20.5408 19.9197 20.7667 19.6936 20.7667 19.4177V17.2568C20.7667 16.9809 20.5408 16.7548 20.265 16.7548H19.6941V15.6438C19.6941 15.3679 19.4678 15.1418 19.192 15.1418H18.6214L18.5945 14.525H18.5907ZM24.0269 8.58633C25.2298 8.58633 26.2185 9.5709 26.2185 10.7778C26.2185 11.9847 25.2337 12.9694 24.0269 12.9694C22.8201 12.9694 21.8356 11.9847 21.8356 10.7778C21.8356 9.5709 22.8124 8.58633 24.0269 8.58633ZM30.5323 16.1457V16.7511H29.3829V16.1457H30.5323ZM31.6165 17.7587V18.9081H28.3062V17.7587H31.6165ZM35.3631 28.0231C35.9416 28.0231 36.4054 27.5594 36.4054 26.9808V25.9004C36.4054 25.3219 35.9416 24.8582 35.3631 24.8582H34.7925V24.2874C34.7925 22.3909 33.3787 20.8238 31.5589 20.5786V19.935H32.1298C32.4057 19.935 32.6315 19.7089 32.6315 19.4331V17.2721C32.6315 16.9962 32.4057 16.7702 32.1298 16.7702H31.5589V15.6591C31.5589 15.3832 31.333 15.1572 31.0572 15.1572H30.4863V14.5518H31.0572C31.333 14.5518 31.5589 14.3257 31.5589 14.0498C31.5589 13.774 31.333 13.5479 31.0572 13.5479H30.4863V12.9771C30.4863 11.5059 29.291 10.3105 27.8198 10.3105H27.2029C26.9577 8.78173 25.6361 7.60547 24.0347 7.60547C22.4333 7.60547 21.1114 8.77407 20.8662 10.3105H20.2496C18.7785 10.3105 17.5832 11.5059 17.5832 12.9771V13.5479H17.0123C16.7364 13.5479 16.5102 13.774 16.5102 14.0498C16.5102 14.3257 16.7364 14.5518 17.0123 14.5518H17.5832V15.1572H17.0123C16.7364 15.1572 16.5102 15.3832 16.5102 15.6591V16.7702H15.9396C15.6638 16.7702 15.4376 16.9962 15.4376 17.2721V19.4254C15.4376 19.7013 15.6638 19.9273 15.9396 19.9273H16.5102V20.5709C14.6789 20.8161 13.2769 22.3909 13.2769 24.2798V24.8506H12.706C12.1275 24.8506 11.6641 25.3142 11.6641 25.8928V26.9732C11.6641 27.5517 12.1275 28.0154 12.706 28.0154H13.2769V31.3258H12.706C12.1275 31.3258 11.6641 31.7893 11.6641 32.3678V33.4484C11.6641 34.0269 12.1275 34.4904 12.706 34.4904H13.2769V36.1418C13.2769 38.2108 14.9551 39.8888 17.0239 39.8888H19.1882C21.257 39.8888 22.9352 38.2108 22.9352 36.1418V34.502H25.165V36.1532C25.165 38.2222 26.8427 39.9004 28.9115 39.9004H31.0763C33.1451 39.9004 34.8232 38.2222 34.8232 36.1532V34.502H35.3938C35.9722 34.502 36.4361 34.0384 36.4361 33.4598V32.3794C36.4361 31.8009 35.9722 31.3372 35.3938 31.3372H34.8232V28.0268H35.3631V28.0231Z" fill="#195A7D"/>
<path d="M12.6907 27.0078C12.6907 27.0078 12.6525 26.9886 12.6525 26.9694V25.889C12.6525 25.889 12.6715 25.8507 12.6907 25.8507H28.341C28.6168 25.8507 28.8427 25.6246 28.8427 25.3487C28.8427 25.0729 28.6168 24.8468 28.341 24.8468H26.1493V24.2758C26.1493 22.7663 27.3714 21.5441 28.8809 21.5441C29.1567 21.5441 29.3829 21.318 29.3829 21.0422V19.9311H30.5323V21.0307C30.5323 21.3066 30.7582 21.5327 31.034 21.5327C32.5435 21.5327 33.7655 22.7549 33.7655 24.2644V24.8354H30.4937C30.2179 24.8354 29.992 25.0613 29.992 25.3371C29.992 25.613 30.2179 25.8391 30.4937 25.8391H35.3593C35.3593 25.8391 35.3979 25.8583 35.3979 25.8774V26.9578C35.3979 26.9578 35.3785 26.9962 35.3593 26.9962H12.6907V27.0038V27.0078ZM26.1493 31.3219V28.0115H33.7771V31.3219H26.1493ZM22.9161 31.3219V28.0115H25.1455V31.3219H22.9161ZM14.277 31.3219V28.0115H21.9044V31.3219H14.277ZM35.3631 32.3371C35.3631 32.3371 35.4016 32.3563 35.4016 32.3755V33.4561C35.4016 33.4561 35.3822 33.4942 35.3631 33.4942H19.7131C19.4373 33.4942 19.2114 33.7203 19.2114 33.9962C19.2114 34.272 19.4373 34.4981 19.7131 34.4981H21.9044V36.1495C21.9044 37.659 20.6823 38.8812 19.1729 38.8812H17.0085C15.4991 38.8812 14.277 37.659 14.277 36.1495V34.4981H17.5484C17.8242 34.4981 18.0505 34.272 18.0505 33.9962C18.0505 33.7203 17.8242 33.4942 17.5484 33.4942H12.6907C12.6907 33.4942 12.6525 33.4752 12.6525 33.4561V32.3755C12.6525 32.3755 12.6715 32.3371 12.6907 32.3371H35.3593H35.3631ZM33.7771 36.1532C33.7771 37.6628 32.555 38.8851 31.0456 38.8851H28.8809C27.3714 38.8851 26.1493 37.6628 26.1493 36.1532V34.502H33.7771V36.1532ZM14.277 24.2758C14.277 22.7663 15.4991 21.5441 17.0085 21.5441C17.2844 21.5441 17.5102 21.318 17.5102 21.0422V19.9311H18.6596V21.0307C18.6596 21.3066 18.8858 21.5327 19.1617 21.5327C20.6711 21.5327 21.8932 22.7549 21.8932 24.2644V24.8354H14.2654V24.2758H14.2729H14.277ZM16.4376 18.9081V17.7587H19.7476V18.9081H16.4376ZM17.5181 16.1457H18.6674V16.7511H17.5181V16.1457ZM18.5907 14.525H19.1617C19.4375 14.525 19.6634 14.2989 19.6634 14.0231C19.6634 13.7472 19.4375 13.5211 19.1617 13.5211H18.5907V12.9504C18.5907 12.0385 19.33 11.299 20.2418 11.299H20.8587C21.1039 12.8277 22.4255 14.004 24.0269 14.004C25.6283 14.004 26.9502 12.8354 27.1954 11.299H27.812C28.7238 11.299 29.4634 12.0385 29.4634 12.9504V13.5211H28.8925C28.6166 13.5211 28.3908 13.7472 28.3908 14.0231C28.3908 14.2989 28.6166 14.525 28.8925 14.525H29.4634V15.1304H28.8925C28.6166 15.1304 28.3908 15.3565 28.3908 15.6323V16.7434H27.8198C27.544 16.7434 27.3177 16.9695 27.3177 17.2454V19.4177C27.3177 19.6936 27.544 19.9197 27.8198 19.9197H28.3908V20.5632C26.5595 20.8084 25.1571 22.3832 25.1571 24.2721V24.8429H22.9273V24.2721C22.9273 22.3756 21.5138 20.8084 19.6941 20.5632V19.9197H20.265C20.5408 19.9197 20.7667 19.6936 20.7667 19.4177V17.2568C20.7667 16.9809 20.5408 16.7548 20.265 16.7548H19.6941V15.6438C19.6941 15.3679 19.4678 15.1418 19.192 15.1418H18.6214L18.5945 14.525H18.5907ZM24.0269 8.58633C25.2298 8.58633 26.2185 9.5709 26.2185 10.7778C26.2185 11.9847 25.2337 12.9694 24.0269 12.9694C22.8201 12.9694 21.8356 11.9847 21.8356 10.7778C21.8356 9.5709 22.8124 8.58633 24.0269 8.58633ZM30.5323 16.1457V16.7511H29.3829V16.1457H30.5323ZM31.6165 17.7587V18.9081H28.3062V17.7587H31.6165ZM35.3631 28.0231C35.9416 28.0231 36.4054 27.5594 36.4054 26.9808V25.9004C36.4054 25.3219 35.9416 24.8582 35.3631 24.8582H34.7925V24.2874C34.7925 22.3909 33.3787 20.8238 31.5589 20.5786V19.935H32.1298C32.4057 19.935 32.6315 19.7089 32.6315 19.4331V17.2721C32.6315 16.9962 32.4057 16.7702 32.1298 16.7702H31.5589V15.6591C31.5589 15.3832 31.333 15.1572 31.0572 15.1572H30.4863V14.5518H31.0572C31.333 14.5518 31.5589 14.3257 31.5589 14.0498C31.5589 13.774 31.333 13.5479 31.0572 13.5479H30.4863V12.9771C30.4863 11.5059 29.291 10.3105 27.8198 10.3105H27.2029C26.9577 8.78173 25.6361 7.60547 24.0347 7.60547C22.4333 7.60547 21.1114 8.77407 20.8662 10.3105H20.2496C18.7785 10.3105 17.5832 11.5059 17.5832 12.9771V13.5479H17.0123C16.7364 13.5479 16.5102 13.774 16.5102 14.0498C16.5102 14.3257 16.7364 14.5518 17.0123 14.5518H17.5832V15.1572H17.0123C16.7364 15.1572 16.5102 15.3832 16.5102 15.6591V16.7702H15.9396C15.6638 16.7702 15.4376 16.9962 15.4376 17.2721V19.4254C15.4376 19.7013 15.6638 19.9273 15.9396 19.9273H16.5102V20.5709C14.6789 20.8161 13.2769 22.3909 13.2769 24.2798V24.8506H12.706C12.1275 24.8506 11.6641 25.3142 11.6641 25.8928V26.9732C11.6641 27.5517 12.1275 28.0154 12.706 28.0154H13.2769V31.3258H12.706C12.1275 31.3258 11.6641 31.7893 11.6641 32.3678V33.4484C11.6641 34.0269 12.1275 34.4904 12.706 34.4904H13.2769V36.1418C13.2769 38.2108 14.9551 39.8888 17.0239 39.8888H19.1882C21.257 39.8888 22.9352 38.2108 22.9352 36.1418V34.502H25.165V36.1532C25.165 38.2222 26.8427 39.9004 28.9115 39.9004H31.0763C33.1451 39.9004 34.8232 38.2222 34.8232 36.1532V34.502H35.3938C35.9722 34.502 36.4361 34.0384 36.4361 33.4598V32.3794C36.4361 31.8009 35.9722 31.3372 35.3938 31.3372H34.8232V28.0268H35.3631V28.0231Z" stroke="#195A7D" stroke-width="0.29" stroke-miterlimit="10"/>
</svg>
