<svg width="157" height="34" viewBox="0 0 157 34" fill="none" xmlns="http://www.w3.org/2000/svg">
<path d="M21.6362 33.0542H24.0525C26.3248 33.0542 28.3725 31.6768 29.2271 29.5687L40.8532 0.890625H38.9228C36.3087 0.890625 33.956 2.4792 32.9774 4.90563L21.6328 33.0542H21.6362Z" fill="#185A7D"/>
<path d="M10.8002 33.0542H13.2166C15.4889 33.0542 17.5366 31.6768 18.3912 29.5687L30.0173 0.890625H28.0869C25.4727 0.890625 23.1201 2.4792 22.1414 4.90563L10.7969 33.0542H10.8002Z" fill="#238DC1"/>
<path d="M32.3828 33.0542H34.7992C37.0715 33.0542 39.1192 31.6768 39.9738 29.5687L51.6032 0.890625H49.6728C47.0587 0.890625 44.706 2.4792 43.7274 4.90563L32.3828 33.0542Z" fill="#00263E"/>
<path d="M77.8702 13.8282C74.8305 12.7356 74.7433 12.6954 74.3077 12.444C73.1347 11.7302 72.5281 10.765 72.5281 9.6322C72.5281 7.78557 73.8753 6.48521 75.8292 6.48521C76.962 6.48521 77.8401 6.86057 78.4232 7.57107C79.5661 8.96191 81.3256 10.088 83.1621 10.088H85.3942C85.1562 3.96159 81.0407 0.945312 75.8728 0.945312C70.7049 0.945312 66.5324 4.84637 66.5324 9.75955C66.5324 13.664 68.9219 16.6434 73.2218 18.1951C77.4781 19.7468 77.8267 19.8741 78.7818 20.588C79.737 21.3018 80.2598 22.4782 80.2598 23.735C80.2598 25.9603 78.4802 27.512 75.9164 27.512C74.2608 27.512 73.081 27.0194 72.3638 26.0173C71.2746 24.4891 69.4079 23.8724 67.4875 23.8724H65.3594C65.8822 29.7474 70.2692 33.0519 75.9164 33.0519C81.5635 33.0519 86.1683 28.7286 86.1683 23.1049C86.1683 18.9089 84.3887 16.1809 77.8702 13.8315" fill="#00263E"/>
<path d="M96.8428 27.4919V0.945312H96.521C93.4109 0.945312 90.8906 3.46559 90.8906 6.57571V33.0486H91.2861C94.356 33.0486 96.8428 30.5618 96.8428 27.4919Z" fill="#00263E"/>
<path d="M123.318 33.049L114.627 21.1883C120.405 19.7539 123.013 16.2349 123.013 11.2379C123.013 7.98037 121.84 5.19869 119.624 3.33195C117.54 1.55234 115.237 0.942383 110.847 0.942383H107.224C104.114 0.942383 101.594 3.46266 101.594 6.57278V33.0456H101.989C105.059 33.0456 107.546 30.5589 107.546 27.489V20.8029L114.178 30.4282C115.301 32.067 117.161 33.0456 119.145 33.0456H123.314L123.318 33.049ZM110.458 16.2115H107.549V6.63645H110.2C115.847 6.63645 117.02 8.54677 117.02 11.4156C117.02 14.8039 115.066 16.2148 110.462 16.2148" fill="#00263E"/>
<path d="M142.941 1.00391H142.003C139.731 1.00391 137.68 2.37128 136.805 4.46927L124.867 33.1105H127.766C129.988 33.1105 131.996 31.7867 132.874 29.7457L135.317 23.8707H146.028L148.31 29.3904C149.242 31.6426 151.437 33.1105 153.877 33.1105H156.411L142.945 1.00726L142.941 1.00391ZM137.11 19.2725L140.595 9.38916L144.081 19.2725H137.11Z" fill="#00263E"/>
<path d="M51.7386 4.21582L48.7826 11.4951L51.5241 19.2704H45.6256L43.8359 23.8652H53.4914L55.7301 29.3247C56.6618 31.5768 58.857 33.0447 61.2968 33.0447H63.8305L51.7386 4.21582Z" fill="#00263E"/>
<path d="M8.6098 11.6978L0 33.0564H2.41973C4.69199 33.0564 6.73971 31.679 7.59432 29.5709L16.117 8.55078L13.8883 8.56085C12.3869 8.56085 11.0697 8.97642 10.0375 9.77406C9.39404 10.2701 8.91478 10.9471 8.61316 11.6978" fill="#54C8E8"/>
<path d="M15.3144 5.49226C15.3144 5.49226 16.8761 5.49226 17.3587 5.49226L19.2221 0.897461H17.2917C14.6776 0.897461 12.3249 2.48603 11.3463 4.91246L9.875 8.56551C10.9743 6.69207 13.0052 5.49561 15.3144 5.49561" fill="#54C8E8"/>
</svg>
